<?xml version="1.0" encoding="utf-8"?>
<!-- Generator: Adobe Illustrator 23.0.2, SVG Export Plug-In . SVG Version: 6.00 Build 0)  -->
<svg version="1.1" id="Layer_1" xmlns="http://www.w3.org/2000/svg" xmlns:xlink="http://www.w3.org/1999/xlink" x="0px" y="0px"
	 viewBox="0 0 297.9 316.8" style="enable-background:new 0 0 297.9 316.8;" xml:space="preserve">
<style type="text/css">
	.st0{fill:#F6B4D1;}
	.st1{fill:#868AA8;}
	.st2{fill:#727793;}
	.st3{fill:#535560;}
	.st4{fill:#6D4A48;}
	.st5{fill:#FFFFFF;}
	.st6{fill:#1A3D7B;}
	.st7{opacity:0.5;fill:#32331C;}
	.st8{opacity:0.15;}
	.st9{opacity:0.1;}
	.st10{opacity:0.5;fill:#352727;}
	.st11{fill:#6158BA;}
	.st12{fill:#ACBABF;}
	.st13{clip-path:url(#SVGID_2_);}
	.st14{clip-path:url(#SVGID_4_);fill:#B28B67;}
	.st15{fill:#839D9E;}
	.st16{fill:#8DB5B7;}
	.st17{fill:#A1C9D6;}
	.st18{clip-path:url(#SVGID_6_);}
	.st19{clip-path:url(#SVGID_8_);fill:#CCB279;}
	.st20{clip-path:url(#SVGID_10_);}
	.st21{clip-path:url(#SVGID_12_);fill:#997659;}
	.st22{fill-rule:evenodd;clip-rule:evenodd;fill:#CFE224;}
	.st23{fill:#E24723;}
	.st24{fill:#C44B30;}
	.st25{fill:#79A3A3;}
	.st26{fill:#B232BF;}
	.st27{fill:#832091;}
	.st28{opacity:0.6;fill:#B5BC1E;}
	.st29{fill:#A07A5C;}
	.st30{fill:#F75021;}
</style>
<title>seeker_v1</title>
<path class="st0" d="M899.5,290.9c55.2-39.3,62.5-110.5,118.3-75.5c74,46.5,75.1,61.3,102.6,52.2c30.3-10.1,64.1,16.8,85.7,61.7
	c21.6,44.9-57.3,97.5-128.2,104.7c-71,7.1-97.1-1.4-126.6-18.3C890.9,381.2,850.7,325.6,899.5,290.9z"/>
<g>
	<path class="st1" d="M1196.4,253.7c0.9-0.7,1.1-10.8,0-11.9c-0.6-0.6-4.2-1.4-7.6-2.1c-0.5-1.7-1.2-3.3-2-4.8
		c1.9-2.9,3.9-6.2,4-6.8c0.2-1.1-6.9-8.4-8.4-8.4c-0.8,0-4.1,2-7,4c-1.7-0.9-3.4-1.6-5.3-2.1c-0.7-3.3-1.6-6.9-1.9-7.4
		c-0.7-0.9-10.7-1.1-11.8,0c-0.6,0.6-1.4,4.4-2.1,7.8c-1.6,0.6-3.2,1.2-4.7,2.1c-2.9-1.9-6.1-3.9-6.7-4c-1.1-0.2-8.3,6.8-8.3,8.3
		c0,0.8,2.2,4.2,4.1,7.2c-0.6,1.3-1.2,2.6-1.6,4c-3.5,0.8-7.6,1.7-8.1,2.1c-0.9,0.7-1.1,10.8,0,11.9c0.6,0.6,4.6,1.5,8.1,2.2
		c0.5,1.5,1.1,3,1.8,4.3c-1.9,3-4.1,6.5-4.2,7.2c-0.2,1.1,6.9,8.4,8.4,8.4c0.8,0,4.2-2.1,7.2-4.1c1.3,0.7,2.7,1.3,4.1,1.8
		c0.7,3.4,1.6,7.3,2,7.8c0.7,0.9,10.7,1.1,11.8,0c0.6-0.5,1.4-4.1,2-7.4c1.7-0.5,3.4-1.1,5-1.9c2.9,1.9,6.2,3.9,6.8,4
		c1.1,0.2,8.3-6.8,8.3-8.3c0-0.8-1.9-3.8-3.7-6.5c1-1.7,1.7-3.5,2.3-5.4C1192.2,254.9,1195.9,254,1196.4,253.7z"/>
	<circle class="st2" cx="1162.9" cy="247.7" r="14.2"/>
	<circle class="st3" cx="1162.9" cy="247.7" r="12.1"/>
</g>
<g>
	<path class="st4" d="M1074.3,152.1c0,0,13.6,11.7,14.4,20.1c0.8,8.3,3.6,14.4,6.8,15.5s9.9,3,7,7.8s-4.4,6.3-4.4,9.3
		c0,3-0.7,20.1-3.5,25.4c-2.5,4.7-3.2,6-10.2,7.8c-3.7,0.9-8.5-0.6-10,3.4c-1.5,4-6.4,16.9-6.4,22.2c0,5.3-24.1-19.2-24.1-19.2
		l-18-25.2l-1.9-28.6l30.2-35.3L1074.3,152.1z"/>
	<path class="st5" d="M1069.7,258.8c2.3,3-6.3,36.1,7.7,62.5c3.5,6.6-20.3,21.8-20.3,21.8l-42.9-35.4c0,0,10.3-34.7,10.7-46.6
		c0.2-5.3,3.4-16.2,3.4-16.2S1065.7,253.4,1069.7,258.8z"/>
	<path class="st6" d="M1054.1,259.2c0,0-29.7-9.8-32.6-7.3c-2.3,2-13.8,28.3-22.3,58.5c-8,28.5-22.9,90.3-35.4,113.8
		c-10.2,19.2,145.1,71.7,125.6,34.5c-33-62.8,10.5-122-3.8-148C1078.5,297.5,1053.5,275.6,1054.1,259.2z"/>
	<path class="st7" d="M1077.9,422.9c-6.8-48.6,19.2-91.2,7.8-112.2c-7.2-13.2-32.2-35.1-31.5-51.5c0,0-5.1-1.6-11.2-3.5
		c-4-1.2-2.9,0.7-1.2,10.5c1.9,11.6,8.5,14.1,17.5,21.5c9,7.4,14.3,42.2,10.6,66.3c-3.7,24.1,3.9,48.7,7.2,67.9
		C1079.5,436.3,1079.5,434.5,1077.9,422.9z"/>
	<path class="st4" d="M1127.8,327l8.9,8.6c0,0,8.6,2.4,9.7,1.2c1.1-1.2,5.6-7.1,8.2-7.6c2.6-0.5,14.7-2.8,19.5-6.8
		c4.8-4,9.8-18.7,10.6-25.2s-0.3-8.6-0.8-10c-0.6-1.8-2.5-1.4-2.7-0.3c0,0.1-0.3-0.5-1.1-0.5c-0.7,0-1.3,0.4-1.9,1
		c-2.1,1.8-1.8,5.2-6.5,9s-12,7.4-14.4,8.6c-2.4,1.2-3.1-0.5-2.7-1.6c0.4-1.1,6.1-6.4,7-7.4c0.9-1,1-3.2,0.3-4.2
		c-0.7-1-1.3-0.9-3.2-0.5c-1.9,0.4-5.2,3.4-8.6,5.5c-3.4,2.1-9,6.1-11.8,10.3L1127.8,327z"/>
	<path class="st8" d="M1053.8,362.1c0,0,9.5,37.1,16.9,39.3c7.3,2.2,7.3-18.3,7.3-18.3L1053.8,362.1z"/>
	<polygon class="st5" points="1145,342.2 1147.7,337.7 1129.4,319.2 1124.9,329.7 	"/>
	<path class="st6" d="M1045.1,287.1c0,0,24.7,35.1,47.7,58.1c11.2,11.2,11.5,12.6,13,12c2.1-0.9,19-31.8,19-31.8l23,15.5
		c0,0-8.5,52.4-35.7,56.8s-54.5-23.9-60.2-34.7c-5.6-10.8-14-16.3-20.8-16.7c-6.8-0.4-11.6-42.1-11.6-42.1L1045.1,287.1z"/>
	<path class="st0" d="M1068.4,181.5l23.2-3.2l-1-7.1l2.7,0l2.8,18.8l-2.5-0.1c0,0-1-6.9-1.9-7.9c-1.1-1.3-23.7,2.2-23.7,2.2
		L1068.4,181.5z"/>
	<path class="st9" d="M1068.1,189.8c0,0-7,11.8-5.4,28.1c1,10.6-2.3,48.7-8.6,55.5c-6.3,6.8-13.8,7.6-13.8,7.6l12.5-79.7
		L1068.1,189.8z"/>
	<path class="st10" d="M1181.2,286.9c0,0-3.7,10.1-6.6,15.7c-3.1,5.8,0,2.3,1.4-1.4C1178.7,294.9,1181.1,288.1,1181.2,286.9z"/>
	<path class="st11" d="M1036.4,286.8c-33,3.4-29.3,21.9-43.8,26.8c-9.6,3.3-26.2-10.6-23.8-28.7c1.4-10.6,27.4-63.9,23.8-77.8
		c-3.6-13.9-4.5-40.6,11.5-53.6s33.9-17.9,48.1-16.6c14.2,1.2,28.1,10,30,14.8s2.1,4.7-0.1,6.4c-2.1,1.7-10,8-12.7,7.1
		c-2.8-0.9-6.8-7.2-7.4-6c-0.6,1.2,8.1,12,8.1,22.8c0,10.8-9.2,15.7-8.8,31.5C1061.7,229.2,1057.4,284.6,1036.4,286.8z"/>
	<path class="st10" d="M1144.7,315.6c0,0,12.7-1.7,20.2-1.6c7.8,0.1,0.3-1.2-4.4-1C1152.5,313.3,1146.1,315.1,1144.7,315.6z"/>
	<path class="st8" d="M1077.3,238.7c0,0-7.4,0-10.3-0.6c-2.9-0.6,6.1,6.3,6.3,5.6C1074.8,239.7,1075.5,239.2,1077.3,238.7z"/>
</g>
<g>
	<path class="st12" d="M1012.4,442.4c2-1.5,2.3-23.9,0-26.3c-1.2-1.3-9.4-3.1-16.8-4.6c-1.2-3.7-2.7-7.3-4.5-10.7
		c4.1-6.5,8.6-13.7,8.8-15c0.4-2.5-15.2-18.5-18.6-18.6c-1.8,0-9,4.5-15.5,8.8c-3.7-1.9-7.6-3.4-11.7-4.5
		c-1.6-7.4-3.5-15.3-4.3-16.3c-1.5-2-23.6-2.3-26,0c-1.3,1.2-3.2,9.7-4.7,17.4c-3.6,1.2-7.1,2.8-10.3,4.6
		c-6.4-4.1-13.6-8.6-14.9-8.8c-2.5-0.4-18.4,15.1-18.4,18.4c0,1.8,4.8,9.4,9.2,15.9c-1.4,2.9-2.7,5.8-3.6,8.9
		c-7.7,1.7-16.7,3.8-17.8,4.6c-2,1.5-2.3,23.9,0,26.3c1.3,1.3,10.2,3.3,17.9,4.8c1,3.3,2.4,6.5,4,9.6c-4.3,6.7-9.2,14.5-9.3,15.9
		c-0.4,2.5,15.2,18.5,18.6,18.6c1.8,0,9.4-4.7,15.9-9.1c2.9,1.5,6,2.8,9.2,3.9c1.6,7.6,3.6,16.1,4.5,17.3c1.5,2,23.6,2.3,26,0
		c1.2-1.2,3-9,4.5-16.4c3.8-1.1,7.5-2.5,11-4.3c6.5,4.2,13.7,8.6,15,8.8c2.5,0.4,18.4-15.1,18.4-18.4c0-1.7-4.1-8.3-8.2-14.5
		c2.1-3.7,3.8-7.7,5.1-11.9C1003.1,445.1,1011.3,443.2,1012.4,442.4z"/>
	<circle class="st2" cx="938.3" cy="429.3" r="31.5"/>
	<circle class="st3" cx="938.3" cy="429.3" r="26.7"/>
</g>
<g>
	<path class="st12" d="M1162.1,196.3c0.3-0.6-1.9-6-2.7-6.3c-0.4-0.2-2.6,0.2-4.5,0.6c-0.7-0.8-1.4-1.5-2.2-2.1
		c0.3-2,0.7-4.2,0.6-4.5c-0.2-0.6-5.6-2.9-6.4-2.6c-0.4,0.2-1.7,2-2.8,3.7c-1.1-0.1-2.2,0-3.3,0.1c-1.1-1.6-2.4-3.3-2.7-3.5
		c-0.6-0.3-5.9,1.9-6.3,2.7c-0.2,0.4,0.2,2.7,0.7,4.7c-0.7,0.7-1.4,1.4-2,2.2c-2-0.3-4.1-0.7-4.5-0.6c-0.6,0.2-2.9,5.5-2.5,6.3
		c0.2,0.4,2.1,1.8,3.8,2.9c0,0.8,0,1.7,0,2.5c-1.7,1.2-3.6,2.6-3.8,2.9c-0.3,0.6,1.9,6,2.7,6.3c0.4,0.2,2.8-0.2,4.8-0.7
		c0.6,0.7,1.3,1.3,1.9,1.9c-0.3,2-0.7,4.4-0.6,4.8c0.2,0.6,5.6,2.9,6.4,2.6c0.4-0.2,1.8-2.1,2.9-3.8c0.9,0.1,1.7,0.1,2.6,0
		c1.2,1.7,2.5,3.5,2.8,3.7c0.6,0.3,5.9-1.9,6.3-2.7c0.2-0.4-0.2-2.5-0.6-4.4c0.8-0.7,1.6-1.4,2.2-2.2c2,0.3,4.2,0.7,4.5,0.6
		c0.6-0.2,2.9-5.5,2.5-6.3c-0.2-0.4-1.8-1.6-3.5-2.6c0.1-1.1,0.1-2.3,0-3.4C1160.1,197.9,1161.9,196.6,1162.1,196.3z"/>
	<circle class="st2" cx="1142.9" cy="200.8" r="8.3"/>
	<circle class="st3" cx="1142.9" cy="200.8" r="5.7"/>
</g>
<path class="st6" d="M284,236.7c-9.8,105.2-105.2,9.8-124.6,42c-18,29.8-57.9-8.2-88.1-28.1C29.8,223.1,21.2,220,9.3,197.6
	c-24.2-45.7,10.4-97,77.2-100.7c66.8-3.7,104.2,4.8,126.2,32.6C256.2,184.4,287.9,194.5,284,236.7z"/>
<g>
	<defs>
		<path id="SVGID_1_" d="M100.1,108.6c-8.8-10.3-14.7-23-13.8-37.1c2.9-40.8,59.7-31.9,70.8-11.2c3.8,7.1,5.4,12.3,6.2,23.7
			c0.4,5.7,6.7,10.5,6.6,14.8c0,3.2-7.4,3.5-8.4,5.6c-6.9,13.7-8.3,17.3-14.3,21.7c-4.2,3-8.8,3.5-17.6,3.7l0.6,52.4H84.4
			L100.1,108.6z"/>
	</defs>
	<clipPath id="SVGID_2_">
		<use xlink:href="#SVGID_1_"  style="overflow:visible;"/>
	</clipPath>
	<g class="st13">
		<defs>
			<rect id="SVGID_3_" x="-18.7" y="-16.4" width="259.5" height="200.2"/>
		</defs>
		<clipPath id="SVGID_4_">
			<use xlink:href="#SVGID_3_"  style="overflow:visible;"/>
		</clipPath>
		<rect x="75.9" y="34.3" class="st14" width="97.1" height="156.3"/>
	</g>
</g>
<g>
	<polygon class="st15" points="246.7,194.1 257,142.1 264.3,143.5 253.7,197 	"/>
	<polygon class="st16" points="230.8,250.9 248.7,172.6 261.4,175.1 248.9,254.5 	"/>
	<path class="st17" d="M253.8,148.5c-0.7-0.1-1.3-0.7-1.4-1.4c-0.6-4.2-3.1-17.3-12.7-18.1c-11.4-1-19.4,1-21.2,0.2
		s-0.3-3.4,8.8-5.2c9.1-1.8,27.3-3.3,35-1.6c7.7,1.7,10.4,3.8,14.5,6.1c4.1,2.3,8.3,3.7,8.3,3.7s-0.2-2.6,3.4-1.9
		c2,0.4,5.1,0.9,7,1.3c0.9,0.2,1.5,1.1,1.3,2l-2.5,12.8c-0.2,0.9-1.1,1.5-2,1.3l-6.8-1.3c-0.6-0.1-1.1-0.6-1.2-1.2
		c-0.2-0.8-0.8-1.7-2.8-1.8c-3.2-0.2-9.8,0.2-14.6,6.6c-0.4,0.5-1.1,0.8-1.7,0.7C260.9,149.6,256.1,148.9,253.8,148.5z"/>
</g>
<g>
	<defs>
		<path id="SVGID_5_" d="M139.4,41.3c-5.6-1.7-13.6-2.3-17-1.9c1.9-4.6,2.7-9.8,2.1-14.8c-0.6-4.9-2.8-9-4.8-13.4
			c-0.9-2-2-4-3.6-5.5c-1.6-1.6-3.6-2.6-5.7-3.1c-2.2-0.5-4.4-0.5-6.6,0c-1,0.2-1.8,0.6-2.8,0.9c-1,0.3-1.4-0.4-2.1-1
			c-1.7-1.5-4.2-2.2-6.3-2.4C90-0.2,87.6,0.2,85.3,1c-2.2,0.8-4.4,2-6,3.8c-0.7,0.8-1.4,1.7-1.8,2.7c-0.2,0.4-0.2,0.7-0.6,0.8
			c-0.4,0.1-0.8,0.1-1.2,0.3c-3.8,1.3-7.1,4.3-8.9,8.1c-1,2.2-1.5,6.1-1.4,10.5c0.1,4.4,4.1,15.8,7.8,20c3.3,3.7,8.2,6.2,12.9,7.3
			c-3.1,3.6-5.2,8-6.7,12.5c-1.7,4.9-2.7,10-3.1,15.2c-0.4,4.9-0.4,10.2,0.8,15c1.1,4.5,3.4,8.2,7.3,10.6c1.8,1.1,3.7,1.9,5.6,2.6
			c1.9,0.7,3.8,1.4,5.8,1.8c3.7,0.8,8.1,0.6,11-2.3c1-1.1,2.2-2.4,2.9-3.7c0.3-0.5,17.6-32.6,23.4-35.6c6.4-3.2,13.8-3.6,20.4-6.4
			c1.7-0.7,3.5-1.5,4.7-3c0.5-0.6,1.1-1.4,1.4-2.2c0.3-1.1-0.4-2-0.9-2.8C155.6,51.9,144.9,43,139.4,41.3z"/>
	</defs>
	<clipPath id="SVGID_6_">
		<use xlink:href="#SVGID_5_"  style="overflow:visible;"/>
	</clipPath>
	<g class="st18">
		<defs>
			<rect id="SVGID_7_" x="-0.9" y="-6.8" width="230.7" height="176.4"/>
		</defs>
		<clipPath id="SVGID_8_">
			<use xlink:href="#SVGID_7_"  style="overflow:visible;"/>
		</clipPath>
		<rect x="56.8" y="-8.5" class="st19" width="111.1" height="129.8"/>
	</g>
</g>
<g>
	<defs>
		<path id="SVGID_9_" d="M202.6,231.9l25.9-14.2c3.6-13.8,8-20.8,13-20.8c3.9-1.8-2.9,15.6,4.5,14.1c7.3-1.5,10.6-15.6,13.7-12.9
			c4.6,4,5,14,1.1,22.1c-6.3,13.1-7.1,16.4-25.5,21.5c-9.6,2.7-20,8-31.2,16.1L202.6,231.9z"/>
	</defs>
	<clipPath id="SVGID_10_">
		<use xlink:href="#SVGID_9_"  style="overflow:visible;"/>
	</clipPath>
	<g class="st20">
		<defs>
			<polygon id="SVGID_11_" points="-102.6,449.5 333.3,449.5 277.3,132.3 -102.6,132.3 			"/>
		</defs>
		<clipPath id="SVGID_12_">
			<use xlink:href="#SVGID_11_"  style="overflow:visible;"/>
		</clipPath>
		<rect x="158" y="136.2" class="st21" width="126.9" height="130.2"/>
	</g>
</g>
<path class="st22" d="M128.5,304.3c19.2,0,36.4-2.6,51.1-6.2c-0.4-6.1-0.8-11.9-1.1-16.7c31.2-0.7,36.4-4,55.6-18.9
	c8.9-6.9-10.3-44.1-14.5-43.1c-29.4,7.2-37.7,6.3-54.1,2.3c-10.7-36.3-27.3-51.9-29.9-85.2l-43.5-4.3c-5.2,0-19.3,57.9-19.3,101.6
	c0,23.4-2.9,39.8-6,62.1C84.5,300.7,105.6,304.3,128.5,304.3z"/>
<path class="st23" d="M64.4,287.7c-0.2-1,0.9-1.8,1.8-1.3c8.9,5,39.7,22.6,65.6,17.6c26.3-5.2,43.5-10.7,47.9-12.4
	c0.7-0.2,1.4,0.1,1.5,0.8l-0.1,7.2c0.1,0.5-0.1,1.1-0.6,1.4c-3.8,1.8-18.8,9-46,14.3c-37.1,7.2-66.1-14.2-69.6-16.9
	c-0.2-0.2-0.4-0.4-0.4-0.7L64.4,287.7z"/>
<path class="st24" d="M79.6,282.2c-1.1,1.7,13.2,7.5,25.4,7.8s31.3-1.7,25.8-3.3C125.3,285.1,80.8,280.3,79.6,282.2z"/>
<polygon class="st15" points="88.9,276.4 88.6,287.1 92.8,288.2 93.1,276.3 "/>
<path class="st16" d="M85.4,278.6l11.5,0.3l0.9-32.7c0,0,0-6-5.9-6.1s-6,5.4-6,5.4S85.4,279,85.4,278.6z"/>
<path class="st25" d="M89.8,273.7l-1.3,0c-0.3,0-0.6-0.3-0.6-0.6l0.7-24.9c0-0.3,0.3-0.6,0.6-0.6l1.3,0c0.3,0,0.6,0.3,0.6,0.6
	l-0.7,24.9C90.5,273.4,90.2,273.7,89.8,273.7z"/>
<path class="st25" d="M94.1,273.8l-1.3,0c-0.3,0-0.6-0.3-0.6-0.6l0.7-24.9c0-0.3,0.3-0.6,0.6-0.6l1.3,0c0.3,0,0.6,0.3,0.6,0.6
	l-0.7,24.9C94.7,273.5,94.4,273.8,94.1,273.8z"/>
<path class="st25" d="M96.9,281.5L85,281.2c-0.5,0-1-0.5-1-1l0.1-2.4c0-0.5,0.5-1,1-1l11.9,0.3c0.5,0,1,0.5,1,1l-0.1,2.4
	C97.9,281.1,97.5,281.6,96.9,281.5z"/>
<g>
	<polygon class="st15" points="104.7,276.7 105.9,289.9 110.1,289.9 108.9,276.2 	"/>
	<path class="st26" d="M101.7,279.5l10.2-0.9l-2.1-25.1c0,0-0.5-4.6-5.8-4.1s-4.8,4.7-4.8,4.7S101.8,279.8,101.7,279.5z"/>
	<path class="st27" d="M105.1,274l-1.1,0.1c-0.3,0-0.5-0.2-0.6-0.5l-1.6-18.7c0-0.3,0.2-0.5,0.5-0.6l1.1-0.1c0.3,0,0.5,0.2,0.6,0.5
		l1.6,18.7C105.6,273.7,105.4,274,105.1,274z"/>
	<path class="st27" d="M108.7,273.7l-1.1,0.1c-0.3,0-0.5-0.2-0.6-0.5l-1.6-18.7c0-0.3,0.2-0.5,0.5-0.6l1.1-0.1
		c0.3,0,0.5,0.2,0.6,0.5l1.6,18.7C109.2,273.4,109,273.7,108.7,273.7z"/>
	<path class="st27" d="M112.1,281.2l-10,0.8c-0.5,0-1-0.4-1.1-0.9l-0.2-1.8c0-0.5,0.4-1,0.9-1.1l10-0.8c0.5,0,1,0.4,1.1,0.9l0.2,1.8
		C113.1,280.6,112.7,281.1,112.1,281.2z"/>
</g>
<path class="st28" d="M178.6,281.4c0,0-14.8-2-20.6-6.7c-5.2-4.3,2.1,9.4,20.8,14.8C179.1,289.7,178.6,281.4,178.6,281.4z"/>
<path class="st29" d="M129.6,129.6l0,6c0,0-10.8-3.7-13.2-6.9C113.9,125.6,121.8,129.8,129.6,129.6z"/>
<g>
	<path class="st30" d="M99.2,314.4c7.2,1.4,32.9,1.3,32.9,1.3c1.1,0,2-0.9,2-2l0.5-26c0-1.1-0.9-2.1-2-2.2L78,280.8
		c-1.1-0.1-2.1,0.7-2.2,1.8l-1.6,19.5c-0.1,1.1,0.6,2.4,1.6,2.9C75.8,305,90.5,312.7,99.2,314.4z"/>
</g>
</svg>
