<svg xmlns="http://www.w3.org/2000/svg" viewBox="0 0 297.9 158.9"><defs><style>.a{fill:#cfe224;}.b{fill:#e5bfb1;}.c{fill:#d1afa6;}.d{fill:#0f2337;}.e{fill:#091621;}.f{fill:#1d9366;}.g{fill:#72acdd;}.h{fill:#ccdce5;}.i{fill:#c6492c;}.j{fill:#b0b725;}.k{fill:#f75021;}</style></defs><title>landing-hero</title><path class="a" d="M259.7,224.6c25.6-20.5,45.9-68.9-3.8-98.7-73.7-44.3-61.8-19.5-92.2-13.6S112,61.3,63.4,66.4s-81.1,94.3-47.6,138.4,53.6,50.6,109.5,53.4C193.7,261.6,220.3,256.1,259.7,224.6Z"/><path class="b" d="M152,25.6l.4-.1C152.2,25.2,152.1,25.2,152,25.6Z"/><path class="b" d="M103.8,299.2c9.8-46.1,30.4-108.9,30.4-108.9l34.6-7.9,23.1-7.5s23.6,13,51.3,8.5c8.6-1.4,8-15.1,6.5-43.1S242.3,88,239.2,74c-1-4.5,4.3-16.8,4.3-16.8l-22.3-.8s-1.6,10.5,5.1,19.1c.2,21.2,3.8,72.6-3.1,71.7C205.9,145,182,110.4,182,110.4s-4.8-9.5-3.4-16.8c2-7.7,3.7-9.3,9.3-9.2,5.3.1,18.7,5.8,24.1-10.6,3.2-9.4,6.3-24.6,5-34.4-2.1-16.3-16.4-24-16.4-24L152.4,25.5c1.2,1.9,4.6,16.9,5.4,28.6C159,71.8,136,92.2,136,92.2s-40.5,37.2-48.4,93.1c-5,35.1-5.9,78.2-5.7,109.1C88.5,296.2,95.9,297.8,103.8,299.2Z"/><path class="c" d="M241.3,57.8c.2-1.1-16.1-1-18,.1-1.5.9-2.8,1.3-2.1,4.9s6.8,3.1,10.1,3.3c3.1.2,8.4.1,9.3-1.6S241.3,58,241.3,57.8Z"/><path class="d" d="M215.7,13.6C207.1,3.8,195-2,174.5.6S148.4,8,143.9,17.4c-3.6,7.5-.9,13-3.8,18.2a25.39,25.39,0,0,0,2.7,27.2c8,10.3,16.4,13.2,20.8,11.4,2.9-1.2,3.8-2,2.4-10.7s.9-15.7,10.2-10,6-6.9,4.5-9c-1-1.3-5.6-4.2-2.4-6.2s8.5-6.8,21.2-9c8.9-1.5,18.9,7.4,21.5-.8C223.2,21.4,219.3,17.7,215.7,13.6Z"/><polygon class="e" points="255.2 43 228.4 43.8 228.2 61.4 255.2 63.2 255.2 43"/><path class="f" d="M242.6,38.4c.8.5.7,3.4.2,3.7-.3.2-8.9.5-9.7-.1-.3-.2-.7-3.2.2-3.4C235.2,38.1,241.8,37.8,242.6,38.4Z"/><path class="d" d="M249.2,41.5s-39.4,1.6-42.9,2.1c-1.8.7-2.4,14.2-.3,15,6.4.9,43,5.7,43,5.7A27.88,27.88,0,0,1,249.2,41.5Z"/><path class="g" d="M249.2,41.5c1.3,0,2.5,2.6,3,6.3a.92.92,0,0,0,1.2.1c.4-3,1-5,1.8-5,1.2,0,2.1,4.5,2.1,10.1s-.9,10.1-2.1,10.1c-.8,0-1.4-2-1.8-4.9a.85.85,0,0,0-1.3,0h0c-.6,3.6-1.7,6.1-3,6.1-1.9,0-3.4-5.1-3.4-11.4S247.3,41.5,249.2,41.5Z"/><path class="h" d="M248.8,53.8s2.8,4.2,2.8,4.9-.2,1.3-1.3-.2-4.2-7.4-3.6-7.3S248.8,53.8,248.8,53.8Z"/><path class="h" d="M248.3,57.1a18.08,18.08,0,0,1,1.9,2.9c.1.5.1,1-.7,0s-2.6-3.5-2.4-3.7C247.7,55.9,248.3,57.1,248.3,57.1Z"/><path class="h" d="M255.4,49.1a8,8,0,0,1,1.3,1.9c0,.3,0,.6-.6,0s-1.8-2.3-1.6-2.4C255,48.3,255.4,49.1,255.4,49.1Z"/><path class="i" d="M197.2,175.9s-4-24.9-3.2-27.2,8.7,15.3,9.5,18.9S197.2,175.9,197.2,175.9Z"/><path class="c" d="M186.5,84.3c.2-1.1-7.2,0-9-1.1s-2,3.1-.7,6.4,2.4,1.3,2.9,0a9.62,9.62,0,0,1,2.9-4A7.56,7.56,0,0,1,186.5,84.3Z"/><path class="a" d="M168,151.8c-2.6-3.9-22.5-.5-26.3.7-4.3,5-1.8,28.3,3.3,31.4,8.4,5,18.9,2.6,23.3-3.9C172,174.4,170.6,158.9,168,151.8Z"/><path class="j" d="M165.4,152.6a3.46,3.46,0,0,1,2.3,3.3c.4,2.8-5.4,3-5.4,3s-16.3,2.3-18.2,1.7-3.6-1.5-2.1-4.5S163,151.9,165.4,152.6Z"/><path class="k" d="M110.8,185.5c13,1,21.3-4.7,22.9-2,1.2,2-1.5,6.3-4.1,14.5-8.2,25.8-15.8,51.9-23.1,81.6-1.7,6.9-3.3,13.4-4.7,19.3,28.1,5.2,63.8,7,99.6-4.1-3.3-44.8-4.9-105.1-4.3-110.4.9-7.9-2-7.5,2.5-10.4,4.6-3.1,17.6-29.9,17.6-29.9s-25.9-27.9-30.7-37.4c-5.2-10.3-11.4-6.5-11.4-6.5s-3.8.7-12.8.5S138,89.9,136.4,89s-2.8,1-3.5,1.8c-4.8,5.1-8.2,6.8-18.9,20.6-9.9,12.8-32.2,53.5-27.6,61.2C94.1,185.3,98.4,184.5,110.8,185.5Z"/></svg>