<svg xmlns="http://www.w3.org/2000/svg" viewBox="0 0 170.85 75.39"><title>none404</title><path d="M29.3,1.07H40.72V48.58h9.72v8H40.72V74H30.91V56.59H0V47.27Zm1.61,9-23,38.52h23Z"/><path d="M85.3,0Q97,0,103,9.52t6,28.18q0,18.64-6,28.17T85.3,75.39q-11.67,0-17.62-9.52t-6-28.17q0-18.66,6-28.18T85.3,0Zm0,7.81q-6.89,0-10.28,7.38T71.63,37.7a84.38,84.38,0,0,0,.93,12.89L95.31,14.31Q91.61,7.82,85.3,7.81Zm0,59.77q6.93,0,10.33-7.37T99,37.7a98.68,98.68,0,0,0-1-14.56L74.8,59.52Q78.47,67.58,85.3,67.58Z"/><path d="M149.71,1.07h11.42V48.58h9.72v8h-9.72V74h-9.81V56.59H120.41V47.27Zm1.61,9-23,38.52h23Z"/></svg>