<?xml version="1.0" encoding="utf-8"?>
<!-- Generator: Adobe Illustrator 23.0.2, SVG Export Plug-In . SVG Version: 6.00 Build 0)  -->
<svg version="1.1" id="Layer_1" xmlns="http://www.w3.org/2000/svg" xmlns:xlink="http://www.w3.org/1999/xlink" x="0px" y="0px"
	 viewBox="0 0 297.9 305.3" style="enable-background:new 0 0 297.9 305.3;" xml:space="preserve">
<style type="text/css">
	.st0{fill:#F6B4D1;}
	.st1{fill:#868AA8;}
	.st2{fill:#727793;}
	.st3{fill:#535560;}
	.st4{fill:#6D4A48;}
	.st5{fill:#FFFFFF;}
	.st6{fill:#1A3D7B;}
	.st7{opacity:0.5;fill:#32331C;}
	.st8{opacity:0.15;}
	.st9{fill:#ACBABF;}
	.st10{opacity:0.1;}
	.st11{opacity:0.5;fill:#352727;}
	.st12{fill:#6158BA;}
</style>
<title>seeker_v1</title>
<path class="st0" d="M19.3,156c48.6-34.7,53.9-99.2,104.3-66.4c66.9,43.5,68.2,57,92.5,49.2c26.9-8.6,57.5,16.4,77.6,57.5
	s-49.4,87.5-112.7,92.7s-86.7-3-113.4-18.8C13.2,237.8-23.7,186.7,19.3,156z"/>
<g>
	<path class="st1" d="M295.7,116.9c0.9-0.7,1.1-10.8,0-11.9c-0.6-0.6-4.2-1.4-7.6-2.1c-0.5-1.7-1.2-3.3-2-4.8c1.9-2.9,3.9-6.2,4-6.8
		c0.2-1.1-6.9-8.4-8.4-8.4c-0.8,0-4.1,2-7,4c-1.7-0.9-3.4-1.6-5.3-2.1c-0.7-3.3-1.6-6.9-1.9-7.4c-0.7-0.9-10.7-1.1-11.8,0
		c-0.6,0.6-1.4,4.4-2.1,7.8c-1.6,0.6-3.2,1.2-4.7,2.1c-2.9-1.9-6.1-3.9-6.7-4c-1.1-0.2-8.3,6.8-8.3,8.3c0,0.8,2.2,4.2,4.1,7.2
		c-0.6,1.3-1.2,2.6-1.6,4c-3.5,0.8-7.6,1.7-8.1,2.1c-0.9,0.7-1.1,10.8,0,11.9c0.6,0.6,4.6,1.5,8.1,2.2c0.5,1.5,1.1,3,1.8,4.3
		c-1.9,3-4.1,6.5-4.2,7.2c-0.2,1.1,6.9,8.4,8.4,8.4c0.8,0,4.2-2.1,7.2-4.1c1.3,0.7,2.7,1.3,4.1,1.8c0.7,3.4,1.6,7.3,2,7.8
		c0.7,0.9,10.7,1.1,11.8,0c0.6-0.5,1.4-4.1,2-7.4c1.7-0.5,3.4-1.1,5-1.9c2.9,1.9,6.2,3.9,6.8,4c1.1,0.2,8.3-6.8,8.3-8.3
		c0-0.8-1.9-3.8-3.7-6.5c1-1.7,1.7-3.5,2.3-5.4C291.5,118.2,295.2,117.3,295.7,116.9z"/>
	<circle class="st2" cx="262.2" cy="111" r="14.2"/>
	<circle class="st3" cx="262.2" cy="111" r="12.1"/>
</g>
<path class="st4" d="M167.6,15.4c0,0,13.6,11.7,14.4,20.1s3.6,14.4,6.8,15.5c3.2,1.1,9.9,3,7,7.8c-2.8,4.7-4.4,6.3-4.4,9.3
	s-0.7,20.1-3.5,25.4c-2.5,4.7-3.2,6-10.2,7.8c-3.7,0.9-8.5-0.6-10,3.4c-1.5,4-6.4,16.9-6.4,22.2c0,5.3-24.1-19.2-24.1-19.2l-18-25.2
	l-1.9-28.6l30.2-35.3L167.6,15.4z"/>
<path class="st5" d="M163.1,122c2.3,3-6.3,36.1,7.7,62.5c3.5,6.6-20.3,21.8-20.3,21.8l-42.9-35.4c0,0,10.3-34.7,10.7-46.6
	c0.2-5.3,3.4-16.2,3.4-16.2S159,116.7,163.1,122z"/>
<path class="st6" d="M154.4,305.3c7.2,0,14.3-0.2,21.1-0.5c-18.2-56.2,16.4-107.2,3.5-130.8c-7.2-13.2-32.2-35.1-31.5-51.5
	c0,0-29.7-9.8-32.6-7.3c-2.3,2-13.8,28.3-22.3,58.5c-8,28.5-22.9,90.3-35.4,113.8c-1.2,2.3-0.1,5,2.8,8
	C86.4,300.9,118.8,305.3,154.4,305.3z"/>
<path class="st7" d="M171.2,286.2c-6.8-48.6,19.2-91.2,7.8-112.2c-7.2-13.2-32.2-35.1-31.5-51.5c0,0-5.1-1.6-11.2-3.5
	c-4-1.2-2.9,0.7-1.2,10.5c1.9,11.6,8.5,14.1,17.5,21.5c9,7.4,14.3,42.2,10.6,66.3c-3.7,24.1,3.9,48.7,7.2,67.9
	C172.9,299.6,172.9,297.8,171.2,286.2z"/>
<path class="st4" d="M221.2,190.3l8.9,8.6c0,0,8.6,2.4,9.7,1.2c1.1-1.2,5.6-7.1,8.2-7.6c2.6-0.5,14.7-2.8,19.5-6.8
	c4.8-4,9.8-18.7,10.6-25.2c0.7-6.5-0.3-8.6-0.8-10c-0.6-1.8-2.5-1.4-2.7-0.3c0,0.1-0.3-0.5-1.1-0.5c-0.7,0-1.3,0.4-1.9,1
	c-2.1,1.8-1.8,5.2-6.5,9c-4.7,3.8-12,7.4-14.4,8.6c-2.4,1.2-3.1-0.5-2.7-1.6c0.4-1.1,6.1-6.4,7-7.4c0.9-1,1-3.2,0.3-4.2
	c-0.7-1-1.3-0.9-3.2-0.5c-1.9,0.4-5.2,3.4-8.6,5.5s-9,6.1-11.8,10.3L221.2,190.3z"/>
<path class="st8" d="M147.1,225.4c0,0,9.5,37.1,16.9,39.3s7.3-18.3,7.3-18.3L147.1,225.4z"/>
<polygon class="st5" points="238.4,205.5 241,201 222.7,182.5 218.2,193 "/>
<path class="st6" d="M138.4,150.4c0,0,24.7,35.1,47.7,58.1c11.2,11.2,11.5,12.6,13,12c2.1-0.9,19-31.8,19-31.8l23,15.5
	c0,0-8.5,52.4-35.7,56.8s-54.5-23.9-60.2-34.7s-14-16.3-20.8-16.7s-11.6-42.1-11.6-42.1L138.4,150.4z"/>
<path class="st0" d="M161.7,44.7l23.2-3.2l-1-7.1l2.7,0l2.8,18.8l-2.5-0.1c0,0-1-6.9-1.9-7.9c-1.1-1.3-23.7,2.2-23.7,2.2L161.7,44.7
	z"/>
<path class="st9" d="M3.5,269.7c-0.9,0.7-1.4,5-1.6,10c21.5,7.5,71,22.4,132.5,25.1c0.6-1.5,1.1-3,1.6-4.5
	c7.5-1.6,15.7-3.6,16.8-4.4c2-1.5,2.3-23.9,0-26.3c-1.2-1.3-9.4-3.1-16.8-4.6c-1.2-3.7-2.7-7.3-4.5-10.7c4.1-6.5,8.6-13.7,8.8-15
	c0.4-2.5-15.2-18.5-18.6-18.6c-1.8,0-9,4.5-15.5,8.8c-3.7-1.9-7.6-3.4-11.7-4.5c-1.6-7.4-3.5-15.3-4.3-16.3c-1.5-2-23.6-2.3-26,0
	c-1.3,1.2-3.2,9.7-4.7,17.4c-3.6,1.2-7.1,2.8-10.3,4.6c-6.4-4.1-13.6-8.6-14.9-8.8c-2.5-0.4-18.4,15.1-18.4,18.4
	c0,1.8,4.8,9.4,9.2,15.9c-1.4,2.9-2.7,5.8-3.6,8.9C13.6,266.8,4.7,268.8,3.5,269.7z"/>
<path class="st10" d="M161.4,53.1c0,0-7,11.8-5.4,28.1c1,10.6-2.3,48.7-8.6,55.5s-13.8,7.6-13.8,7.6l12.5-79.7L161.4,53.1z"/>
<path class="st11" d="M274.5,150.2c0,0-3.7,10.1-6.6,15.7c-3.1,5.8,0,2.3,1.4-1.4C272,158.1,274.4,151.4,274.5,150.2z"/>
<path class="st12" d="M129.8,150.1c-33,3.4-29.3,21.9-43.8,26.8c-9.6,3.3-26.2-10.6-23.8-28.7c1.4-10.6,27.4-63.9,23.8-77.8
	c-3.6-13.9-4.5-40.6,11.5-53.6S131.3-1,145.5,0.2s28.1,10,30,14.8s2.1,4.7-0.1,6.4s-10,8-12.7,7.1c-2.8-0.9-6.8-7.2-7.4-6
	c-0.6,1.2,8.1,12,8.1,22.8s-9.2,15.7-8.8,31.5S150.7,147.9,129.8,150.1z"/>
<path class="st11" d="M238,178.9c0,0,12.7-1.7,20.2-1.6c7.8,0.1,0.3-1.2-4.4-1C245.8,176.6,239.4,178.4,238,178.9z"/>
<path class="st8" d="M170.6,102c0,0-7.4,0-10.3-0.6c-2.9-0.6,6.1,6.3,6.3,5.6C168.1,103,168.9,102.5,170.6,102z"/>
<g>
	<path class="st9" d="M261.4,59.6c0.3-0.6-1.9-6-2.7-6.3c-0.4-0.2-2.6,0.2-4.5,0.6c-0.7-0.8-1.4-1.5-2.2-2.1c0.3-2,0.7-4.2,0.6-4.5
		c-0.2-0.6-5.6-2.9-6.4-2.6c-0.4,0.2-1.7,2-2.8,3.7c-1.1-0.1-2.2,0-3.3,0.1c-1.1-1.6-2.4-3.3-2.7-3.5c-0.6-0.3-5.9,1.9-6.3,2.7
		c-0.2,0.4,0.2,2.7,0.7,4.7c-0.7,0.7-1.4,1.4-2,2.2c-2-0.3-4.1-0.7-4.5-0.6c-0.6,0.2-2.9,5.5-2.5,6.3c0.2,0.4,2.1,1.8,3.8,2.9
		c0,0.8,0,1.7,0,2.5c-1.7,1.2-3.6,2.6-3.8,2.9c-0.3,0.6,1.9,6,2.7,6.3c0.4,0.2,2.8-0.2,4.8-0.7c0.6,0.7,1.3,1.3,1.9,1.9
		c-0.3,2-0.7,4.4-0.6,4.8c0.2,0.6,5.6,2.9,6.4,2.6c0.4-0.2,1.8-2.1,2.9-3.8c0.9,0.1,1.7,0.1,2.6,0c1.2,1.7,2.5,3.5,2.8,3.7
		c0.6,0.3,5.9-1.9,6.3-2.7c0.2-0.4-0.2-2.5-0.6-4.4c0.8-0.7,1.6-1.4,2.2-2.2c2,0.3,4.2,0.7,4.5,0.6c0.6-0.2,2.9-5.5,2.5-6.3
		c-0.2-0.4-1.8-1.6-3.5-2.6c0.1-1.1,0.1-2.3,0-3.4C259.4,61.2,261.2,59.9,261.4,59.6z"/>
	<circle class="st2" cx="242.2" cy="64" r="8.3"/>
	<circle class="st3" cx="242.2" cy="64" r="5.7"/>
</g>
<path class="st0" d="M899.5,290.9c55.2-39.3,62.5-110.5,118.3-75.5c74,46.5,75.1,61.3,102.6,52.2c30.3-10.1,64.1,16.8,85.7,61.7
	c21.6,44.9-57.3,97.5-128.2,104.7c-71,7.1-97.1-1.4-126.6-18.3C890.9,381.2,850.7,325.6,899.5,290.9z"/>
<g>
	<path class="st1" d="M1196.4,253.7c0.9-0.7,1.1-10.8,0-11.9c-0.6-0.6-4.2-1.4-7.6-2.1c-0.5-1.7-1.2-3.3-2-4.8
		c1.9-2.9,3.9-6.2,4-6.8c0.2-1.1-6.9-8.4-8.4-8.4c-0.8,0-4.1,2-7,4c-1.7-0.9-3.4-1.6-5.3-2.1c-0.7-3.3-1.6-6.9-1.9-7.4
		c-0.7-0.9-10.7-1.1-11.8,0c-0.6,0.6-1.4,4.4-2.1,7.8c-1.6,0.6-3.2,1.2-4.7,2.1c-2.9-1.9-6.1-3.9-6.7-4c-1.1-0.2-8.3,6.8-8.3,8.3
		c0,0.8,2.2,4.2,4.1,7.2c-0.6,1.3-1.2,2.6-1.6,4c-3.5,0.8-7.6,1.7-8.1,2.1c-0.9,0.7-1.1,10.8,0,11.9c0.6,0.6,4.6,1.5,8.1,2.2
		c0.5,1.5,1.1,3,1.8,4.3c-1.9,3-4.1,6.5-4.2,7.2c-0.2,1.1,6.9,8.4,8.4,8.4c0.8,0,4.2-2.1,7.2-4.1c1.3,0.7,2.7,1.3,4.1,1.8
		c0.7,3.4,1.6,7.3,2,7.8c0.7,0.9,10.7,1.1,11.8,0c0.6-0.5,1.4-4.1,2-7.4c1.7-0.5,3.4-1.1,5-1.9c2.9,1.9,6.2,3.9,6.8,4
		c1.1,0.2,8.3-6.8,8.3-8.3c0-0.8-1.9-3.8-3.7-6.5c1-1.7,1.7-3.5,2.3-5.4C1192.2,254.9,1195.9,254,1196.4,253.7z"/>
	<circle class="st2" cx="1162.9" cy="247.7" r="14.2"/>
	<circle class="st3" cx="1162.9" cy="247.7" r="12.1"/>
</g>
<g>
	<path class="st4" d="M1074.3,152.1c0,0,13.6,11.7,14.4,20.1c0.8,8.3,3.6,14.4,6.8,15.5s9.9,3,7,7.8s-4.4,6.3-4.4,9.3
		c0,3-0.7,20.1-3.5,25.4c-2.5,4.7-3.2,6-10.2,7.8c-3.7,0.9-8.5-0.6-10,3.4c-1.5,4-6.4,16.9-6.4,22.2c0,5.3-24.1-19.2-24.1-19.2
		l-18-25.2l-1.9-28.6l30.2-35.3L1074.3,152.1z"/>
	<path class="st5" d="M1069.7,258.8c2.3,3-6.3,36.1,7.7,62.5c3.5,6.6-20.3,21.8-20.3,21.8l-42.9-35.4c0,0,10.3-34.7,10.7-46.6
		c0.2-5.3,3.4-16.2,3.4-16.2S1065.7,253.4,1069.7,258.8z"/>
	<path class="st6" d="M1054.1,259.2c0,0-29.7-9.8-32.6-7.3c-2.3,2-13.8,28.3-22.3,58.5c-8,28.5-22.9,90.3-35.4,113.8
		c-10.2,19.2,145.1,71.7,125.6,34.5c-33-62.8,10.5-122-3.8-148C1078.5,297.5,1053.5,275.6,1054.1,259.2z"/>
	<path class="st7" d="M1077.9,422.9c-6.8-48.6,19.2-91.2,7.8-112.2c-7.2-13.2-32.2-35.1-31.5-51.5c0,0-5.1-1.6-11.2-3.5
		c-4-1.2-2.9,0.7-1.2,10.5c1.9,11.6,8.5,14.1,17.5,21.5c9,7.4,14.3,42.2,10.6,66.3c-3.7,24.1,3.9,48.7,7.2,67.9
		C1079.5,436.3,1079.5,434.5,1077.9,422.9z"/>
	<path class="st4" d="M1127.8,327l8.9,8.6c0,0,8.6,2.4,9.7,1.2c1.1-1.2,5.6-7.1,8.2-7.6c2.6-0.5,14.7-2.8,19.5-6.8
		c4.8-4,9.8-18.7,10.6-25.2s-0.3-8.6-0.8-10c-0.6-1.8-2.5-1.4-2.7-0.3c0,0.1-0.3-0.5-1.1-0.5c-0.7,0-1.3,0.4-1.9,1
		c-2.1,1.8-1.8,5.2-6.5,9s-12,7.4-14.4,8.6c-2.4,1.2-3.1-0.5-2.7-1.6c0.4-1.1,6.1-6.4,7-7.4c0.9-1,1-3.2,0.3-4.2
		c-0.7-1-1.3-0.9-3.2-0.5c-1.9,0.4-5.2,3.4-8.6,5.5c-3.4,2.1-9,6.1-11.8,10.3L1127.8,327z"/>
	<path class="st8" d="M1053.8,362.1c0,0,9.5,37.1,16.9,39.3c7.3,2.2,7.3-18.3,7.3-18.3L1053.8,362.1z"/>
	<polygon class="st5" points="1145,342.2 1147.7,337.7 1129.4,319.2 1124.9,329.7 	"/>
	<path class="st6" d="M1045.1,287.1c0,0,24.7,35.1,47.7,58.1c11.2,11.2,11.5,12.6,13,12c2.1-0.9,19-31.8,19-31.8l23,15.5
		c0,0-8.5,52.4-35.7,56.8s-54.5-23.9-60.2-34.7c-5.6-10.8-14-16.3-20.8-16.7c-6.8-0.4-11.6-42.1-11.6-42.1L1045.1,287.1z"/>
	<path class="st0" d="M1068.4,181.5l23.2-3.2l-1-7.1l2.7,0l2.8,18.8l-2.5-0.1c0,0-1-6.9-1.9-7.9c-1.1-1.3-23.7,2.2-23.7,2.2
		L1068.4,181.5z"/>
	<path class="st10" d="M1068.1,189.8c0,0-7,11.8-5.4,28.1c1,10.6-2.3,48.7-8.6,55.5c-6.3,6.8-13.8,7.6-13.8,7.6l12.5-79.7
		L1068.1,189.8z"/>
	<path class="st11" d="M1181.2,286.9c0,0-3.7,10.1-6.6,15.7c-3.1,5.8,0,2.3,1.4-1.4C1178.7,294.9,1181.1,288.1,1181.2,286.9z"/>
	<path class="st12" d="M1036.4,286.8c-33,3.4-29.3,21.9-43.8,26.8c-9.6,3.3-26.2-10.6-23.8-28.7c1.4-10.6,27.4-63.9,23.8-77.8
		c-3.6-13.9-4.5-40.6,11.5-53.6s33.9-17.9,48.1-16.6c14.2,1.2,28.1,10,30,14.8s2.1,4.7-0.1,6.4c-2.1,1.7-10,8-12.7,7.1
		c-2.8-0.9-6.8-7.2-7.4-6c-0.6,1.2,8.1,12,8.1,22.8c0,10.8-9.2,15.7-8.8,31.5C1061.7,229.2,1057.4,284.6,1036.4,286.8z"/>
	<path class="st11" d="M1144.7,315.6c0,0,12.7-1.7,20.2-1.6c7.8,0.1,0.3-1.2-4.4-1C1152.5,313.3,1146.1,315.1,1144.7,315.6z"/>
	<path class="st8" d="M1077.3,238.7c0,0-7.4,0-10.3-0.6c-2.9-0.6,6.1,6.3,6.3,5.6C1074.8,239.7,1075.5,239.2,1077.3,238.7z"/>
</g>
<g>
	<path class="st9" d="M1012.4,442.4c2-1.5,2.3-23.9,0-26.3c-1.2-1.3-9.4-3.1-16.8-4.6c-1.2-3.7-2.7-7.3-4.5-10.7
		c4.1-6.5,8.6-13.7,8.8-15c0.4-2.5-15.2-18.5-18.6-18.6c-1.8,0-9,4.5-15.5,8.8c-3.7-1.9-7.6-3.4-11.7-4.5
		c-1.6-7.4-3.5-15.3-4.3-16.3c-1.5-2-23.6-2.3-26,0c-1.3,1.2-3.2,9.7-4.7,17.4c-3.6,1.2-7.1,2.8-10.3,4.6
		c-6.4-4.1-13.6-8.6-14.9-8.8c-2.5-0.4-18.4,15.1-18.4,18.4c0,1.8,4.8,9.4,9.2,15.9c-1.4,2.9-2.7,5.8-3.6,8.9
		c-7.7,1.7-16.7,3.8-17.8,4.6c-2,1.5-2.3,23.9,0,26.3c1.3,1.3,10.2,3.3,17.9,4.8c1,3.3,2.4,6.5,4,9.6c-4.3,6.7-9.2,14.5-9.3,15.9
		c-0.4,2.5,15.2,18.5,18.6,18.6c1.8,0,9.4-4.7,15.9-9.1c2.9,1.5,6,2.8,9.2,3.9c1.6,7.6,3.6,16.1,4.5,17.3c1.5,2,23.6,2.3,26,0
		c1.2-1.2,3-9,4.5-16.4c3.8-1.1,7.5-2.5,11-4.3c6.5,4.2,13.7,8.6,15,8.8c2.5,0.4,18.4-15.1,18.4-18.4c0-1.7-4.1-8.3-8.2-14.5
		c2.1-3.7,3.8-7.7,5.1-11.9C1003.1,445.1,1011.3,443.2,1012.4,442.4z"/>
	<circle class="st2" cx="938.3" cy="429.3" r="31.5"/>
	<circle class="st3" cx="938.3" cy="429.3" r="26.7"/>
</g>
<g>
	<path class="st9" d="M1162.1,196.3c0.3-0.6-1.9-6-2.7-6.3c-0.4-0.2-2.6,0.2-4.5,0.6c-0.7-0.8-1.4-1.5-2.2-2.1
		c0.3-2,0.7-4.2,0.6-4.5c-0.2-0.6-5.6-2.9-6.4-2.6c-0.4,0.2-1.7,2-2.8,3.7c-1.1-0.1-2.2,0-3.3,0.1c-1.1-1.6-2.4-3.3-2.7-3.5
		c-0.6-0.3-5.9,1.9-6.3,2.7c-0.2,0.4,0.2,2.7,0.7,4.7c-0.7,0.7-1.4,1.4-2,2.2c-2-0.3-4.1-0.7-4.5-0.6c-0.6,0.2-2.9,5.5-2.5,6.3
		c0.2,0.4,2.1,1.8,3.8,2.9c0,0.8,0,1.7,0,2.5c-1.7,1.2-3.6,2.6-3.8,2.9c-0.3,0.6,1.9,6,2.7,6.3c0.4,0.2,2.8-0.2,4.8-0.7
		c0.6,0.7,1.3,1.3,1.9,1.9c-0.3,2-0.7,4.4-0.6,4.8c0.2,0.6,5.6,2.9,6.4,2.6c0.4-0.2,1.8-2.1,2.9-3.8c0.9,0.1,1.7,0.1,2.6,0
		c1.2,1.7,2.5,3.5,2.8,3.7c0.6,0.3,5.9-1.9,6.3-2.7c0.2-0.4-0.2-2.5-0.6-4.4c0.8-0.7,1.6-1.4,2.2-2.2c2,0.3,4.2,0.7,4.5,0.6
		c0.6-0.2,2.9-5.5,2.5-6.3c-0.2-0.4-1.8-1.6-3.5-2.6c0.1-1.1,0.1-2.3,0-3.4C1160.1,197.9,1161.9,196.6,1162.1,196.3z"/>
	<circle class="st2" cx="1142.9" cy="200.8" r="8.3"/>
	<circle class="st3" cx="1142.9" cy="200.8" r="5.7"/>
</g>
<path class="st2" d="M103.3,302.4c4.3-5.4,6.8-12.2,6.8-19.5c0-17.4-14.1-31.5-31.5-31.5c-17.4,0-31.5,14.1-31.5,31.5
	c0,3.6,0.6,7,1.7,10.2C64.6,296.7,83.1,300.1,103.3,302.4z"/>
<path class="st3" d="M97.5,301.7c4.8-4.8,7.8-11.5,7.8-18.8c0-14.7-11.9-26.7-26.7-26.7c-14.7,0-26.7,11.9-26.7,26.7
	c0,4.1,0.9,8,2.6,11.5C67.4,297.1,81.9,299.7,97.5,301.7z"/>
</svg>
