<?xml version="1.0" encoding="utf-8"?>
<!-- Generator: Adobe Illustrator 23.0.2, SVG Export Plug-In . SVG Version: 6.00 Build 0)  -->
<svg version="1.1" id="Layer_1" xmlns="http://www.w3.org/2000/svg" xmlns:xlink="http://www.w3.org/1999/xlink" x="0px" y="0px"
	 viewBox="0 0 297.9 305.3" style="enable-background:new 0 0 297.9 305.3;" xml:space="preserve">
<style type="text/css">
	.st0{fill:#CFE224;}
	.st1{fill:#E5BFB1;}
	.st2{fill:#D1AFA6;}
	.st3{fill:#0F2337;}
	.st4{fill:#091621;}
	.st5{fill:#1D9366;}
	.st6{fill:#72ACDD;}
	.st7{fill:#CCDCE5;}
	.st8{fill:#C6492C;}
	.st9{fill:#B0B725;}
	.st10{fill:#F75021;}
</style>
<title>seeker_v1</title>
<path class="st0" d="M259.7,224.6c25.6-20.5,45.9-68.9-3.8-98.7c-73.7-44.3-61.8-19.5-92.2-13.6S112,61.3,63.4,66.4
	s-81.1,94.3-47.6,138.4s53.6,50.6,109.5,53.4C193.7,261.6,220.3,256.1,259.7,224.6z"/>
<g>
	<path class="st1" d="M152,25.6l0.4-0.1C152.2,25.2,152.1,25.2,152,25.6z"/>
	<path class="st1" d="M103.8,299.2c9.8-46.1,30.4-108.9,30.4-108.9l34.6-7.9l23.1-7.5c0,0,23.6,13,51.3,8.5c8.6-1.4,8-15.1,6.5-43.1
		S242.3,88,239.2,74c-1-4.5,4.3-16.8,4.3-16.8l-22.3-0.8c0,0-1.6,10.5,5.1,19.1c0.2,21.2,3.8,72.6-3.1,71.7
		c-17.3-2.2-41.2-36.8-41.2-36.8s-4.8-9.5-3.4-16.8c2-7.7,3.7-9.3,9.3-9.2c5.3,0.1,18.7,5.8,24.1-10.6c3.2-9.4,6.3-24.6,5-34.4
		c-2.1-16.3-16.4-24-16.4-24l-48.2,10.1c1.2,1.9,4.6,16.9,5.4,28.6C159,71.8,136,92.2,136,92.2s-40.5,37.2-48.4,93.1
		c-5,35.1-5.9,78.2-5.7,109.1C88.5,296.2,95.9,297.8,103.8,299.2z"/>
</g>
<path class="st2" d="M241.3,57.8c0.2-1.1-16.1-1-18,0.1c-1.5,0.9-2.8,1.3-2.1,4.9c0.8,3.6,6.8,3.1,10.1,3.3c3.1,0.2,8.4,0.1,9.3-1.6
	C241.6,62.8,241.3,58,241.3,57.8z"/>
<path class="st3" d="M215.7,13.6C207.1,3.8,195-2,174.5,0.6S148.4,8,143.9,17.4c-3.6,7.5-0.9,13-3.8,18.2
	c-4.5,8.8-3.4,19.4,2.7,27.2c8,10.3,16.4,13.2,20.8,11.4c2.9-1.2,3.8-2,2.4-10.7s0.9-15.7,10.2-10c9.3,5.7,6-6.9,4.5-9
	c-1-1.3-5.6-4.2-2.4-6.2c3.2-2,8.5-6.8,21.2-9c8.9-1.5,18.9,7.4,21.5-0.8C223.2,21.4,219.3,17.7,215.7,13.6z"/>
<polygon class="st4" points="255.2,43 228.4,43.8 228.2,61.4 255.2,63.2 "/>
<path class="st5" d="M242.6,38.4c0.8,0.5,0.7,3.4,0.2,3.7c-0.3,0.2-8.9,0.5-9.7-0.1c-0.3-0.2-0.7-3.2,0.2-3.4
	C235.2,38.1,241.8,37.8,242.6,38.4z"/>
<path class="st3" d="M249.2,41.5c0,0-39.4,1.6-42.9,2.1c-1.8,0.7-2.4,14.2-0.3,15c6.4,0.9,43,5.7,43,5.7
	C245.8,57.1,245.9,48.8,249.2,41.5z"/>
<path class="st6" d="M249.2,41.5c1.3,0,2.5,2.6,3,6.3c0.3,0.3,0.9,0.4,1.2,0.1c0.4-3,1-5,1.8-5c1.2,0,2.1,4.5,2.1,10.1
	s-0.9,10.1-2.1,10.1c-0.8,0-1.4-2-1.8-4.9c-0.4-0.4-0.9-0.4-1.3,0c0,0,0,0,0,0c-0.6,3.6-1.7,6.1-3,6.1c-1.9,0-3.4-5.1-3.4-11.4
	S247.3,41.5,249.2,41.5z"/>
<path class="st7" d="M248.8,53.8c0,0,2.8,4.2,2.8,4.9s-0.2,1.3-1.3-0.2c-1-1.5-4.2-7.4-3.6-7.3C247.3,51.4,248.8,53.8,248.8,53.8z"
	/>
<path class="st7" d="M248.3,57.1c0.7,0.9,1.4,1.9,1.9,2.9c0.1,0.5,0.1,1-0.7,0s-2.6-3.5-2.4-3.7C247.7,55.9,248.3,57.1,248.3,57.1z"
	/>
<path class="st7" d="M255.4,49.1c0.5,0.6,1,1.2,1.3,1.9c0,0.3,0,0.6-0.6,0c-0.5-0.6-1.8-2.3-1.6-2.4C255,48.3,255.4,49.1,255.4,49.1
	z"/>
<path class="st8" d="M197.2,175.9c0,0-4-24.9-3.2-27.2c0.8-2.3,8.7,15.3,9.5,18.9S197.2,175.9,197.2,175.9z"/>
<path class="st2" d="M186.5,84.3c0.2-1.1-7.2,0-9-1.1c-1.8-1.1-2,3.1-0.7,6.4s2.4,1.3,2.9,0c0.6-1.6,1.6-2.9,2.9-4
	C183.7,84.8,185.1,84.4,186.5,84.3z"/>
<path class="st0" d="M168,151.8c-2.6-3.9-22.5-0.5-26.3,0.7c-4.3,5-1.8,28.3,3.3,31.4c8.4,5,18.9,2.6,23.3-3.9
	C172,174.4,170.6,158.9,168,151.8z"/>
<path class="st9" d="M165.4,152.6c1.4,0.5,2.3,1.8,2.3,3.3c0.4,2.8-5.4,3-5.4,3s-16.3,2.3-18.2,1.7s-3.6-1.5-2.1-4.5
	S163,151.9,165.4,152.6z"/>
<path class="st10" d="M110.8,185.5c13,1,21.3-4.7,22.9-2c1.2,2-1.5,6.3-4.1,14.5c-8.2,25.8-15.8,51.9-23.1,81.6
	c-1.7,6.9-3.3,13.4-4.7,19.3c28.1,5.2,63.8,7,99.6-4.1c-3.3-44.8-4.9-105.1-4.3-110.4c0.9-7.9-2-7.5,2.5-10.4
	c4.6-3.1,17.6-29.9,17.6-29.9s-25.9-27.9-30.7-37.4c-5.2-10.3-11.4-6.5-11.4-6.5s-3.8,0.7-12.8,0.5c-9-0.2-24.3-10.8-25.9-11.7
	c-1.5-0.9-2.8,1-3.5,1.8c-4.8,5.1-8.2,6.8-18.9,20.6c-9.9,12.8-32.2,53.5-27.6,61.2C94.1,185.3,98.4,184.5,110.8,185.5z"/>
</svg>
