<?xml version="1.0" encoding="utf-8"?>
<!-- Generator: Adobe Illustrator 23.0.2, SVG Export Plug-In . SVG Version: 6.00 Build 0)  -->
<svg version="1.1" id="Layer_1" xmlns="http://www.w3.org/2000/svg" xmlns:xlink="http://www.w3.org/1999/xlink" x="0px" y="0px"
	 viewBox="0 0 297.9 305.3" style="enable-background:new 0 0 297.9 305.3;" xml:space="preserve">
<style type="text/css">
	.st0{fill:#CFE224;}
	.st1{fill:#D1AFA6;}
	.st2{fill:#E5BFB1;}
	.st3{fill:#0F2337;}
	.st4{fill:#091621;}
	.st5{fill:#1D9366;}
	.st6{fill:#72ACDD;}
	.st7{fill:#F75021;}
	.st8{fill:#CCDCE5;}
	.st9{fill:#C6492C;}
	.st10{fill:#B0B725;}
</style>
<title>seeker_v1</title>
<path class="st0" d="M270,230.3c26.8-20.7,48.1-69.6-3.9-99.8c-77.2-44.8-64.8-19.8-96.6-13.7S115.2,65.2,64.2,70.3
	c-51,5.2-85,95.3-49.9,140s56.2,51.2,114.7,54C200.8,267.7,228.7,262.1,270,230.3z"/>
<path class="st1" d="M241.3,57.8c0.3-1.1-16.1-1-18,0.1c-1.5,0.9-2.8,1.3-2.1,4.9c0.7,3.4,6.9,3.1,10.2,3.3c3.1,0.2,8.4,0.1,9.3-1.6
	C241.6,62.8,241.2,58,241.3,57.8z"/>
<g>
	<path class="st2" d="M105.6,290.7c10.3-44.9,28.6-100.4,28.6-100.4l34.6-7.9l23.1-7.5c0,0,23.7,12.9,51.3,8.5
		c8.6-1.4,8-15.2,6.4-43.1c-1.6-28-7.4-52.3-10.6-66.3c-1-4.5,4.3-16.8,4.3-16.8l-22.3-0.8c0,0-1.6,10.5,5.1,19.1
		c0.3,21.2,3.8,72.6-3.1,71.7c-17.3-2.2-41.1-36.8-41.1-36.8s-4.8-9.5-3.4-16.8c2-7.7,3.7-9.3,9.3-9.2c5.2,0.1,18.6,5.8,24.1-10.5
		c3.1-9.4,6.2-24.6,5-34.4c-2.1-16.3-16.4-24-16.4-24l-48.2,10.1c1.2,1.9,4.6,16.9,5.4,28.6C159,71.9,136,92.3,136,92.3
		s-40.5,37.2-48.4,93.1c-4.5,31.6-5.7,69.7-5.7,99.6C87.2,286.9,94.9,289.1,105.6,290.7z"/>
	<path class="st2" d="M152,25.6l0.4-0.1C152.2,25.3,152,25.3,152,25.6z"/>
</g>
<path class="st3" d="M215.6,13.6c-8.6-9.8-20.8-15.6-41.2-13S148.3,8,143.8,17.4c-3.6,7.5-0.9,13-3.8,18.2
	c-2.9,5.2-5.3,16.8,2.7,27.2s16.4,13.2,20.8,11.4c2.9-1.2,3.8-2,2.4-10.7s0.9-15.7,10.2-10c9.3,5.7,6-6.9,4.5-9
	c-1-1.3-5.6-4.2-2.4-6.2c3.2-2,8.5-6.8,21.2-9c8.9-1.5,18.9,7.4,21.5-0.7C223.1,21.4,219.2,17.7,215.6,13.6z"/>
<g>
	<polygon class="st4" points="255.2,43 228.4,43.8 228.1,61.5 255.2,63.2 	"/>
	<path class="st5" d="M242.6,38.4c0.8,0.5,0.7,3.4,0.2,3.7c-0.3,0.2-8.9,0.6-9.7-0.1c-0.3-0.2-0.7-3.2,0.2-3.4
		C235.2,38.2,241.8,37.8,242.6,38.4z"/>
	<path class="st3" d="M249.1,41.6c0,0-39.4,1.6-42.9,2.1c-1.8,0.7-2.4,14.2-0.3,15c6.4,0.9,43,5.7,43,5.7S243.6,53.9,249.1,41.6z"/>
	<path class="st6" d="M249.1,41.6c1.3,0,2.5,2.6,3,6.3c0.4,0.4,0.9,0.3,1.2,0.1c0.4-3,1-5,1.8-5c1.2,0,2.1,4.5,2.1,10.1
		s-0.9,10.1-2.1,10.1c-0.8,0-1.4-2-1.8-4.9c-0.5-0.4-0.9-0.3-1.3,0c-0.6,3.6-1.7,6.1-3,6.1c-1.9,0-3.4-5.1-3.4-11.4
		S247.2,41.6,249.1,41.6z"/>
</g>
<path class="st7" d="M110.7,185.6c13,1,21.3-4.7,22.9-2c1.2,2-1.5,6.3-4.1,14.5c-8.2,25.8-15.8,51.9-23.1,81.6
	c-1.1,4.4-1.7,8-1.8,10.9c11.1,1.8,25.6,3.1,44.1,3.1c26.8,0,41.6-2.1,54-5.1c-2.7-24.6-5.7-96.8-5.7-104.2c0.1-8-1.9-7.5,2.5-10.4
	c4.7-3.1,17.6-29.9,17.6-29.9s-25.9-27.9-30.7-37.4c-5.2-10.3-11.4-6.5-11.4-6.5s-3.8,0.7-12.8,0.5c-9-0.2-24.3-10.8-25.9-11.7
	c-1.5-0.9-2.8,1-3.5,1.8c-4.8,5.1-8.2,6.8-18.9,20.6c-9.9,12.8-32.2,53.5-27.6,61.2C94,185.4,98.3,184.6,110.7,185.6z"/>
<path class="st8" d="M248.7,53.8c0,0,2.8,4.1,2.8,4.9c0,0.8-0.3,1.4-1.3-0.2c-1-1.5-4.2-7.4-3.6-7.3
	C247.2,51.4,248.7,53.8,248.7,53.8z"/>
<path class="st8" d="M248.3,57.1c0,0,1.8,2.4,1.9,2.9s0.1,1-0.7,0s-2.6-3.5-2.4-3.7C247.7,55.9,248.3,57.1,248.3,57.1z"/>
<path class="st8" d="M255.3,49.1c0,0,1.3,1.5,1.3,1.9c0,0.3,0,0.6-0.6,0c-0.5-0.6-1.9-2.3-1.6-2.4C254.9,48.3,255.3,49.1,255.3,49.1
	z"/>
<path class="st9" d="M197.1,175.9c0,0-4-24.9-3.2-27.2s8.7,15.4,9.5,18.9S197.1,175.9,197.1,175.9z"/>
<path class="st1" d="M186.4,84.3c0.3-1.1-7.2,0-9-1.1c-1.9-1.1-2,3.1-0.7,6.4c1.2,3.3,2.4,1.3,2.9,0c0.6-1.3,1.3-2.8,2.9-4
	C184.4,84.2,186.3,84.5,186.4,84.3z"/>
<path class="st0" d="M167.9,151.8c-2.6-3.9-22.5-0.5-26.3,0.7c-4.3,5-1.8,28.3,3.3,31.4c8.4,5,18.9,2.6,23.3-3.9
	C171.9,174.4,170.5,158.9,167.9,151.8z"/>
<path class="st10" d="M165.3,152.6c0,0,1.9,0.5,2.3,3.3s-5.4,3-5.4,3s-16.3,2.3-18.2,1.7c-1.9-0.6-3.6-1.5-2.1-4.5
	C143.4,153,162.9,151.9,165.3,152.6z"/>
</svg>
