<svg xmlns="http://www.w3.org/2000/svg" viewBox="0 0 304.37 194.06"><defs><style>.a{fill:#15206d;}.b{fill:#f2b604;}</style></defs><title>logo-colour</title><polygon class="a" points="171.84 0 171.84 23.38 118.75 23.38 118.75 53.07 64.63 53.07 64.63 108.03 118.75 108.03 119.61 108.03 171.74 108.03 171.74 72.81 171.84 72.81 172.45 72.81 225.54 72.81 225.54 0 171.84 0"/><rect class="b" x="180.07" y="80.55" width="53.7" height="43.75"/><path class="a" d="M0,151H8.64l11.94,33.39L32.87,151h8.34v42H34.69V162.48L23.16,193H17.52L6.41,162.54V193H0Z"/><path class="a" d="M50.15,151H78.08v6.11H57.26v11.18H76.9v6.17H57.26v12.4H79.19L78.37,193H50.15Z"/><path class="a" d="M93.07,151v35.81h20.81L113,193H86V151Z"/><path class="a" d="M119.64,151h7.12v42h-7.12Z"/><path class="a" d="M153.92,194.06a21.05,21.05,0,0,1-8.14-1.5,17.38,17.38,0,0,1-6.21-4.32,19.29,19.29,0,0,1-4-6.91,31.42,31.42,0,0,1,0-18.55,20,20,0,0,1,4-7,17.07,17.07,0,0,1,6.24-4.35,22.51,22.51,0,0,1,16.16,0,16.76,16.76,0,0,1,6.18,4.32,19.72,19.72,0,0,1,3.91,6.91A28.88,28.88,0,0,1,173.5,172a29.64,29.64,0,0,1-1.35,9.32,19.83,19.83,0,0,1-3.88,6.94,16.65,16.65,0,0,1-6.15,4.35A21.22,21.22,0,0,1,153.92,194.06Zm-.06-6.12q6.06,0,9.17-4.26T166.15,172a25.89,25.89,0,0,0-.79-6.64,14.73,14.73,0,0,0-2.33-5,10.41,10.41,0,0,0-3.82-3.18,13.45,13.45,0,0,0-10.7,0,10.67,10.67,0,0,0-3.85,3.18,14,14,0,0,0-2.32,5,26.38,26.38,0,0,0-.77,6.64q0,7.41,3.09,11.67T153.86,187.94Z"/><path class="a" d="M180.85,151h14.87a24.32,24.32,0,0,1,8.14,1.15,13,13,0,0,1,5,3,10.13,10.13,0,0,1,2.53,4.11,14.88,14.88,0,0,1,.7,4.44,14.39,14.39,0,0,1-1.47,6.82,11.6,11.6,0,0,1-4.93,4.64L214.24,193h-9.47l-7.05-15.76h-8.23V193h-8.64ZM196.31,170a11.3,11.3,0,0,0,3.41-.44,5.16,5.16,0,0,0,2.14-1.23,4.11,4.11,0,0,0,1.09-1.91,9.55,9.55,0,0,0,.3-2.47,6.47,6.47,0,0,0-.36-2.15,4.33,4.33,0,0,0-1.2-1.82,5.87,5.87,0,0,0-2.35-1.24,13.91,13.91,0,0,0-3.8-.44h-6V170Z"/><path class="a" d="M219.24,151H228v42h-8.76Z"/><path class="a" d="M242.81,179.3q.3,3.88,2.5,5.64t6.5,1.77a11.91,11.91,0,0,0,3.47-.44,6.75,6.75,0,0,0,2.29-1.18,4.25,4.25,0,0,0,1.27-1.73,6.16,6.16,0,0,0,.38-2.18,4.66,4.66,0,0,0-1.24-3.09q-1.23-1.44-4.52-2.08L248,175a31.64,31.64,0,0,1-5.7-1.53,13.24,13.24,0,0,1-4.15-2.44,9.77,9.77,0,0,1-2.56-3.67,13.73,13.73,0,0,1-.88-5.18,11.13,11.13,0,0,1,1.21-5.29,10.78,10.78,0,0,1,3.35-3.82,15.46,15.46,0,0,1,5.14-2.32A25.65,25.65,0,0,1,251,150a23.53,23.53,0,0,1,7.64,1.06,14.09,14.09,0,0,1,4.94,2.79,11,11,0,0,1,2.79,4,19,19,0,0,1,1.21,4.76l-8.29,1.06a8.27,8.27,0,0,0-2.5-5q-1.86-1.53-5.62-1.53a14.35,14.35,0,0,0-3.67.39,7,7,0,0,0-2.32,1,3.44,3.44,0,0,0-1.24,1.44,4.35,4.35,0,0,0-.35,1.7,4.48,4.48,0,0,0,1.32,3.53,9.86,9.86,0,0,0,4.5,1.82l5.76,1.12q6.82,1.35,10,4.38t3.17,8.73a12.38,12.38,0,0,1-1,5.09,11.19,11.19,0,0,1-3.06,4,14.38,14.38,0,0,1-5.08,2.71,24,24,0,0,1-7.17,1q-8.6,0-13.14-3.68t-4.91-11.08Z"/><path class="a" d="M274.5,151h28.64v7.47H283.26v9.17H302v7.52h-18.7v10.35h21.11l-.88,7.47h-29Z"/></svg>