<svg xmlns="http://www.w3.org/2000/svg" viewBox="0 0 551.8 506.4"><defs><style>.a{fill:#fff;}.b,.c{fill:none;stroke-miterlimit:10;stroke-width:3px;}.b{stroke:#fff;}.c{stroke:#ff1504;}.d{fill:#ff1504;}.e{fill:#b0aba3;}</style></defs><title>hero</title><path class="a" d="M162.34,247.25a5.57,5.57,0,0,1-1.63,2,6.72,6.72,0,0,1-2.45,1.12,13.56,13.56,0,0,1-3.12.34H147.4V238.08h9c2.27,0,3.93.61,5,1.83a6.59,6.59,0,0,1,1.57,4.4,6.44,6.44,0,0,1-.6,2.94M147.4,257.64h8.44a10.55,10.55,0,0,1,6.71,1.95c1.6,1.28,2.37,3.15,2.37,5.74A6.56,6.56,0,0,1,164,269a7.59,7.59,0,0,1-2.29,2.23,8.72,8.72,0,0,1-2.95,1.11,17.71,17.71,0,0,1-3,.29H147.4Zm22.38-.38a11.32,11.32,0,0,0-3.31-2.69,10.85,10.85,0,0,0-2-.8,12.89,12.89,0,0,0,4-3.12,10.52,10.52,0,0,0,2.34-7.07,12.82,12.82,0,0,0-1.12-5.53,10.82,10.82,0,0,0-3.08-3.9,13.48,13.48,0,0,0-4.58-2.28,20.54,20.54,0,0,0-5.66-.76H140.59a.68.68,0,0,0-.67.69v47.11a.68.68,0,0,0,.67.69h15.57a22,22,0,0,0,6.41-.9,16.29,16.29,0,0,0,5.27-2.63,12.58,12.58,0,0,0,3.62-4.32,12.94,12.94,0,0,0,1.33-5.95,13.43,13.43,0,0,0-.81-4.71,13.13,13.13,0,0,0-2.2-3.83"/><path class="a" d="M352.38,254.39a23.51,23.51,0,0,0-5.54-2.3,48.75,48.75,0,0,1-5.32-1.77,12.2,12.2,0,0,1-3.92-2.46,5.32,5.32,0,0,1-1.45-4.08,6.65,6.65,0,0,1,.38-2.11,5.65,5.65,0,0,1,1.29-2.1,7,7,0,0,1,2.49-1.64,10.73,10.73,0,0,1,4-.65,9.43,9.43,0,0,1,4.5,1.06,7.76,7.76,0,0,1,3,2.75.67.67,0,0,0,.47.31.65.65,0,0,0,.53-.17l5-4.73a.69.69,0,0,0,.07-.94,13,13,0,0,0-6.28-4.55,24.33,24.33,0,0,0-7.31-1.1,17.88,17.88,0,0,0-7.28,1.36,15.58,15.58,0,0,0-5,3.37,13,13,0,0,0-2.87,4.5,13.48,13.48,0,0,0-.91,4.64,14.48,14.48,0,0,0,1.77,7.66,14.27,14.27,0,0,0,4.34,4.5,22.31,22.31,0,0,0,5.55,2.57c1.9.59,3.7,1.21,5.34,1.85a13.63,13.63,0,0,1,4,2.28,4.5,4.5,0,0,1,1.42,3.62,6.12,6.12,0,0,1-.74,3.05,7.36,7.36,0,0,1-2,2.25,8.73,8.73,0,0,1-2.71,1.4,10.07,10.07,0,0,1-3,.47,11.87,11.87,0,0,1-5.08-1.17,9.64,9.64,0,0,1-4-3.58.61.61,0,0,0-.46-.3.62.62,0,0,0-.52.16l-5.07,4.52a.7.7,0,0,0-.1.93,14.42,14.42,0,0,0,6.51,5.16,22.42,22.42,0,0,0,8.51,1.64,19.29,19.29,0,0,0,6.37-1,15.46,15.46,0,0,0,5.22-3,14.23,14.23,0,0,0,3.54-4.82,15.32,15.32,0,0,0,1.31-6.42,12.37,12.37,0,0,0-1.79-7.08,13.37,13.37,0,0,0-4.35-4.06"/><path class="a" d="M397.22,231.11H361.83a.68.68,0,0,0-.67.69v6a.68.68,0,0,0,.67.69h13.95v40.43a.68.68,0,0,0,.67.69h6.15a.68.68,0,0,0,.67-.69V238.48h14a.68.68,0,0,0,.66-.69v-6a.68.68,0,0,0-.66-.69"/><path class="a" d="M303.17,272.9c-1,0-2-.06-3-.14-8.51-.75-15.49-4.62-22-9.85-2.39-1.92-4.72-4-7-6.22,5-4.89,9.83-9.61,15-13.11a18,18,0,0,1,1.45,21.67,30,30,0,0,0,6.64,2.82,25.48,25.48,0,0,0-1.7-28,26.67,26.67,0,0,1,10.62-2.26c9.32,0,16.91,7.88,16.91,17.55s-7.59,17.55-16.91,17.55m-29.52,0a33,33,0,0,1-15.93-3.9c2.85-2.27,5.58-4.73,8.24-7.27a99,99,0,0,0,12.52,10.44,16.09,16.09,0,0,1-4.83.73m29.52-42.45a34.35,34.35,0,0,0-16.24,4.19c-.83.48-6.58,4.15-7,4.45-.93.69-1.84,1.41-2.74,2.15C274,244,270.92,247,267.88,250l-5.17,5c-2.37,2.26-4.69,4.35-7,6.26-7.8,6.67-16.15,11.62-26.95,11.62a16.3,16.3,0,0,1-4.82-.73,99.62,99.62,0,0,0,12.51-10.44c1.61,1.53,3.24,3,4.9,4.48a44.63,44.63,0,0,0,6.76-3.76c-2.19-1.8-4.34-3.74-6.47-5.76,3.2-3.14,6.34-6.21,9.55-8.93,2.38,2,4.72,4.19,7.07,6.47.56-.52,1.12-1,1.68-1.56l3.55-3.44c-2.09-2-4.21-4-6.38-5.94,5-3.33,10.43-5.49,16.55-5.49a17,17,0,0,1,1.9.12,63.72,63.72,0,0,1,7.49-5.48,23.11,23.11,0,0,0-9.39-2,35,35,0,0,0-17.72,5,53.26,53.26,0,0,0-4.64,3.14h0c-.08.06-.16.14-.25.2-.79.61-1.58,1.24-2.36,1.89l-.94.79c-.57.49-1.14,1-1.7,1.49-.18.16-.36.3-.53.46h0c-2.4,2.17-4.74,4.45-7.06,6.72l-5.17,5a90.73,90.73,0,0,1-14.39,11.59c-.68.43-1.38.82-2.08,1.22a42.31,42.31,0,0,1-6.7,3l0,0a33.83,33.83,0,0,1-4,1.14l-.62.12a33.83,33.83,0,0,1-5.62.59h0a3.37,3.37,0,0,1-.63,0c-9.33,0-16.92-7.87-16.92-17.55s7.59-17.55,16.92-17.55a25.68,25.68,0,0,1,7,1,33,33,0,0,1,5.55-5.87,33.19,33.19,0,0,0-12.55-2.47c-13.24,0-24,11.17-24,24.9s10.76,24.91,24,24.91h0a40.2,40.2,0,0,0,16.94-3.71,23.22,23.22,0,0,0,12.56,3.71l.9,0h0a41.9,41.9,0,0,0,21.45-6.57,40.48,40.48,0,0,0,22.55,6.6,23.24,23.24,0,0,0,12.57-3.7,40.43,40.43,0,0,0,16.95,3.7c13.23,0,24-11.17,24-24.91s-10.77-24.9-24-24.9"/><path class="a" d="M213.67,236.08l-.11.09-.59.55-.84.77-.59.61c-.26.27-.52.54-.76.82l-.16.17c-.26.3-.53.6-.77.92l0,0h0v0l0,0A25.58,25.58,0,0,0,208,267.84a39,39,0,0,0,6.63-2.81,18,18,0,0,1,1.57-21.43,95.15,95.15,0,0,1,12.65,10.76c.55-.51,1.09-1,1.64-1.52l3.59-3.48a118.3,118.3,0,0,0-11.67-10.27,16.49,16.49,0,0,1,6.32-1.29,28,28,0,0,1,13.54,3.68c1.9-1.76,3.84-3.45,5.84-5a35.74,35.74,0,0,0-19.38-6,23.49,23.49,0,0,0-13.3,4.18h0l0,0h0l-.4.32c-.46.37-.91.73-1.33,1.09"/><path class="a" d="M213.56,236.17c.56-.49,1.18-1,1.84-1.51-.65.46-1.28.93-1.89,1.45a24.63,24.63,0,0,0-2.89,3,30.08,30.08,0,0,1,2.94-2.92"/><path class="a" d="M253.45,187.63c0,1.92.06,3.47.18,4.66h-1.41q-1.47-7.54-4-10.61a8.56,8.56,0,0,0-7-3.07h-1.41v35a9.83,9.83,0,0,0,.52,3.75,2.81,2.81,0,0,0,1.84,1.56,16.92,16.92,0,0,0,4.2.46v1.23c-5.15-.13-9-.19-11.65-.19s-6.32.06-11.23.19V219.4a16.92,16.92,0,0,0,4.2-.46,2.79,2.79,0,0,0,1.84-1.56,9.79,9.79,0,0,0,.53-3.75v-35h-1.35a9.2,9.2,0,0,0-5,1.29,10.18,10.18,0,0,0-3.53,4.26,34.19,34.19,0,0,0-2.52,8.13h-1.41a44.84,44.84,0,0,0,.19-4.66c0-3.07-.15-6.55-.43-10.43q5.58.18,18.95.18t18.9-.18Q253.45,183,253.45,187.63Z"/><path class="a" d="M269.39,193.76q2.76-5.7,10-5.7c3.19,0,5.44.79,6.75,2.39a7.08,7.08,0,0,1,1.5,3,21.28,21.28,0,0,1,.46,4.94v16.5a5.29,5.29,0,0,0,.86,3.47,4,4,0,0,0,3.07,1v1.29q-6.39-.25-8.1-.25-2.08,0-8,.25v-1.29a3.08,3.08,0,0,0,2.57-1,5.94,5.94,0,0,0,.74-3.47V195.85a7.13,7.13,0,0,0-.83-3.81,3.25,3.25,0,0,0-3-1.29,5.54,5.54,0,0,0-4.33,2,7.41,7.41,0,0,0-1.75,5.06v17.11a5.94,5.94,0,0,0,.74,3.47,3.09,3.09,0,0,0,2.58,1v1.29q-5.9-.25-7.61-.25-2.09,0-8.47.25v-1.29a4,4,0,0,0,3-1,5.15,5.15,0,0,0,.89-3.47V180a7.41,7.41,0,0,0-.89-4.11,3.42,3.42,0,0,0-3-1.29v-1.29c1.31.13,2.58.19,3.81.19a39.58,39.58,0,0,0,8.95-.86Z"/><path class="a" d="M320.06,211.55l1.1.37a14.64,14.64,0,0,1-4.38,6.77,11.46,11.46,0,0,1-7.89,2.8,13.41,13.41,0,0,1-10.33-4.15q-3.84-4.14-3.83-12.23,0-8.28,4.11-12.67a14.25,14.25,0,0,1,10.91-4.38q11.53,0,11.54,13.61H304.05c0,.62-.06,1.58-.06,2.89a17.6,17.6,0,0,0,1.13,6.74,8.62,8.62,0,0,0,2.95,3.93,6.77,6.77,0,0,0,3.89,1.23Q317,216.46,320.06,211.55Zm-14.32-19.48c-1,1.82-1.57,4.63-1.81,8.44h9.63a23.63,23.63,0,0,0-.95-8c-.72-2.1-1.79-3.16-3.22-3.16S306.7,190.25,305.74,192.07Z"/><path class="a" d="M212.35,291.9a2.13,2.13,0,0,0-1.26,1.41,12.25,12.25,0,0,0-.34,3.38v30.42a12.11,12.11,0,0,0,.34,3.37,2.08,2.08,0,0,0,1.29,1.41,10.64,10.64,0,0,0,3,.5v1.22q-3.37-.18-9.63-.18-6.56,0-9.69.18v-1.22a12.27,12.27,0,0,0,3.22-.5,2.16,2.16,0,0,0,1.38-1.41,10.84,10.84,0,0,0,.37-3.37V295l-14.78,38.64h-1l-16.56-39.5v29.38a28,28,0,0,0,.36,5.31,3.66,3.66,0,0,0,1.6,2.45,10.08,10.08,0,0,0,4,1.08v1.22q-2.4-.18-6.63-.18-3.37,0-5.34.18v-1.22a6.63,6.63,0,0,0,3-1.05,3.84,3.84,0,0,0,1.29-2.33,25,25,0,0,0,.33-4.72v-27.6a12.34,12.34,0,0,0-.33-3.38,2.17,2.17,0,0,0-1.29-1.41,10.87,10.87,0,0,0-3-.49v-1.23c1.31.13,3.09.19,5.34.19q5.64,0,9.69-.19l12.39,29.88,11.29-29.69h4.35q6.25,0,9.63-.19v1.23A10.55,10.55,0,0,0,212.35,291.9Z"/><path class="a" d="M243.88,324.53l1.1.37a14.61,14.61,0,0,1-4.39,6.78,11.45,11.45,0,0,1-7.88,2.79q-6.5,0-10.33-4.14t-3.84-12.24q0-8.28,4.11-12.66A14.24,14.24,0,0,1,233.57,301q11.53,0,11.53,13.62H227.87q-.06.91-.06,2.88a17.43,17.43,0,0,0,1.13,6.75,8.58,8.58,0,0,0,2.94,3.92,6.82,6.82,0,0,0,3.9,1.23Q240.81,329.44,243.88,324.53Zm-14.33-19.47q-1.44,2.73-1.81,8.43h9.64a23.29,23.29,0,0,0-1-8c-.71-2.11-1.79-3.16-3.22-3.16S230.51,303.24,229.55,305.06Z"/><path class="a" d="M261.11,301.9h7.24v1.23h-7.24v24.78a4.07,4.07,0,0,0,.65,2.6,2.5,2.5,0,0,0,2.05.77q2.64,0,4.17-3.68l1,.55q-2.34,6.33-8.41,6.32-4,0-6.13-2.08a6.67,6.67,0,0,1-1.75-3.22,23.84,23.84,0,0,1-.46-5.31V303.13h-5.15V301.9h5.15v-8.1a18.73,18.73,0,0,0,8.83-2Z"/><path class="a" d="M282.7,306.75q2.76-5.72,10-5.71,4.79,0,6.75,2.39a7.06,7.06,0,0,1,1.5,3,21.22,21.22,0,0,1,.46,4.94v16.5a5.25,5.25,0,0,0,.86,3.46,4,4,0,0,0,3.07.95v1.29q-6.39-.24-8.1-.24-2.08,0-8,.24v-1.29a3.05,3.05,0,0,0,2.57-.95,5.91,5.91,0,0,0,.74-3.46V308.83a7.12,7.12,0,0,0-.83-3.8,3.25,3.25,0,0,0-3-1.29,5.56,5.56,0,0,0-4.33,2,7.43,7.43,0,0,0-1.75,5.06v17.12a5.91,5.91,0,0,0,.74,3.46,3.06,3.06,0,0,0,2.58.95v1.29q-5.89-.24-7.61-.24-2.09,0-8.46.24v-1.29a4,4,0,0,0,3-.95,5.12,5.12,0,0,0,.89-3.46V293a7.39,7.39,0,0,0-.89-4.11,3.41,3.41,0,0,0-3-1.29v-1.29c1.3.12,2.57.18,3.8.18a39.64,39.64,0,0,0,8.95-.85Z"/><path class="a" d="M334.41,305.06q4,4,4,12.73c0,5.8-1.33,10-4,12.69s-6.34,4-11,4-8.33-1.33-11-4-4-6.89-4-12.69,1.34-10.05,4-12.73,6.35-4,11-4S331.75,302.38,334.41,305.06Zm-15.24,1q-1.56,3.84-1.57,11.69t1.57,11.65c1,2.54,2.44,3.8,4.2,3.8s3.21-1.25,4.23-3.77,1.53-6.41,1.53-11.68-.52-9.18-1.56-11.72-2.44-3.8-4.2-3.8S320.21,303.55,319.17,306.1Z"/><path class="a" d="M373.24,331a3.4,3.4,0,0,0,3.06,1.29v1.29c-1.26-.12-2.53-.18-3.8-.18a38.07,38.07,0,0,0-8.95.86V329a7.86,7.86,0,0,1-8,5.52,11.19,11.19,0,0,1-9.17-4.2q-3.4-4.2-3.34-12.67a21.24,21.24,0,0,1,1.75-9.11,12.56,12.56,0,0,1,4.84-5.58,13.52,13.52,0,0,1,7.09-1.87q4.47,0,6.81,2.33V293a7.43,7.43,0,0,0-.89-4.12,3.46,3.46,0,0,0-3-1.28v-1.29c1.31.12,2.58.18,3.8.18a39.11,39.11,0,0,0,9-.86v41.29A7.47,7.47,0,0,0,373.24,331Zm-11.56-.61a6.35,6.35,0,0,0,1.87-4V304.91a5.23,5.23,0,0,0-4.48-2.09q-3.26,0-5,3.74t-1.72,11.17q-.06,7.47,1.44,10.79c1,2.21,2.45,3.31,4.33,3.31A5.1,5.1,0,0,0,361.68,330.36Z"/><path class="b" d="M104.34,242.34c0-14.15-11.87-25.63-26.51-25.63a26.52,26.52,0,0,0-24.57,16,26.5,26.5,0,0,0-24.56-16c-14.65,0-26.51,11.48-26.51,25.63,0,27.75,51.07,64.88,51.07,64.88s51.08-40.48,51.08-64.88M71.17,262H58.45L53,275.77l-7.26-27-5.09,13.52H30.47M240.72,12.1q-.63-.06-1.26-.06a11.76,11.76,0,0,0-12,11.56,11.75,11.75,0,0,0,12,11.55A11.88,11.88,0,0,0,251,26.62a10.06,10.06,0,0,0,8.52-7.24h.34a8.55,8.55,0,0,0,8.7-8.42,8.55,8.55,0,0,0-8.7-8.41,8.71,8.71,0,0,0-7.8,4.72,10,10,0,0,0-2.4-.29A10.25,10.25,0,0,0,240.72,12.1Zm47,63.06h26.58V108.6H262.59l-8.74-66.88H226.06l-8.73,66.88m50-33.44h20.34m21.35,0H285.67L290.91,30H303.8Z"/><path class="c" d="M61.09,153.24c0-40.58,30.8-74.18,70.94-79.95"/><polygon class="d" points="130.38 81.18 144.61 71.56 128.89 64.43 130.38 81.18"/><path class="c" d="M396.18,71.84c41.94,0,76.66,29.8,82.62,68.63"/><polygon class="e" points="470.6 138.89 480.54 152.66 487.89 137.44 470.6 138.89"/><polygon class="d" points="470.6 138.89 480.54 152.66 487.89 137.44 470.6 138.89"/><path class="c" d="M481.49,383.39c0,40.58-30.8,74.18-70.95,79.95"/><polygon class="d" points="412.2 455.45 397.97 465.07 413.69 472.19 412.2 455.45"/><path class="c" d="M155.92,472.29c-41.93,0-76.65-29.8-82.61-68.63"/><polygon class="d" points="81.51 405.24 71.57 391.46 64.22 406.68 81.51 405.24"/><path class="b" d="M327.45,461.48a11.52,11.52,0,0,1,1.17,5c0,7.48-7.39,13.75-17.41,15.57l1.17,16.36c-4.39-7.7-16.4-12-16.4-12l-.21-.41a15.48,15.48,0,0,1-2.28.17,13.74,13.74,0,0,1-8.87-3,19.65,19.65,0,0,1-9.66,2.51,19,19,0,0,1-17.41-10.88,18.19,18.19,0,0,1-13.42,5.55c-9.34,0-16.91-6.33-16.91-14.12a12.46,12.46,0,0,1,2.88-7.88,11.8,11.8,0,0,1-4.83-9.26c0-7.05,7-12.78,15.56-12.78H241a8.4,8.4,0,0,1-.27-2.13c0-6.49,7.32-11.76,16.36-11.76a22,22,0,0,1,4.43.45c1-4.55,6.23-8,12.56-8,5.3,0,9.85,2.43,11.77,5.9a35.51,35.51,0,0,1,11.87-2c13.87,0,25.11,7.46,25.11,16.66a11.42,11.42,0,0,1-.1,1.55c5,.5,8.9,6.3,8.9,13.38C331.65,455,330,459.07,327.45,461.48Zm-.25-.23s-17.21-14.56-11.88-20.6M320.13,454s-13.88-5.33-18.95.35m-16.56,28.83s10.69-14.38,20.83-11.54M257.82,475s-3.2-11.12,5.21-17m-19.08.23s12.41,1.31,13.21,10.07M285.84,421s-16,7.1-9.21,21.66m-12.94-11.12a22.57,22.57,0,0,0,11.88-.36M484.5,213.7a35.26,35.26,0,0,0-16.85,17m-8.88-24-9-8.48m42.25-4.59v-12m33.29,25.06,9-8.48m-102,40H445m94.18,0H551.8m-72.94,40.2h26.4m0,21.25V268.48c13.41-5,22.92-17.35,22.92-31.84,0-18.9-16.17-34.23-36.12-34.23s-36.12,15.33-36.12,34.23c0,14.49,9.51,26.84,22.92,31.84V299.7m0,0h26.4m-26.4-10.63h26.4"/></svg>