<?xml version="1.0" encoding="utf-8"?>
<!-- Generator: Adobe Illustrator 23.0.2, SVG Export Plug-In . SVG Version: 6.00 Build 0)  -->
<svg version="1.1" id="Layer_1" xmlns="http://www.w3.org/2000/svg" xmlns:xlink="http://www.w3.org/1999/xlink" x="0px" y="0px"
	 viewBox="0 0 835.3 158.8" style="enable-background:new 0 0 835.3 158.8;" xml:space="preserve">
<style type="text/css">
	.st0{fill:#FFFFFF;}
	.st1{fill:#1131D1;}
</style>
<title>logo</title>
<path class="st0" d="M96.7,85.3c-3-3.5-6.6-6.3-10.7-8.4c-2-1.1-4.2-1.9-6.3-2.5c4.8-2.4,9.1-5.7,12.8-9.7c5-5.7,7.6-13.1,7.6-22
	c0.1-5.9-1.1-11.9-3.6-17.3c-2.3-4.8-5.8-9-10-12.2c-4.5-3.3-9.5-5.7-14.8-7.1c-6-1.6-12.2-2.4-18.3-2.4H2.1C1,3.7,0,4.7,0,5.9v147
	c0,1.2,1,2.2,2.1,2.2h50.4c0.2,0,0.4,0,0.6,0c6.8,0,13.6-0.9,20.1-2.8c6.2-1.7,11.9-4.5,17.1-8.2c4.9-3.5,8.9-8.2,11.8-13.5
	c2.9-5.7,4.4-12.1,4.3-18.5C106.6,102.2,103.1,92.8,96.7,85.3z M72.6,54.1c-1.2,2.4-3.1,4.5-5.3,6.1c-2.4,1.7-5.1,2.9-7.9,3.5
	c-3.3,0.7-6.7,1.1-10.1,1.1h-25V25.4h29.2c0,0,0,0,0,0c7.3,0,12.7,1.9,16,5.7c3.4,3.8,5.2,8.6,5.1,13.7c0,0,0,0.1,0,0.1
	C74.6,48.1,73.9,51.3,72.6,54.1z M24.2,86.5h27.4c9.1,0,16.4,2,21.7,6.1c5.2,4,7.7,9.8,7.7,17.9c0,4.8-1,8.6-2.9,11.5
	c-1.9,2.8-4.5,5.2-7.4,6.9c-3,1.7-6.2,2.9-9.6,3.5c-3.2,0.6-6.5,0.9-9.7,0.9H24.2V86.5z"/>
<g>
	<path class="st0" d="M687.9,76.4c-5.7-3.1-11.7-5.6-17.9-7.2c-5.8-1.5-11.6-3.4-17.2-5.5c-4.7-1.8-9-4.3-12.7-7.7
		c-3.2-2.9-4.7-7.1-4.7-12.7c0-2.2,0.5-4.5,1.2-6.6c0.9-2.5,2.3-4.7,4.2-6.6c2.3-2.3,5-4,8-5.1c4.2-1.5,8.6-2.2,13-2
		c0,0,0.1,0,0.1,0c5-0.1,10.1,1.1,14.6,3.3c4,1.9,7.3,4.9,9.7,8.6c0.3,0.5,0.9,0.9,1.5,1c0.6,0.1,1.3-0.1,1.7-0.5l16.2-14.7
		c0.8-0.8,0.9-2.1,0.2-2.9c-5.8-7.1-12.6-11.9-20.4-14.2C677.9,1.1,670.1,0,662.2,0c-9.2,0-17.3,1.4-23.8,4.2
		c-6,2.5-11.5,6-16.2,10.5c-7.7,7.6-12,17.7-12.3,28.5c0,9.9,1.9,18,5.7,23.9c3.6,5.7,8.4,10.5,14.1,14.1c5.6,3.5,11.6,6.2,18,8
		c6.2,1.9,12,3.8,17.3,5.8c4.6,1.6,8.9,4,12.7,7c3.1,2.6,4.6,6.3,4.6,11.4c0.1,3.3-0.8,6.6-2.4,9.5c-1.6,2.8-3.8,5.1-6.4,7
		c-2.7,1.9-5.6,3.4-8.8,4.4c-3.1,1-6.3,1.4-9.5,1.5c-5.6,0-11.3-1.3-16.4-3.6c-5.3-2.4-9.7-6.3-12.9-11.2c-0.3-0.5-0.9-0.9-1.5-1
		c-0.6-0.1-1.2,0.1-1.7,0.5l-16.4,14.1c-0.8,0.7-1,2-0.3,2.9c5.3,7.3,12.6,12.9,21.1,16.1c8.7,3.4,17.9,5.1,27.2,5.1
		c0.3,0,0.5,0,0.8,0c6.9,0,13.6-1.1,20.2-3.2c6.2-2,11.9-5.1,16.9-9.3c4.9-4.2,8.7-9.2,11.5-15.1c2.9-6.2,4.4-13.2,4.2-20
		c0-9.3-2-16.7-5.8-22.1C698.3,83.9,693.5,79.5,687.9,76.4z"/>
	<path class="st0" d="M833.1,3.7H718.5c-1.2,0-2.2,1-2.2,2.1v18.7c0,1.2,1,2.1,2.2,2.1h45.2v126.1c0,1.2,1,2.2,2.2,2.2h19.9
		c1.2,0,2.2-1,2.2-2.2V26.7h45.2c1.2,0,2.2-1,2.2-2.1V5.9C835.3,4.7,834.3,3.7,833.1,3.7z"/>
</g>
<path class="st0" d="M453.5,28.6c-3,2.2-6,4.4-8.9,6.7c-10.4,8.6-20.4,18-30.2,27.3l-16.7,15.7c-7.7,7.1-15.2,13.6-22.7,19.5
	c-25.3,20.8-52.3,36.3-87.3,36.3c-5.3,0-10.6-0.8-15.6-2.3c14.4-9.5,27.7-20.8,40.5-32.6c5.2,4.8,10.5,9.4,15.9,14
	c7.6-3.3,14.9-7.2,21.9-11.8c-7.1-5.6-14-11.7-21-18c10.4-9.8,20.5-19.3,30.9-27.8c7.8,6.3,15.3,13.1,22.9,20.2
	c1.8-1.6,3.6-3.2,5.5-4.8l11.5-10.7c-6.8-6.3-13.6-12.6-20.6-18.5c16.4-10.4,33.8-17.1,53.6-17.1c2.1,0,4.1,0.1,6.1,0.4
	c7.7-6.3,15.8-12,24.3-17.1c-9.6-4.1-20-6.2-30.4-6.2c-21.5,0-40.2,6.1-57.4,15.6c-5.2,3-10.2,6.3-15,9.8l0,0l-0.8,0.6
	c-2.6,1.9-5.1,3.9-7.7,5.9c-1,0.8-2,1.7-3,2.5c-1.9,1.5-3.7,3.1-5.5,4.7c-0.6,0.5-1.1,1-1.7,1.4l0,0c-7.8,6.8-15.4,13.9-22.8,21
	l-16.8,15.7c-15.8,14.5-30.8,26.7-46.6,36.2c-2.2,1.4-4.5,2.6-6.7,3.8c-7,3.7-14.2,6.9-21.7,9.4l0.1,0.1c-4.3,1.4-8.6,2.6-13.1,3.6
	l-2,0.4c-6,1.1-12.1,1.7-18.2,1.9l0,0c-0.7,0-1.4,0-2.1,0c-30.2,0-54.8-24.5-54.8-54.8c0-30.2,24.5-54.7,54.8-54.8
	c7.7,0,15.3,1,22.7,3.1c5.2-6.8,11.3-13,18-18.3c-13-5.1-26.7-7.7-40.7-7.7c-42.9,0.5-77.3,35.7-76.8,78.6
	c0.5,42.2,34.6,76.4,76.8,76.8h0.1c18.9,0,37.6-3.9,54.9-11.6c12.2,7.6,26.3,11.6,40.7,11.6c1,0,2,0,2.9-0.1l0,0
	c26.8-0.6,49.3-8.6,69.5-20.5c20.9,12.7,43.8,20.6,73,20.6c14.4,0,28.5-4,40.7-11.6c17.3,7.7,36,11.6,54.9,11.6
	c42.9-0.5,77.3-35.7,76.8-78.6C605,36.3,570.9,2.2,528.6,1.7c-19.5,0-36.7,5.1-52.6,13.1C473.3,16.2,454.7,27.7,453.5,28.6z
	 M433,134.1c-17.9,0.2-35.6-4-51.6-12.1c9.2-7.1,18.1-14.8,26.7-22.7c12.8,11.8,26.1,23.1,40.5,32.6
	C443.6,133.4,438.3,134.2,433,134.1z M528.6,134.1c-3.3,0-6.5-0.2-9.7-0.5c-27.6-2.3-50.2-14.4-71.2-30.7
	c-7.7-6-15.3-12.6-22.8-19.4c16.1-15.2,31.8-30,48.6-40.9c17.1,18.7,19,46.7,4.7,67.6c6.8,3.8,14,6.7,21.5,8.8
	c16.5-27.5,14.3-62.3-5.5-87.4c10.9-4.6,22.6-7,34.4-7c30.2,0,54.8,24.5,54.8,54.8C583.3,109.6,558.8,134.2,528.6,134.1L528.6,134.1
	z"/>
<path class="st0" d="M331.5,36.1c6.2-5.5,12.5-10.7,18.9-15.6c-18.6-11.3-39-18.8-62.8-18.8c-15.3,0-30.3,4.6-43,13.1l0,0l-0.1,0.1
	l0,0c-0.5,0.4-0.9,0.7-1.3,1c-1.5,1.1-3,2.3-4.3,3.4c-0.1,0.1-0.3,0.2-0.4,0.3c-0.7,0.6-1.2,1.1-1.9,1.7c-0.9,0.8-1.9,1.6-2.7,2.4
	c-0.7,0.6-1.3,1.3-1.9,1.9c-0.8,0.8-1.7,1.7-2.5,2.5c-0.2,0.2-0.4,0.4-0.5,0.5c-0.8,1-1.7,1.9-2.5,2.9l-0.1,0.1l0,0l0,0v0.1
	c-19.4,25-21.7,59.3-5.7,86.6c7.3-2.3,14.5-5.2,21.3-8.7c-13.8-20.8-11.8-48.4,5.1-66.9c14.1,9.2,27.5,21,41,33.6
	c1.8-1.6,3.5-3.1,5.3-4.7L305,60.7c-12.1-11.4-24.5-22.5-37.8-32c6.5-2.6,13.4-4,20.5-4C303.6,24.6,317.9,29,331.5,36.1z"/>
<path class="st1" d="M226.2,31.7L226.2,31.7L226.2,31.7z"/>
</svg>
