<svg xmlns="http://www.w3.org/2000/svg" viewBox="0 0 719.03 188.58"><defs><style>.a{fill:none;stroke:#231f20;stroke-miterlimit:10;stroke-width:8.61px;}.b{fill:#739299;}.c{fill:#dbbf71;}.d{fill:#7db7a6;}.e{fill:#c1655f;}.f{fill:#6f8c8b;}.g{fill:#a1bfa3;}.h{fill:#dd7b54;}</style></defs><title>logo</title><polyline class="a" points="189.28 162.89 189.28 184.28 4.3 184.28 4.3 4.3 189.28 4.3 189.28 23.75"/><path d="M181,35.21H197.6V151.67H181Z"/><path d="M320.22,35.21V151.67H306.58L236.7,64.82v86.85H220.06V35.21h13.65l69.88,86.85V35.21Z"/><path d="M414.39,45.27q12.15,10.08,12.15,28.2t-12.15,28.21q-12.13,10.06-33.6,10.06H344.68v39.93h-3.33V35.21h39.44Q402.24,35.21,414.39,45.27Zm-2.08,54.16q10.9-9.15,10.9-26t-10.9-25.95q-10.89-9.15-31.19-9.15H344.68v70.21h36.44Q401.42,108.58,412.31,99.43Z"/><path d="M448.17,28.22h3.33V151.67h-3.33Z"/><path d="M531.77,72.89q7.9,7.74,7.91,22.38v56.4h-3.33v-18.3a31.21,31.21,0,0,1-12.56,13.81q-8.4,5-20.22,5-14.31,0-22.38-6.57t-8.07-17.55q0-10.32,7.24-16.72t23.38-6.41h32.61V95.44q0-13.48-6.91-20.3t-20.38-6.82a46.16,46.16,0,0,0-17.38,3.24,43.71,43.71,0,0,0-13.9,8.74L475.45,78a43.75,43.75,0,0,1,15-9.4,50.82,50.82,0,0,1,18.47-3.41Q523.87,65.16,531.77,72.89Zm4.58,54.16v-19H503.57q-14,0-20.55,5.33t-6.57,14.47q0,9.83,7.16,15.47t20,5.66Q527.53,149,536.35,127.05Z"/><path d="M576.28,146.6a39.18,39.18,0,0,1-15.06-15.47,46.34,46.34,0,0,1-5.41-22.55A46.3,46.3,0,0,1,561.22,86a38.59,38.59,0,0,1,15.06-15.39,45.53,45.53,0,0,1,39.35-1.92A34.5,34.5,0,0,1,629,79.13l-2.33,2.5a30.12,30.12,0,0,0-12.31-10A42,42,0,0,0,578,73.39a35.6,35.6,0,0,0-13.9,14.31,43.19,43.19,0,0,0-5,20.88,43.05,43.05,0,0,0,5,21,36.22,36.22,0,0,0,13.9,14.3,39.2,39.2,0,0,0,20,5.16,39.68,39.68,0,0,0,16.31-3.33,29.94,29.94,0,0,0,12.31-10l2.33,2.5a34.29,34.29,0,0,1-13.39,10.39,45.16,45.16,0,0,1-39.35-2Z"/><path d="M719,108.58H642.5a42,42,0,0,0,5.15,20.88,36.87,36.87,0,0,0,14.23,14.39,42.42,42.42,0,0,0,36.94,1.75,32,32,0,0,0,12.72-9.9l2.33,2.33a37.48,37.48,0,0,1-14,10.48,45.47,45.47,0,0,1-39.68-1.91A40,40,0,0,1,644.91,131a45.22,45.22,0,0,1-5.58-22.46,47.69,47.69,0,0,1,5.16-22.38,38.77,38.77,0,0,1,14.23-15.47,38.09,38.09,0,0,1,20.38-5.57,38.82,38.82,0,0,1,34.69,20.63,45.29,45.29,0,0,1,5.24,22ZM661,73.14A36.34,36.34,0,0,0,647.9,86.45a41.21,41.21,0,0,0-5.4,19h73.37a40.58,40.58,0,0,0-5.49-19,37,37,0,0,0-13.14-13.31,36.54,36.54,0,0,0-36.28,0Z"/><polygon class="b" points="164 18.19 24.57 18.19 94.29 87.91 164 18.19"/><polygon class="c" points="64.8 129.98 123.78 129.98 94.29 100.49 64.8 129.98"/><polygon class="d" points="18.28 24.48 18.28 163.91 88 94.2 18.28 24.48"/><polygon class="e" points="55.9 138.87 24.57 170.21 92.45 170.21 123.78 138.87 55.9 138.87"/><polygon class="f" points="170.29 170.21 170.29 104.93 105.02 170.21 170.29 170.21"/><polygon class="g" points="140.81 53.97 170.29 83.46 170.29 24.48 140.81 53.97"/><circle class="h" cx="134.52" cy="94.2" r="23.84"/></svg>