<svg xmlns="http://www.w3.org/2000/svg" viewBox="0 0 360 360"><defs><style>.a{fill:#bfcd31;}.b{font-size:20px;fill:#254b9d;font-family:Graphik-Regular, Graphik;}.c{letter-spacing:-0.04em;}.d{letter-spacing:-0.03em;}.e{letter-spacing:-0.05em;}.f{letter-spacing:0em;}.g{letter-spacing:-0.01em;}.h{fill:#fad5e5;}.i{fill:none;}</style></defs><title>Artboard 3</title><rect class="a" width="360" height="360"/><text class="b" transform="translate(225.75 54.57)">0<tspan class="c" x="13.62" y="0">5</tspan><tspan class="d" x="24.56" y="0">.</tspan><tspan x="29.7" y="0">3</tspan><tspan class="e" x="41.78" y="0">0</tspan><tspan x="54.4" y="0">.</tspan><tspan class="f" x="60.04" y="0">2</tspan><tspan x="71.02" y="0">0</tspan><tspan class="g" x="84.64" y="0">1</tspan><tspan x="92.42" y="0">9</tspan></text><path class="h" d="M17.66,39.63V25.78h5.18V39.31c0,3.78,1.11,5.43,4.22,5.43s4.39-1.46,4.39-5.62V25.78h5.17V39.44c0,6.19-3.46,9.4-9.59,9.4C21.06,48.84,17.66,45.66,17.66,39.63Z"/><path class="h" d="M40.75,31.88h4.61v2.63a5.75,5.75,0,0,1,5.4-3c3.27,0,5.59,2,5.59,6.41V48.49H51.74V38.58c0-2.26-.88-3.34-2.92-3.34s-3.46,1.21-3.46,3.66v9.59H40.75Z"/><path class="h" d="M60.42,24.35H65V48.49H60.42Z"/><path class="h" d="M68.17,40.36V40.1c0-5.21,3.78-8.6,8.77-8.6s8.73,3.33,8.73,8.51v.25c0,5.24-3.78,8.58-8.77,8.58S68.17,45.54,68.17,40.36ZM81,40.29v-.22C81,36.9,79.51,35,76.94,35s-4.07,1.84-4.07,5v.25c0,3.18,1.46,5.08,4.07,5.08S81,43.44,81,40.29Z"/><path class="h" d="M87.74,40.39v-.25a8.25,8.25,0,0,1,8.57-8.64c3.85,0,7.4,1.68,7.82,6.44H99.78a3.06,3.06,0,0,0-3.37-2.82c-2.38,0-4,1.78-4,5v.26c0,3.33,1.49,5.05,4.06,5.05a3.36,3.36,0,0,0,3.56-3.21h4.16c-.25,3.94-3.11,6.67-7.94,6.67S87.74,45.82,87.74,40.39Z"/><path class="h" d="M107.11,24.35h4.61V38.9l5.34-7H122l-6,7.56,6.51,9.05h-5.2l-5.5-7.85v7.85h-4.61Z"/><path class="h" d="M18.14,81.69V73.27H16V70h2.13V66.41h4.57V70H26.2v3.27H22.71v8c0,1.34.67,2,1.84,2a4.34,4.34,0,0,0,1.75-.31v3.55a8.2,8.2,0,0,1-2.8.45C20,86.93,18.14,85.15,18.14,81.69Z"/><path class="h" d="M29.41,62.47H34V72.63a5.75,5.75,0,0,1,5.4-3c3.27,0,5.59,2,5.59,6.41V86.61H40.4V76.7c0-2.26-.89-3.34-2.92-3.34S34,74.57,34,77v9.59H29.41Z"/><path class="h" d="M47.93,78.51v-.25a8.25,8.25,0,0,1,8.55-8.64c4.29,0,8.1,2.51,8.1,8.45v1.27h-12c.13,2.76,1.62,4.35,4.13,4.35,2.13,0,3.18-.92,3.46-2.32h4.36C64,85,61.15,87,56.61,87,51.59,87,47.93,83.81,47.93,78.51Zm12.17-2c-.16-2.51-1.43-3.72-3.62-3.72S53,74.16,52.67,76.51Z"/><path class="h" d="M16,102h5.43l5.4,17.44L32.24,102h4.83l-7.56,22.71H23.6Z"/><path class="h" d="M37,120.12c0-3.87,3.56-5.33,8.64-5.33h1.87v-.67c0-2-.6-3.05-2.7-3.05A2.5,2.5,0,0,0,42,113.42H37.67c.29-3.94,3.4-5.68,7.47-5.68s7,1.65,7,6.16v10.83H47.62v-2a5.67,5.67,0,0,1-5,2.35C39.58,125.08,37,123.62,37,120.12Zm10.51-1.2v-1.4H45.77c-2.67,0-4.22.57-4.22,2.35,0,1.21.73,2,2.41,2C46,121.87,47.55,120.76,47.55,118.92Z"/><path class="h" d="M56.16,100.59h4.58v24.14H56.16Z"/><path class="h" d="M64.8,118.82v-10.7h4.58v10.07c0,2.25.92,3.33,2.89,3.33a3.3,3.3,0,0,0,3.46-3.65v-9.75H80.3v16.61H75.73v-2.6a5.51,5.51,0,0,1-5.27,3C67.22,125.08,64.8,123.17,64.8,118.82Z"/><path class="h" d="M83.35,116.63v-.25a8.25,8.25,0,0,1,8.55-8.64c4.29,0,8.1,2.51,8.1,8.45v1.27H88c.13,2.76,1.62,4.35,4.13,4.35,2.13,0,3.18-.92,3.46-2.32H100c-.54,3.59-3.4,5.59-7.94,5.59C87,125.08,83.35,121.94,83.35,116.63Zm12.17-2c-.16-2.51-1.43-3.72-3.62-3.72s-3.46,1.37-3.81,3.72Z"/><path class="h" d="M17.21,141.47A2.63,2.63,0,1,1,19.82,144,2.52,2.52,0,0,1,17.21,141.47Zm.35,4.77h4.58v16.61H17.56Z"/><path class="h" d="M26.36,146.24H31v2.63a5.75,5.75,0,0,1,5.4-3c3.27,0,5.59,2,5.59,6.41v10.58H37.35v-9.91c0-2.26-.88-3.34-2.92-3.34S31,150.81,31,153.26v9.59H26.36Z"/><rect class="i" x="16.01" y="16.01" width="327.98" height="327.98"/></svg>