<svg xmlns="http://www.w3.org/2000/svg" viewBox="0 0 462.2 432.69"><defs><style>.a{fill:#fff;}</style></defs><title>hero</title><path class="a" d="M219.35,0H237.5c13.08,0,19.16,5.81,19.16,16v.27c0,10-6.74,15.42-18.56,15.42H233V47.72H219.35ZM236.9,22.29c4.41,0,6.74-2.07,6.74-6V16c0-4.07-2.4-5.74-6.67-5.74h-4v12Z"/><path class="a" d="M261.56,73.58v33H251V87.2h-8.21v15.42h-9.75V87.2h-8.67v20.42H213.84v-34Z"/><path class="a" d="M211.24,157.65v-.54c0-14.55,10.95-24.29,25.23-24.29,14.55,0,25.29,9.14,25.29,24v.53c0,14.69-10.07,24.7-25.49,24.7S211.24,172,211.24,157.65Zm36.24-.14V157c0-8.48-4.27-13.48-11-13.48s-10.95,4.87-10.95,13.55v.53c0,8.68,4.41,13.68,11,13.68C243.28,171.26,247.48,166.06,247.48,157.51Z"/><path class="a" d="M219.35,200.23H237.5c13.08,0,19.16,5.81,19.16,16v.27c0,10-6.74,15.42-18.56,15.42H233V248H219.35Zm17.55,22.29c4.41,0,6.74-2.07,6.74-6v-.27c0-4.07-2.4-5.74-6.67-5.74h-4v12Z"/><path class="a" d="M261.66,275V288.7H224.55v18H213.94V275Z"/><path class="a" d="M220.68,333.72h33v10.54H234.3v8.21h15.42v9.75H234.3v8.67h20.42v10.55h-34Z"/><path class="a" d="M389.17,32.55h12.74c.33,3.34,1.83,6.08,7.39,6.08,3.85,0,6-1.9,6-4.64s-1.76-3.66-7.39-4.51c-13.2-1.57-17.64-5.49-17.64-14.9,0-8.44,6.93-14.58,18.1-14.58S426,4.71,426.81,14.58H414.4c-.46-3.34-2.36-5-6-5s-5.42,1.64-5.42,4c0,2.62,1.44,3.79,7.25,4.58,11.83,1.3,17.91,4.38,17.91,14.51,0,8.56-6.8,15.55-18.82,15.55C396.22,48.17,389.56,42.68,389.17,32.55Z"/><path class="a" d="M392,66h17.78c12.81,0,18.76,5.69,18.76,15.62v.26c0,9.81-6.61,15.1-18.17,15.1h-5v15.75H392ZM409.2,87.85c4.31,0,6.6-2,6.6-5.88v-.26c0-4-2.35-5.63-6.54-5.63h-3.92V87.85Z"/><path class="a" d="M385.44,163.35V146l46.73-14.83v14.18l-8.69,2.49v15.49l8.69,2.48v12.48Zm28.82-2.62V150.47l-18,5.1Z"/><path class="a" d="M386.09,220.41v-.52c0-14.38,10.2-23.86,23.86-23.86,12.16,0,20.59,5.62,21.7,18H417.86c-.52-4.77-3.14-7.38-7.84-7.38-6,0-9.81,4.7-9.81,13.2v.52c0,8.44,3.6,13.21,10,13.21,4.71,0,8-2.49,8.7-7.65h13.33c-.92,12.09-9.67,18.37-21.77,18.37C394.13,244.27,386.09,234.72,386.09,220.41Z"/><path class="a" d="M393.32,262.11h32.29v10.33h-19v8h15.1V290h-15.1v8.5h20v10.33H393.32Z"/><path class="a" d="M302.12,24.35v-.53C302.12,9.46,312.3,0,326,0c12.14,0,20.56,5.61,21.66,18H333.84c-.52-4.77-3.13-7.38-7.83-7.38-6,0-9.79,4.7-9.79,13.19v.52c0,8.42,3.59,13.18,10,13.18,4.7,0,8-2.48,8.68-7.63H348.2c-.91,12.07-9.66,18.34-21.73,18.34C310.15,48.17,302.12,38.64,302.12,24.35Z"/><path class="a" d="M301.81,99.39V82.09l46.67-14.81V81.44l-8.68,2.48V99.39l8.68,2.48v12.47Zm28.78-2.61V86.53l-17.95,5.09Z"/><path class="a" d="M308.37,132.74h17.75c12.8,0,18.73,5.68,18.73,15.6v.27c0,9.79-6.59,15.07-18.14,15.07h-5v15.73H308.37Zm17.17,21.8c4.3,0,6.59-2,6.59-5.87v-.26c0-4-2.35-5.61-6.53-5.61h-3.92v11.74Z"/><path class="a" d="M318.42,198h13.51v46.67H318.42Z"/><path class="a" d="M318.42,273.6H306.35V263.28h37.59V273.6H331.87V310H318.42Z"/><path class="a" d="M316.56,328.55h17.3l14.81,46.67H334.51L332,366.54H316.56l-2.48,8.68H301.61Zm2.61,28.79h10.25l-5.09-17.95Z"/><path class="a" d="M349.75,401.62v13.45H313.46v17.62H303.08V401.62Z"/><path class="a" d="M31.67,15.28V1.43h5.18V15c0,3.78,1.11,5.43,4.22,5.43s4.39-1.46,4.39-5.62V1.43h5.17V15.09c0,6.19-3.46,9.4-9.59,9.4C35.07,24.49,31.67,21.31,31.67,15.28Z"/><path class="a" d="M54.76,7.53h4.61v2.63a5.75,5.75,0,0,1,5.4-3c3.27,0,5.59,2,5.59,6.41V24.14H65.75V14.23c0-2.26-.88-3.33-2.92-3.33a3.28,3.28,0,0,0-3.46,3.65v9.59H54.76Z"/><path class="a" d="M74.43,0H79V24.14H74.43Z"/><path class="a" d="M82.18,16v-.26c0-5.2,3.78-8.6,8.77-8.6s8.73,3.33,8.73,8.51v.25c0,5.25-3.78,8.58-8.77,8.58S82.18,21.19,82.18,16ZM95,16v-.23c0-3.17-1.49-5.08-4.06-5.08s-4.07,1.84-4.07,5v.25C86.88,19.09,88.34,21,91,21S95,19.09,95,16Z"/><path class="a" d="M101.75,16v-.25a8.25,8.25,0,0,1,8.57-8.64c3.85,0,7.41,1.68,7.82,6.44h-4.35a3.06,3.06,0,0,0-3.37-2.82c-2.38,0-4,1.78-4,5V16c0,3.33,1.49,5.05,4.06,5.05a3.36,3.36,0,0,0,3.56-3.21h4.16c-.25,3.94-3.11,6.67-7.94,6.67S101.75,21.47,101.75,16Z"/><path class="a" d="M121.12,0h4.61V14.55l5.34-7H136l-6,7.56,6.51,9.05h-5.2l-5.5-7.85v7.85h-4.61Z"/><path class="a" d="M32.15,57.34V48.92H30V45.65h2.13V42.06h4.57v3.59h3.49v3.27H36.72v8c0,1.34.67,2,1.84,2a4.34,4.34,0,0,0,1.75-.31v3.55a8.2,8.2,0,0,1-2.8.45C34,62.58,32.15,60.8,32.15,57.34Z"/><path class="a" d="M43.42,38.12H48V48.28a5.75,5.75,0,0,1,5.4-3c3.27,0,5.59,2,5.59,6.41V62.26H54.41V52.35c0-2.26-.88-3.34-2.92-3.34S48,50.22,48,52.67v9.59H43.42Z"/><path class="a" d="M61.94,54.16v-.25a8.25,8.25,0,0,1,8.55-8.64c4.29,0,8.1,2.51,8.1,8.45V55h-12c.13,2.76,1.62,4.35,4.13,4.35,2.13,0,3.18-.92,3.46-2.32h4.36c-.54,3.59-3.4,5.59-7.94,5.59C65.6,62.61,61.94,59.47,61.94,54.16Zm12.17-2c-.16-2.51-1.43-3.72-3.62-3.72S67,49.81,66.68,52.16Z"/><path class="a" d="M30,77.67h5.43l5.4,17.44,5.4-17.44h4.83l-7.56,22.71H37.61Z"/><path class="a" d="M51.05,95.78c0-3.88,3.56-5.34,8.64-5.34h1.87v-.67c0-2-.6-3-2.7-3A2.5,2.5,0,0,0,56,89.07H51.68c.29-3.94,3.4-5.68,7.47-5.68S66.1,85,66.1,89.55v10.83H61.63v-2a5.67,5.67,0,0,1-5,2.35C53.59,100.73,51.05,99.27,51.05,95.78Zm10.51-1.21v-1.4H59.78c-2.67,0-4.22.57-4.22,2.35,0,1.21.73,2,2.41,2C60,97.52,61.56,96.41,61.56,94.57Z"/><path class="a" d="M70.17,76.24h4.58v24.14H70.17Z"/><path class="a" d="M78.81,94.47V83.77h4.58V93.84c0,2.25.92,3.33,2.89,3.33a3.3,3.3,0,0,0,3.46-3.65V83.77h4.57v16.61H89.74v-2.6a5.51,5.51,0,0,1-5.27,3C81.23,100.73,78.81,98.83,78.81,94.47Z"/><path class="a" d="M97.36,92.28V92a8.25,8.25,0,0,1,8.55-8.64c4.29,0,8.1,2.51,8.1,8.45v1.27H102c.13,2.76,1.62,4.35,4.13,4.35,2.13,0,3.18-.92,3.46-2.32H114c-.54,3.59-3.4,5.59-7.94,5.59C101,100.73,97.36,97.59,97.36,92.28Zm12.17-2c-.16-2.51-1.43-3.72-3.62-3.72s-3.46,1.37-3.81,3.72Z"/><path class="a" d="M31.22,117.12a2.63,2.63,0,1,1,2.61,2.51A2.52,2.52,0,0,1,31.22,117.12Zm.35,4.77h4.58V138.5H31.57Z"/><path class="a" d="M40.37,121.89H45v2.63a5.75,5.75,0,0,1,5.4-3c3.27,0,5.59,2,5.59,6.41V138.5H51.36v-9.91c0-2.26-.88-3.33-2.92-3.33A3.28,3.28,0,0,0,45,128.91v9.59H40.37Z"/></svg>