<svg xmlns="http://www.w3.org/2000/svg" viewBox="0 0 712.83 210.55"><defs><style>.a{font-size:40px;fill:#161613;font-family:Poppins-SemiBold, Poppins;font-weight:600;}</style></defs><title>logov2-2</title><path d="M34.09,76.91V115.1l-31.75,1V0l47,1.49c13.18.42,23.12,4.12,29.91,11.08s10.1,16,10.1,27.2a38.86,38.86,0,0,1-4.47,18.75A32.41,32.41,0,0,1,71.38,71.7q-9.07,4.9-22.06,5ZM59.22,39.46c0-8.26-4.42-12.47-13.33-12.62l-11.8-.21v25.3l11.8,0C54.8,52,59.22,47.83,59.22,39.46Z"/><path d="M129.14,28V45.83l31.9.22V68.36l-31.9.21V88.1l36-.65V110.9L100.71,113V3.12l64.42,2V28.61Z"/><path d="M224.14,109,205.85,71.57l-2.59,0v38.09l-26,.83V5.55l40.64,1.29q10.79.35,18.21,4.79a28.25,28.25,0,0,1,11.08,11.89,37.14,37.14,0,0,1,3.67,16.65,32.54,32.54,0,0,1-5,18.2,27.07,27.07,0,0,1-14.65,11l19.93,38.79ZM203.26,52.33l12.49.05c7,0,10.42-3.52,10.42-10.61a11.61,11.61,0,0,0-2.59-8c-1.74-1.94-4.34-3-7.83-3l-12.49-.21Z"/><path d="M318.3,92.84a26.2,26.2,0,0,1-9.93,10.6,32,32,0,0,1-15.94,4.34q-14.34.48-23.83-7.48T258.19,76.9l24.91-.3c.24,3.42,1.14,5.94,2.7,7.58a7.39,7.39,0,0,0,5.7,2.39,6.25,6.25,0,0,0,4.69-1.88,7.28,7.28,0,0,0,1.67-5.11,7.8,7.8,0,0,0-3.34-6.77,52.11,52.11,0,0,0-10.71-5.23,96,96,0,0,1-13.07-6.21,26.57,26.57,0,0,1-9-9.26q-3.81-6.21-3.81-16a29.46,29.46,0,0,1,4.11-15.9,25.23,25.23,0,0,1,11.13-9.79A34.75,34.75,0,0,1,289,7.57q14.12.46,22.31,8.56t8.94,22.11l-23.95-.31q-.47-4.55-2.37-6.78a6.49,6.49,0,0,0-5.05-2.3,5.27,5.27,0,0,0-4.2,1.58,7.06,7.06,0,0,0-1.53,5A7.64,7.64,0,0,0,286.44,42a55.31,55.31,0,0,0,10.38,5.33,95.53,95.53,0,0,1,12.69,6.5,26.79,26.79,0,0,1,8.56,9.1q3.58,6,3.58,15.41A31.48,31.48,0,0,1,318.3,92.84Z"/><path d="M352.56,73.5v31.39l-21.38.68V10.43l31.69,1c8.94.29,15.7,3.3,20.33,9s6.89,13.16,6.89,22.45a37.73,37.73,0,0,1-3,15.49,24.79,24.79,0,0,1-9.19,10.87,27.28,27.28,0,0,1-15,4.13Zm17-30.82q0-10.22-9-10.37l-8-.14V53l8,0Q369.6,53,369.59,42.68Z"/><path d="M417.39,33V47.86l22,.15V66.58l-22,.14V82.93l24.87-.45V102l-44.39,1.43V12.54L442.26,14V33.48Z"/><path d="M494.84,18.79a30.92,30.92,0,0,1,10.09,11.58,52.14,52.14,0,0,1,5.22,17l-17.89-.15a16.87,16.87,0,0,0-4.66-7.91,11,11,0,0,0-7.37-3q-5.81-.09-9.43,5.76t-3.63,15.77q0,9.9,3.63,15.84t9.43,5.81a10.77,10.77,0,0,0,7.37-3,17.26,17.26,0,0,0,4.66-8l17.89-.14Q508.1,83.07,500.4,92a26.32,26.32,0,0,1-19.9,9.4,25.49,25.49,0,0,1-16.56-5q-7.2-5.39-11.15-15.42a62.8,62.8,0,0,1-4-23.08,62.82,62.82,0,0,1,4-23.09q3.94-10,11.15-15.42a25.49,25.49,0,0,1,16.56-5A26.73,26.73,0,0,1,494.84,18.79Z"/><path d="M561.05,17.72V35.57l-15.23-.27V98.69l-16,.51V35L514,34.74V16.23Z"/><path d="M581.36,18.36V97.55L566.15,98V17.88Z"/><path d="M601.47,19l11.7,56,11.4-55.22,14.67.47-17,76-18.32.59L585.84,18.51Z"/><path d="M656.66,37.25V49.54l15.21.1V65.09l-15.21.1V78.64l17.17-.31V94.58l-30.58,1V20.33l30.58,1V37.55Z"/><path d="M711,83.68a18,18,0,0,1-5.41,7.77,13.94,13.94,0,0,1-8.65,3.1,15.52,15.52,0,0,1-12.85-5.63Q679,83,678.51,71.75l13.39-.16a10.81,10.81,0,0,0,1.45,5.58,3.61,3.61,0,0,0,3.09,1.77A3,3,0,0,0,699,77.58a6.59,6.59,0,0,0,.91-3.76,6.61,6.61,0,0,0-1.81-5A26.73,26.73,0,0,0,692.28,65a48.14,48.14,0,0,1-7-4.56,18.13,18.13,0,0,1-4.82-6.78,28.65,28.65,0,0,1-2-11.66,28.13,28.13,0,0,1,2.2-11.65,16.18,16.18,0,0,1,6-7.23,14.61,14.61,0,0,1,8.49-2.23A15,15,0,0,1,707.16,27q4.46,5.88,4.88,16.29l-13-.17a11,11,0,0,0-1.28-5A3.2,3.2,0,0,0,695,36.5a2.52,2.52,0,0,0-2.27,1.18,6.51,6.51,0,0,0-.82,3.65,6.4,6.4,0,0,0,1.8,4.81,28.45,28.45,0,0,0,5.62,3.9,47.93,47.93,0,0,1,6.89,4.78,18.57,18.57,0,0,1,4.67,6.72,28.33,28.33,0,0,1,2,11.39A30.2,30.2,0,0,1,711,83.68Z"/><text class="a" transform="translate(0 172.79)">on Affordability.</text></svg>