<svg xmlns="http://www.w3.org/2000/svg" viewBox="0 0 712.57 291.55"><defs><style>.a{font-size:40px;fill:#161613;font-family:Poppins-SemiBold, Poppins;font-weight:600;}.b{fill:#cfe224;}</style></defs><title>logov3</title><text class="a" transform="translate(0 253.8)">on Affordability.</text><path d="M665.58,182.42q-13-.13-22.06-5A32.38,32.38,0,0,1,630,164.19a38.86,38.86,0,0,1-4.47-18.75q0-16.86,10.1-27.2c6.79-6.95,16.73-10.66,29.92-11.08l47-1.49V221.79l-31.75-1v-38.2ZM669,157.64l11.79,0V132.3l-11.79.21c-8.92.15-13.34,4.36-13.34,12.62S660.09,157.67,669,157.64Z"/><path d="M549.76,134.28V110.83l64.43-2V218.64l-64.43-2.07V193.12l36,.65V174.24l-31.9-.21v-22.3l31.9-.23V133.65Z"/><path d="M463.76,213.81,483.7,175A27.06,27.06,0,0,1,469,164a32.54,32.54,0,0,1-5-18.2,37,37,0,0,1,3.68-16.65,28.16,28.16,0,0,1,11.07-11.89q7.44-4.44,18.21-4.79l40.65-1.29v105l-26-.83V177.27l-2.59,0-18.29,37.44Zm47.87-77.55-12.49.21c-3.49.06-6.09,1.07-7.82,3s-2.59,4.59-2.59,7.95c0,7.1,3.45,10.63,10.41,10.61l12.49,0Z"/><path d="M393.24,184q0-9.47,3.58-15.4a26.92,26.92,0,0,1,8.56-9.11A95,95,0,0,1,418.07,153a55.59,55.59,0,0,0,10.38-5.33,7.66,7.66,0,0,0,3.34-6.56,7.12,7.12,0,0,0-1.52-5,5.34,5.34,0,0,0-4.21-1.58,6.51,6.51,0,0,0-5.05,2.3q-1.9,2.24-2.37,6.78l-23.95.31q.78-14.08,8.94-22.11c5.48-5.39,12.9-8.25,22.32-8.56a34.73,34.73,0,0,1,15.76,2.91,25.14,25.14,0,0,1,11.13,9.78,29.49,29.49,0,0,1,4.11,15.9q0,9.73-3.81,15.95a26.57,26.57,0,0,1-9,9.26,96.41,96.41,0,0,1-13.06,6.21,52.37,52.37,0,0,0-10.71,5.23,7.81,7.81,0,0,0-3.35,6.77,7.28,7.28,0,0,0,1.67,5.11,6.22,6.22,0,0,0,4.69,1.88,7.37,7.37,0,0,0,5.71-2.39c1.56-1.63,2.45-4.16,2.69-7.58l24.92.31q-.85,15.35-10.41,23.39c-6.31,5.32-14.28,7.8-23.84,7.48a32,32,0,0,1-15.94-4.34,26.2,26.2,0,0,1-9.93-10.6A31.6,31.6,0,0,1,393.24,184Z"/><path d="M352,179.06a27.42,27.42,0,0,1-15-4.13,24.74,24.74,0,0,1-9.19-10.88,37.54,37.54,0,0,1-3.06-15.49q0-13.94,6.89-22.44c4.63-5.72,11.39-8.73,20.34-9l31.68-1v95.15l-21.38-.69V179.17Zm2.32-20.4,8,0v-20.8l-8,.14c-6,.1-9,3.56-9,10.37S348.31,158.68,354.35,158.66Z"/><path d="M272.63,139.15V119.62l44.39-1.4v90.89l-44.39-1.43V188.16l24.87.44V172.39l-22-.14V153.68l22-.15V138.71Z"/><path d="M234.39,120A25.49,25.49,0,0,1,251,125q7.2,5.4,11.15,15.43a62.72,62.72,0,0,1,4,23.08,62.8,62.8,0,0,1-4,23.08q-3.93,10-11.15,15.42a25.37,25.37,0,0,1-16.56,5,26.35,26.35,0,0,1-19.9-9.4q-7.71-8.92-9.75-23.61l17.89.14a17.26,17.26,0,0,0,4.66,8,10.83,10.83,0,0,0,7.37,3c3.87.06,7-1.87,9.43-5.82s3.63-9.24,3.63-15.83-1.21-11.86-3.63-15.78-5.56-5.82-9.43-5.75a10.9,10.9,0,0,0-7.37,2.94,16.85,16.85,0,0,0-4.66,7.92l-17.89.14A52.14,52.14,0,0,1,210,136a31,31,0,0,1,10.09-11.58A26.73,26.73,0,0,1,234.39,120Z"/><path d="M200.92,121.9v18.51l-15.83.28v64.19l-16-.52V141l-15.23.27V123.39Z"/><path d="M148.74,123.55v80.16l-15.21-.49V124Z"/><path d="M129.05,124.18,111,202.5l-18.32-.59-17-76,14.67-.46,11.41,55.21,11.69-55.95Z"/><path d="M41.06,143.22V127l30.59-1v75.24l-30.59-1V184l17.18.31V170.86L43,170.77V155.32l15.21-.11V142.92Z"/><path d="M2.06,178.6A28.33,28.33,0,0,1,4,167.21a18.69,18.69,0,0,1,4.67-6.72,49.34,49.34,0,0,1,6.89-4.78,28.15,28.15,0,0,0,5.62-3.9A6.4,6.4,0,0,0,23,147a6.51,6.51,0,0,0-.82-3.65,2.52,2.52,0,0,0-2.27-1.18,3.2,3.2,0,0,0-2.73,1.67,11,11,0,0,0-1.28,5l-13,.16q.44-10.41,4.88-16.29a15,15,0,0,1,12.11-6.18,14.66,14.66,0,0,1,8.5,2.23,16.23,16.23,0,0,1,6,7.23,28.13,28.13,0,0,1,2.2,11.65,28.65,28.65,0,0,1-2,11.66,17.91,17.91,0,0,1-4.82,6.78,47.58,47.58,0,0,1-7,4.57,26,26,0,0,0-5.78,3.86,7.94,7.94,0,0,0-.91,8.75,3,3,0,0,0,2.54,1.36,3.56,3.56,0,0,0,3.08-1.77A10.81,10.81,0,0,0,23,177.26l13.39.17q-.45,11.22-5.58,17.16A15.52,15.52,0,0,1,18,200.22a14,14,0,0,1-8.65-3.1,18.07,18.07,0,0,1-5.41-7.77A30.2,30.2,0,0,1,2.06,178.6Z"/><path class="b" d="M33.83,76.91V115.1l-31.75,1V0l47,1.49C62.24,1.91,72.18,5.61,79,12.57s10.1,16,10.1,27.2A38.86,38.86,0,0,1,84.6,58.52,32.41,32.41,0,0,1,71.12,71.7q-9.08,4.9-22.06,5ZM59,39.46C59,31.2,54.54,27,45.63,26.84l-11.8-.21v25.3l11.8,0C54.54,52,59,47.83,59,39.46Z"/><path class="b" d="M128.88,28V45.83l31.9.22V68.36l-31.9.21V88.1l36-.65V110.9L100.44,113V3.12l64.43,2V28.61Z"/><path class="b" d="M223.88,109,205.59,71.57l-2.59,0v38.09l-26,.83V5.55l40.64,1.29q10.78.35,18.21,4.79a28.16,28.16,0,0,1,11.07,11.89,37,37,0,0,1,3.68,16.65,32.54,32.54,0,0,1-5,18.2,27.07,27.07,0,0,1-14.65,11l19.93,38.79ZM203,52.33l12.49.05c7,0,10.41-3.52,10.41-10.61a11.56,11.56,0,0,0-2.59-8c-1.73-1.94-4.33-3-7.82-3L203,30.59Z"/><path class="b" d="M318,92.84a26.2,26.2,0,0,1-9.93,10.6,32,32,0,0,1-15.94,4.34c-9.56.32-17.53-2.17-23.84-7.48s-9.84-13.16-10.4-23.4l24.91-.3c.24,3.42,1.13,5.94,2.7,7.58a7.39,7.39,0,0,0,5.7,2.39,6.25,6.25,0,0,0,4.69-1.88,7.28,7.28,0,0,0,1.67-5.11,7.78,7.78,0,0,0-3.35-6.77,51.72,51.72,0,0,0-10.7-5.23,96,96,0,0,1-13.07-6.21,26.57,26.57,0,0,1-9-9.26q-3.81-6.21-3.81-16a29.46,29.46,0,0,1,4.11-15.9,25.23,25.23,0,0,1,11.13-9.79,34.75,34.75,0,0,1,15.77-2.9Q302.81,8,311,16.13t8.94,22.11L296,37.93q-.47-4.55-2.37-6.78a6.49,6.49,0,0,0-5.05-2.3,5.27,5.27,0,0,0-4.2,1.58,7.06,7.06,0,0,0-1.53,5A7.64,7.64,0,0,0,286.18,42a55.31,55.31,0,0,0,10.38,5.33,95.53,95.53,0,0,1,12.69,6.5,26.79,26.79,0,0,1,8.56,9.1q3.58,6,3.58,15.41A31.6,31.6,0,0,1,318,92.84Z"/><path class="b" d="M352.3,73.5v31.39l-21.38.68V10.43l31.68,1c8.95.29,15.71,3.3,20.34,9s6.89,13.16,6.89,22.45a37.73,37.73,0,0,1-3.05,15.49,24.79,24.79,0,0,1-9.19,10.87,27.29,27.29,0,0,1-15,4.13Zm17-30.82c0-6.81-3-10.27-9-10.37l-8-.14V53l8,0C366.32,53,369.32,49.57,369.32,42.68Z"/><path class="b" d="M417.13,33V47.86l22,.15V66.58l-22,.14V82.93L442,82.48V102l-44.39,1.43V12.54L442,14V33.48Z"/><path class="b" d="M494.58,18.79a30.92,30.92,0,0,1,10.09,11.58,52.14,52.14,0,0,1,5.22,17L492,47.18a16.87,16.87,0,0,0-4.66-7.91,11,11,0,0,0-7.37-3q-5.81-.09-9.43,5.76t-3.63,15.77q0,9.9,3.63,15.84T480,79.5a10.77,10.77,0,0,0,7.37-3,17.26,17.26,0,0,0,4.66-8l17.89-.14Q507.84,83.07,500.14,92a26.34,26.34,0,0,1-19.9,9.4,25.49,25.49,0,0,1-16.56-5q-7.2-5.39-11.15-15.42a62.8,62.8,0,0,1-4-23.08,62.82,62.82,0,0,1,4-23.09q3.95-10,11.15-15.42a25.49,25.49,0,0,1,16.56-5A26.73,26.73,0,0,1,494.58,18.79Z"/><path class="b" d="M560.79,17.72V35.57l-15.23-.27V98.69l-16,.51V35l-15.83-.28V16.23Z"/><path class="b" d="M581.1,18.36V97.55L565.89,98V17.88Z"/><path class="b" d="M601.21,19,612.9,75l11.41-55.22L639,20.2l-17,76-18.32.59L585.58,18.51Z"/><path class="b" d="M656.4,37.25V49.54l15.21.1V65.09l-15.21.1V78.64l17.17-.31V94.58l-30.58,1V20.33l30.58,1V37.55Z"/><path class="b" d="M710.74,83.68a18,18,0,0,1-5.41,7.77,13.94,13.94,0,0,1-8.65,3.1,15.52,15.52,0,0,1-12.85-5.63q-5.12-5.92-5.58-17.17l13.39-.16a10.81,10.81,0,0,0,1.45,5.58,3.61,3.61,0,0,0,3.09,1.77,3,3,0,0,0,2.53-1.36,6.59,6.59,0,0,0,.91-3.76,6.65,6.65,0,0,0-1.81-5A26.73,26.73,0,0,0,692,65a47.6,47.6,0,0,1-7-4.56,18,18,0,0,1-4.82-6.78,28.65,28.65,0,0,1-2-11.66,28.13,28.13,0,0,1,2.2-11.65,16.18,16.18,0,0,1,6-7.23,14.61,14.61,0,0,1,8.49-2.23A15,15,0,0,1,706.9,27q4.46,5.88,4.88,16.29l-13-.17a11,11,0,0,0-1.28-5,3.2,3.2,0,0,0-2.73-1.67,2.52,2.52,0,0,0-2.27,1.18,6.51,6.51,0,0,0-.82,3.65,6.4,6.4,0,0,0,1.8,4.81,28.45,28.45,0,0,0,5.62,3.9A48.5,48.5,0,0,1,706,54.82a18.69,18.69,0,0,1,4.67,6.72,28.33,28.33,0,0,1,2,11.39A30.2,30.2,0,0,1,710.74,83.68Z"/></svg>