<svg xmlns="http://www.w3.org/2000/svg" viewBox="0 0 710.49 116.12"><title>logov2</title><path d="M31.75,76.91V115.1L0,116.12V0L47,1.49c13.18.42,23.12,4.12,29.91,11.08S87,28.53,87,39.77a38.86,38.86,0,0,1-4.47,18.75A32.43,32.43,0,0,1,69,71.7Q60,76.6,47,76.75ZM56.88,39.46c0-8.26-4.42-12.47-13.34-12.62l-11.79-.21v25.3l11.79,0C52.46,52,56.88,47.83,56.88,39.46Z"/><path d="M126.8,28V45.83l31.9.22V68.36l-31.9.21V88.1l36-.65V110.9L98.36,113V3.12l64.43,2V28.61Z"/><path d="M221.8,109,203.51,71.57l-2.59,0v38.09l-26,.83V5.55l40.64,1.29q10.78.35,18.21,4.79a28.16,28.16,0,0,1,11.07,11.89,37,37,0,0,1,3.68,16.65,32.54,32.54,0,0,1-5,18.2,27.07,27.07,0,0,1-14.65,11l19.93,38.79ZM200.92,52.33l12.49.05c7,0,10.41-3.52,10.41-10.61a11.56,11.56,0,0,0-2.59-8c-1.73-1.94-4.33-3-7.82-3l-12.49-.21Z"/><path d="M316,92.84a26.2,26.2,0,0,1-9.93,10.6,32,32,0,0,1-15.94,4.34c-9.56.32-17.53-2.17-23.84-7.48s-9.84-13.16-10.41-23.4l24.92-.3c.24,3.42,1.13,5.94,2.7,7.58a7.39,7.39,0,0,0,5.7,2.39,6.25,6.25,0,0,0,4.69-1.88,7.28,7.28,0,0,0,1.67-5.11,7.78,7.78,0,0,0-3.35-6.77,51.72,51.72,0,0,0-10.7-5.23,96,96,0,0,1-13.07-6.21,26.57,26.57,0,0,1-9-9.26q-3.81-6.21-3.81-16a29.46,29.46,0,0,1,4.11-15.9,25.23,25.23,0,0,1,11.13-9.79,34.75,34.75,0,0,1,15.77-2.9q14.11.46,22.31,8.56t8.94,22.11l-23.95-.31q-.46-4.55-2.37-6.78a6.51,6.51,0,0,0-5.05-2.3,5.27,5.27,0,0,0-4.2,1.58,7.06,7.06,0,0,0-1.53,5A7.64,7.64,0,0,0,284.1,42a55,55,0,0,0,10.38,5.33,95.53,95.53,0,0,1,12.69,6.5,26.79,26.79,0,0,1,8.56,9.1q3.58,6,3.58,15.41A31.6,31.6,0,0,1,316,92.84Z"/><path d="M350.22,73.5v31.39l-21.38.68V10.43l31.68,1c9,.29,15.71,3.3,20.34,9s6.89,13.16,6.89,22.45a37.73,37.73,0,0,1-3.05,15.49,24.79,24.79,0,0,1-9.19,10.87,27.31,27.31,0,0,1-15,4.13Zm17-30.82c0-6.81-3-10.27-9-10.37l-8-.14V53l8,0C364.24,53,367.24,49.57,367.24,42.68Z"/><path d="M415.05,33V47.86l22,.15V66.58l-22,.14V82.93l24.87-.45V102l-44.39,1.43V12.54L439.92,14V33.48Z"/><path d="M492.5,18.79a30.92,30.92,0,0,1,10.09,11.58,52.14,52.14,0,0,1,5.22,17l-17.89-.15a16.87,16.87,0,0,0-4.66-7.91,11,11,0,0,0-7.37-3q-5.81-.09-9.43,5.76t-3.63,15.77q0,9.9,3.63,15.84t9.43,5.81a10.77,10.77,0,0,0,7.37-3,17.26,17.26,0,0,0,4.66-8l17.89-.14Q505.76,83.07,498.06,92a26.34,26.34,0,0,1-19.9,9.4,25.49,25.49,0,0,1-16.56-5Q454.4,91,450.45,80.94a62.8,62.8,0,0,1-4-23.08,62.82,62.82,0,0,1,4-23.09q3.94-10,11.15-15.42a25.49,25.49,0,0,1,16.56-5A26.73,26.73,0,0,1,492.5,18.79Z"/><path d="M558.71,17.72V35.57l-15.23-.27V98.69l-16,.51V35l-15.83-.28V16.23Z"/><path d="M579,18.36V97.55L563.81,98V17.88Z"/><path d="M599.13,19l11.69,56,11.41-55.22,14.67.47-17,76-18.32.59L583.5,18.51Z"/><path d="M654.31,37.25V49.54l15.22.1V65.09l-15.22.1V78.64l17.18-.31V94.58l-30.58,1V20.33l30.58,1V37.55Z"/><path d="M708.66,83.68a18.07,18.07,0,0,1-5.41,7.77,13.94,13.94,0,0,1-8.65,3.1,15.52,15.52,0,0,1-12.85-5.63q-5.12-5.92-5.58-17.17l13.39-.16A10.81,10.81,0,0,0,691,77.17a3.61,3.61,0,0,0,3.09,1.77,3,3,0,0,0,2.53-1.36,6.59,6.59,0,0,0,.91-3.76,6.65,6.65,0,0,0-1.81-5A26.73,26.73,0,0,0,689.94,65a47.6,47.6,0,0,1-7-4.56,18,18,0,0,1-4.82-6.78A28.65,28.65,0,0,1,676,42a28.13,28.13,0,0,1,2.2-11.65,16.18,16.18,0,0,1,6-7.23,14.61,14.61,0,0,1,8.49-2.23A15,15,0,0,1,704.82,27q4.45,5.88,4.88,16.29l-13-.17a11,11,0,0,0-1.28-5,3.2,3.2,0,0,0-2.73-1.67,2.52,2.52,0,0,0-2.27,1.18,6.51,6.51,0,0,0-.82,3.65,6.4,6.4,0,0,0,1.8,4.81A28.45,28.45,0,0,0,697,50a48.5,48.5,0,0,1,6.89,4.78,18.69,18.69,0,0,1,4.67,6.72,28.33,28.33,0,0,1,2,11.39A30.2,30.2,0,0,1,708.66,83.68Z"/></svg>