<svg xmlns="http://www.w3.org/2000/svg" viewBox="0 0 711.13 264.36"><defs><style>.a{fill:#161613;}.b{fill:#cfe224;}</style></defs><title>logov3_1</title><path class="a" d="M17.18,232.72a10,10,0,0,1,4.06,3.94,13.11,13.11,0,0,1,0,12.1,10.12,10.12,0,0,1-4.06,3.94,12.14,12.14,0,0,1-5.82,1.38,12.14,12.14,0,0,1-5.82-1.38,10.12,10.12,0,0,1-4.06-3.94,13.11,13.11,0,0,1,0-12.1,10,10,0,0,1,4.06-3.94,12.25,12.25,0,0,1,5.82-1.36A12.25,12.25,0,0,1,17.18,232.72ZM7.36,237.9a7.9,7.9,0,0,0,0,9.64,5.4,5.4,0,0,0,4,1.66,5.4,5.4,0,0,0,4-1.66,7.9,7.9,0,0,0,0-9.64,5.4,5.4,0,0,0-4-1.66A5.4,5.4,0,0,0,7.36,237.9Z"/><path class="a" d="M46,233.84q2.28,2.52,2.28,7.08V253.8h-5.6V241.56a5.77,5.77,0,0,0-1.36-4.1A4.86,4.86,0,0,0,37.64,236a5,5,0,0,0-3.84,1.56A6.37,6.37,0,0,0,32.36,242V253.8H26.72V231.64h5.64v4.44a7.07,7.07,0,0,1,2.9-3.5,8.63,8.63,0,0,1,4.66-1.26A7.85,7.85,0,0,1,46,233.84Z"/><path class="a" d="M79.2,248.12H67.88l-2,5.68h-6l10.4-27.92h6.44L87.12,253.8h-6Zm-1.52-4.28-4.16-11.92-4.16,11.92Z"/><path class="a" d="M97.64,228.52a3.94,3.94,0,0,0-1,3.08v0h4.48v4.76H96.64v17.4H91V236.4H88.16v-4.76H91v-.52a8,8,0,0,1,2.26-6.1q2.26-2.15,6.7-2.14a11.47,11.47,0,0,1,1.16,0v4.88A4.8,4.8,0,0,0,97.64,228.52Z"/><path class="a" d="M112,228.52a3.94,3.94,0,0,0-1,3.08v0h4.48v4.76H111v17.4h-5.64V236.4h-2.84v-4.76h2.84v-.52a8,8,0,0,1,2.26-6.1c1.5-1.43,3.74-2.14,6.7-2.14a11.47,11.47,0,0,1,1.16,0v4.88A4.78,4.78,0,0,0,112,228.52Z"/><path class="a" d="M134.86,232.72a10,10,0,0,1,4.06,3.94,13.11,13.11,0,0,1,0,12.1,10.12,10.12,0,0,1-4.06,3.94,13,13,0,0,1-11.64,0,10.06,10.06,0,0,1-4.06-3.94,13.11,13.11,0,0,1,0-12.1,9.93,9.93,0,0,1,4.06-3.94,13.13,13.13,0,0,1,11.64,0ZM125,237.9a7.9,7.9,0,0,0,0,9.64,5.65,5.65,0,0,0,8,0,7.9,7.9,0,0,0,0-9.64,5.65,5.65,0,0,0-8,0Z"/><path class="a" d="M153.32,232.54a8.74,8.74,0,0,1,4.56-1.22v6h-1.64c-4.14,0-6.2,1.92-6.2,5.76V253.8H144.4V231.64H150v4.24A9.22,9.22,0,0,1,153.32,232.54Z"/><path class="a" d="M174.46,232.68a7.49,7.49,0,0,1,2.86,3.56v-12h5.6v29.6h-5.6v-4.64a7.58,7.58,0,0,1-2.86,3.58,8.37,8.37,0,0,1-4.78,1.34,9.47,9.47,0,0,1-5-1.36,9.16,9.16,0,0,1-3.5-3.94,15.2,15.2,0,0,1,0-12.12,9.16,9.16,0,0,1,3.5-3.94,9.47,9.47,0,0,1,5-1.36A8.43,8.43,0,0,1,174.46,232.68ZM167.2,238a6.65,6.65,0,0,0-1.6,4.72,6.57,6.57,0,0,0,1.6,4.7,6.06,6.06,0,0,0,8.46,0,6.49,6.49,0,0,0,1.66-4.66,6.56,6.56,0,0,0-1.66-4.7,5.6,5.6,0,0,0-4.22-1.74A5.5,5.5,0,0,0,167.2,238Z"/><path class="a" d="M201.52,232.68a7.22,7.22,0,0,1,2.84,3.56v-4.6H210V253.8h-5.6v-4.64a7.31,7.31,0,0,1-2.84,3.58,8.48,8.48,0,0,1-4.8,1.34,9.47,9.47,0,0,1-5-1.36,9.16,9.16,0,0,1-3.5-3.94,15.2,15.2,0,0,1,0-12.12,9.16,9.16,0,0,1,3.5-3.94,9.47,9.47,0,0,1,5-1.36A8.55,8.55,0,0,1,201.52,232.68ZM194.24,238a6.65,6.65,0,0,0-1.6,4.72,6.57,6.57,0,0,0,1.6,4.7,6.06,6.06,0,0,0,8.46,0,6.49,6.49,0,0,0,1.66-4.66,6.56,6.56,0,0,0-1.66-4.7,5.6,5.6,0,0,0-4.22-1.74A5.5,5.5,0,0,0,194.24,238Z"/><path class="a" d="M233.36,232.72a9.23,9.23,0,0,1,3.5,3.94,15.2,15.2,0,0,1,0,12.12,9.23,9.23,0,0,1-3.5,3.94,9.52,9.52,0,0,1-5,1.36,8.34,8.34,0,0,1-4.78-1.34,7.33,7.33,0,0,1-2.82-3.58v4.64h-5.64V224.2h5.64v12a7.24,7.24,0,0,1,2.82-3.56,8.41,8.41,0,0,1,4.78-1.32A9.52,9.52,0,0,1,233.36,232.72Zm-11,5.3a6.52,6.52,0,0,0-1.66,4.7,6.45,6.45,0,0,0,1.66,4.66,6.06,6.06,0,0,0,8.46,0,6.61,6.61,0,0,0,1.6-4.7,6.69,6.69,0,0,0-1.6-4.72,6,6,0,0,0-8.46,0Z"/><path class="a" d="M242.44,223.06a4.12,4.12,0,0,1,5,0,2.83,2.83,0,0,1,1,2.22,2.79,2.79,0,0,1-1,2.18,4.12,4.12,0,0,1-5,0,2.79,2.79,0,0,1-1-2.18A2.83,2.83,0,0,1,242.44,223.06Zm5.32,8.58V253.8h-5.64V231.64Z"/><path class="a" d="M258.52,224.2v29.6h-5.64V224.2Z"/><path class="a" d="M264,223.06a4.12,4.12,0,0,1,5,0,2.83,2.83,0,0,1,1,2.22,2.79,2.79,0,0,1-1,2.18,4.12,4.12,0,0,1-5,0,2.79,2.79,0,0,1-1-2.18A2.83,2.83,0,0,1,264,223.06Zm5.32,8.58V253.8h-5.64V231.64Z"/><path class="a" d="M286.24,249v4.84h-3a8.19,8.19,0,0,1-5.7-1.8q-2-1.8-2-6v-9.6h-3.08v-4.76h3.08v-5.48h5.64v5.48h5v4.76h-5v9.68a3.11,3.11,0,0,0,.64,2.24A3,3,0,0,0,284,249Z"/><path class="a" d="M294.08,231.64l6,15,5.6-15h6.2l-13.56,32.72h-6.24l5-11.2-9.32-21.52Z"/><path class="a" d="M319.24,247.92v5.88h-6.08v-5.88Z"/><path d="M664.14,182.42q-13-.13-22.06-5a32.38,32.38,0,0,1-13.49-13.18,38.86,38.86,0,0,1-4.47-18.75q0-16.86,10.1-27.2c6.79-6.95,16.73-10.66,29.92-11.08l47-1.49V221.79l-31.75-1v-38.2Zm3.43-24.78,11.79,0V132.3l-11.79.21c-8.92.15-13.34,4.36-13.34,12.62S658.65,157.67,667.57,157.64Z"/><path d="M548.32,134.28V110.83l64.43-2V218.64l-64.43-2.07V193.12l36,.65V174.24l-31.9-.21v-22.3l31.9-.23V133.65Z"/><path d="M462.32,213.81,482.26,175a27.06,27.06,0,0,1-14.66-11,32.54,32.54,0,0,1-5-18.2,37,37,0,0,1,3.68-16.65,28.16,28.16,0,0,1,11.07-11.89q7.44-4.44,18.21-4.79l40.65-1.29v105l-26-.83V177.27l-2.59,0-18.29,37.44Zm47.87-77.55-12.49.21c-3.49.06-6.09,1.07-7.82,3s-2.59,4.59-2.59,7.95c0,7.1,3.45,10.63,10.41,10.61l12.49,0Z"/><path d="M391.8,184q0-9.47,3.58-15.4a26.92,26.92,0,0,1,8.56-9.11A95,95,0,0,1,416.63,153,55.59,55.59,0,0,0,427,147.63a7.63,7.63,0,0,0,3.34-6.56,7.12,7.12,0,0,0-1.52-5,5.34,5.34,0,0,0-4.21-1.58,6.51,6.51,0,0,0-5.05,2.3q-1.9,2.24-2.37,6.78l-23.95.31q.78-14.08,8.94-22.11c5.48-5.39,12.9-8.25,22.32-8.56a34.73,34.73,0,0,1,15.76,2.91,25.14,25.14,0,0,1,11.13,9.78,29.49,29.49,0,0,1,4.11,15.9q0,9.73-3.81,15.95a26.57,26.57,0,0,1-9,9.26,96.41,96.41,0,0,1-13.06,6.21,52.37,52.37,0,0,0-10.71,5.23,7.81,7.81,0,0,0-3.35,6.77,7.28,7.28,0,0,0,1.67,5.11,6.22,6.22,0,0,0,4.69,1.88,7.37,7.37,0,0,0,5.71-2.39c1.56-1.63,2.45-4.16,2.69-7.58l24.92.31q-.86,15.35-10.41,23.39c-6.31,5.32-14.28,7.8-23.84,7.48a32,32,0,0,1-15.94-4.34,26.2,26.2,0,0,1-9.93-10.6A31.6,31.6,0,0,1,391.8,184Z"/><path d="M350.59,179.06a27.42,27.42,0,0,1-15-4.13,24.74,24.74,0,0,1-9.19-10.88,37.54,37.54,0,0,1-3.06-15.49q0-13.94,6.89-22.44c4.63-5.72,11.39-8.73,20.34-9l31.68-1v95.15l-21.38-.69V179.17Zm2.32-20.4,8,0v-20.8l-8,.14c-6,.1-9,3.56-9,10.37S346.87,158.68,352.91,158.66Z"/><path d="M271.19,139.15V119.62l44.39-1.4v90.89l-44.39-1.43V188.16l24.87.44V172.39l-22-.14V153.68l22-.15V138.71Z"/><path d="M233,120a25.49,25.49,0,0,1,16.56,5q7.2,5.4,11.15,15.43a62.72,62.72,0,0,1,4,23.08,62.8,62.8,0,0,1-4,23.08q-3.93,10-11.15,15.42a25.37,25.37,0,0,1-16.56,5,26.35,26.35,0,0,1-19.9-9.4q-7.71-8.92-9.75-23.61l17.89.14a17.26,17.26,0,0,0,4.66,8,10.83,10.83,0,0,0,7.37,3c3.87.06,7-1.87,9.43-5.82s3.63-9.24,3.63-15.83-1.21-11.86-3.63-15.78-5.56-5.82-9.43-5.75a10.9,10.9,0,0,0-7.37,2.94,16.85,16.85,0,0,0-4.66,7.92L203.3,153a52.14,52.14,0,0,1,5.22-17,31,31,0,0,1,10.09-11.58A26.73,26.73,0,0,1,233,120Z"/><path d="M199.48,121.9v18.51l-15.83.28v64.19l-16-.52V141l-15.23.27V123.39Z"/><path d="M147.3,123.55v80.16l-15.21-.49V124Z"/><path d="M127.61,124.18,109.55,202.5l-18.32-.59-17-76,14.67-.46,11.41,55.21L112,124.67Z"/><path d="M39.62,143.22V127l30.59-1v75.24l-30.59-1V184l17.18.31V170.86l-15.21-.09V155.32l15.21-.11V142.92Z"/><path d="M.62,178.6a28.33,28.33,0,0,1,1.95-11.39,18.69,18.69,0,0,1,4.67-6.72,49.34,49.34,0,0,1,6.89-4.78,28.15,28.15,0,0,0,5.62-3.9,6.4,6.4,0,0,0,1.8-4.81,6.51,6.51,0,0,0-.82-3.65,2.52,2.52,0,0,0-2.27-1.18,3.2,3.2,0,0,0-2.73,1.67,11,11,0,0,0-1.28,5l-13,.16q.44-10.41,4.88-16.29a15,15,0,0,1,12.11-6.18,14.66,14.66,0,0,1,8.5,2.23,16.23,16.23,0,0,1,6,7.23,28.13,28.13,0,0,1,2.2,11.65,28.65,28.65,0,0,1-2,11.66,17.91,17.91,0,0,1-4.82,6.78,47.58,47.58,0,0,1-7,4.57,26,26,0,0,0-5.78,3.86,7.94,7.94,0,0,0-.91,8.75A3,3,0,0,0,17,184.61a3.56,3.56,0,0,0,3.08-1.77,10.81,10.81,0,0,0,1.45-5.58l13.39.17q-.45,11.22-5.58,17.16a15.52,15.52,0,0,1-12.85,5.63,14,14,0,0,1-8.65-3.1,18.07,18.07,0,0,1-5.41-7.77A30.2,30.2,0,0,1,.62,178.6Z"/><path class="b" d="M32.39,76.91V115.1l-31.75,1V0l47,1.49c13.18.42,23.12,4.12,29.91,11.08s10.1,16,10.1,27.2a38.86,38.86,0,0,1-4.47,18.75A32.41,32.41,0,0,1,69.68,71.7q-9.08,4.9-22.06,5ZM57.52,39.46c0-8.26-4.42-12.47-13.33-12.62l-11.8-.21v25.3l11.8,0C53.1,52,57.52,47.83,57.52,39.46Z"/><path class="b" d="M127.44,28V45.83l31.9.22V68.36l-31.9.21V88.1l36-.65V110.9L99,113V3.12l64.43,2V28.61Z"/><path class="b" d="M222.44,109,204.15,71.57l-2.59,0v38.09l-26,.83V5.55l40.64,1.29q10.78.35,18.21,4.79a28.25,28.25,0,0,1,11.08,11.89,37.14,37.14,0,0,1,3.67,16.65,32.54,32.54,0,0,1-5,18.2,27.07,27.07,0,0,1-14.65,11l19.93,38.79ZM201.56,52.33l12.49.05c7,0,10.41-3.52,10.41-10.61a11.56,11.56,0,0,0-2.59-8c-1.73-1.94-4.33-3-7.82-3l-12.49-.21Z"/><path class="b" d="M316.6,92.84a26.2,26.2,0,0,1-9.93,10.6,32,32,0,0,1-15.94,4.34c-9.56.32-17.53-2.17-23.84-7.48s-9.84-13.16-10.4-23.4l24.91-.3c.24,3.42,1.13,5.94,2.7,7.58a7.39,7.39,0,0,0,5.7,2.39,6.25,6.25,0,0,0,4.69-1.88,7.28,7.28,0,0,0,1.67-5.11,7.78,7.78,0,0,0-3.35-6.77,51.72,51.72,0,0,0-10.7-5.23A96,96,0,0,1,269,61.37a26.57,26.57,0,0,1-9-9.26q-3.81-6.21-3.81-16a29.46,29.46,0,0,1,4.11-15.9,25.23,25.23,0,0,1,11.13-9.79,34.75,34.75,0,0,1,15.77-2.9q14.12.46,22.31,8.56t8.94,22.11l-23.95-.31q-.46-4.55-2.37-6.78a6.49,6.49,0,0,0-5.05-2.3,5.27,5.27,0,0,0-4.2,1.58,7.06,7.06,0,0,0-1.53,5A7.64,7.64,0,0,0,284.74,42a55.31,55.31,0,0,0,10.38,5.33,95.53,95.53,0,0,1,12.69,6.5,26.79,26.79,0,0,1,8.56,9.1q3.58,6,3.58,15.41A31.6,31.6,0,0,1,316.6,92.84Z"/><path class="b" d="M350.86,73.5v31.39l-21.38.68V10.43l31.68,1c8.95.29,15.71,3.3,20.34,9s6.89,13.16,6.89,22.45a37.73,37.73,0,0,1-3.05,15.49,24.79,24.79,0,0,1-9.19,10.87,27.29,27.29,0,0,1-15,4.13Zm17-30.82q0-10.22-9.05-10.37l-8-.14V53l8,0Q367.9,53,367.89,42.68Z"/><path class="b" d="M415.69,33V47.86l22,.15V66.58l-22,.14V82.93l24.87-.45V102l-44.39,1.43V12.54L440.56,14V33.48Z"/><path class="b" d="M493.14,18.79a30.92,30.92,0,0,1,10.09,11.58,52.14,52.14,0,0,1,5.22,17l-17.89-.15a16.87,16.87,0,0,0-4.66-7.91,11,11,0,0,0-7.37-3q-5.8-.09-9.43,5.76t-3.63,15.77q0,9.9,3.63,15.84t9.43,5.81a10.77,10.77,0,0,0,7.37-3,17.26,17.26,0,0,0,4.66-8l17.89-.14Q506.4,83.07,498.7,92a26.34,26.34,0,0,1-19.9,9.4,25.49,25.49,0,0,1-16.56-5Q455,91,451.09,80.94a62.8,62.8,0,0,1-4-23.08,62.82,62.82,0,0,1,4-23.09q3.95-10,11.15-15.42a25.49,25.49,0,0,1,16.56-5A26.73,26.73,0,0,1,493.14,18.79Z"/><path class="b" d="M559.35,17.72V35.57l-15.23-.27V98.69l-16,.51V35l-15.83-.28V16.23Z"/><path class="b" d="M579.66,18.36V97.55L564.45,98V17.88Z"/><path class="b" d="M599.77,19l11.69,56,11.41-55.22,14.67.47-17,76-18.32.59L584.14,18.51Z"/><path class="b" d="M655,37.25V49.54l15.21.1V65.09l-15.21.1V78.64l17.17-.31V94.58l-30.58,1V20.33l30.58,1V37.55Z"/><path class="b" d="M709.3,83.68a18,18,0,0,1-5.41,7.77,13.94,13.94,0,0,1-8.65,3.1,15.52,15.52,0,0,1-12.85-5.63q-5.11-5.92-5.58-17.17l13.39-.16a10.81,10.81,0,0,0,1.45,5.58,3.61,3.61,0,0,0,3.09,1.77,3,3,0,0,0,2.53-1.36,6.59,6.59,0,0,0,.91-3.76,6.65,6.65,0,0,0-1.81-5A26.73,26.73,0,0,0,690.58,65a47.6,47.6,0,0,1-7-4.56,18,18,0,0,1-4.82-6.78,28.65,28.65,0,0,1-2-11.66,28.13,28.13,0,0,1,2.2-11.65,16.18,16.18,0,0,1,6-7.23,14.61,14.61,0,0,1,8.49-2.23A15,15,0,0,1,705.46,27q4.45,5.88,4.88,16.29l-13-.17a11,11,0,0,0-1.28-5,3.2,3.2,0,0,0-2.73-1.67A2.52,2.52,0,0,0,691,37.68a6.51,6.51,0,0,0-.82,3.65,6.4,6.4,0,0,0,1.8,4.81,28.45,28.45,0,0,0,5.62,3.9,48.5,48.5,0,0,1,6.89,4.78,18.69,18.69,0,0,1,4.67,6.72,28.33,28.33,0,0,1,2,11.39A30.2,30.2,0,0,1,709.3,83.68Z"/></svg>