<svg xmlns="http://www.w3.org/2000/svg" viewBox="0 0 332.31 81.46"><title>logov1</title><path d="M18,41.28A8.34,8.34,0,0,1,20,37a5.73,5.73,0,0,1,4.42-1.61,6,6,0,0,1,5,2.1A8.26,8.26,0,0,1,31,43h16.4a22.89,22.89,0,0,0-2.78-11.84,18.25,18.25,0,0,0-8-7.42A26.48,26.48,0,0,0,24.8,21.19a25.56,25.56,0,0,0-13.59,3.42,21.32,21.32,0,0,0-8.4,9.52A33.35,33.35,0,0,0,0,48.19V49a33.16,33.16,0,0,0,2.81,14,21.35,21.35,0,0,0,8.42,9.5A25.8,25.8,0,0,0,24.9,76a26.23,26.23,0,0,0,11.62-2.49,18.94,18.94,0,0,0,8-7.13,19.76,19.76,0,0,0,2.83-10.84H31a6,6,0,0,1-1.57,4.69,6.82,6.82,0,0,1-4.93,1.61A6,6,0,0,1,20,60.25,7.91,7.91,0,0,1,18,56a40,40,0,0,1-.49-7v-.83A39.71,39.71,0,0,1,18,41.28Z"/><path d="M86.23,21.19a16,16,0,0,0-7.37,1.71A17.67,17.67,0,0,0,73,27.73V0H55.52V75H73V37.6c1.3-1.56,3.43-2.35,6.39-2.35a7.81,7.81,0,0,1,5.32,1.57c1.18,1,1.76,3,1.76,5.81V75h17.58V42.72q0-11.26-4.74-16.4T86.23,21.19Z"/><path d="M152.22,24.63a27.05,27.05,0,0,0-14-3.44,26.83,26.83,0,0,0-13.94,3.44,22.06,22.06,0,0,0-8.74,9.55,31.56,31.56,0,0,0-3,13.92v1a31.38,31.38,0,0,0,3,13.92,22.06,22.06,0,0,0,8.76,9.49,27,27,0,0,0,14,3.45,26.69,26.69,0,0,0,14-3.45A22.15,22.15,0,0,0,161,63a31.37,31.37,0,0,0,2.95-13.92v-1A31.49,31.49,0,0,0,161,34.16,22.07,22.07,0,0,0,152.22,24.63Zm-5.79,24.49c0,4-.6,7.16-1.81,9.38s-3.32,3.32-6.34,3.32-5.28-1.1-6.47-3.3S130,53.19,130,49.12v-1q0-5.91,1.8-9.33c1.21-2.28,3.32-3.42,6.35-3.42s5.24,1.13,6.44,3.4,1.81,5.37,1.81,9.35Z"/><path d="M210.22,24.63a30.15,30.15,0,0,0-28,0,22.08,22.08,0,0,0-8.75,9.55,31.7,31.7,0,0,0-2.95,13.92v1A31.51,31.51,0,0,0,173.5,63a22.09,22.09,0,0,0,8.77,9.49,30.09,30.09,0,0,0,28,0A22.13,22.13,0,0,0,219,63a31.38,31.38,0,0,0,3-13.92v-1a31.5,31.5,0,0,0-3-13.94A22.07,22.07,0,0,0,210.22,24.63Zm-5.78,24.49c0,4-.61,7.16-1.81,9.38s-3.32,3.32-6.35,3.32-5.28-1.1-6.47-3.3S188,53.19,188,49.12v-1q0-5.91,1.81-9.33t6.35-3.42q4.63,0,6.44,3.4c1.2,2.26,1.81,5.37,1.81,9.35Z"/><path d="M247.28,34.08A6.69,6.69,0,0,1,251.16,33q3.42,0,4.76,1.29t1.35,4.32H274.8a15.07,15.07,0,0,0-2.88-9.15,18.39,18.39,0,0,0-8.23-6.08,28.34,28.34,0,0,0-5.63-1.58v-7.3h-14V22a23,23,0,0,0-4.66,1.56,18.08,18.08,0,0,0-7.6,6.2,15,15,0,0,0-2.61,8.52A13.07,13.07,0,0,0,234.27,49q5.07,4.08,13.43,5.88,4.05.89,6.17,1.59a9,9,0,0,1,3,1.51,2.56,2.56,0,0,1,.9,2,3.62,3.62,0,0,1-1.58,3.1,7.69,7.69,0,0,1-4.57,1.15,9.25,9.25,0,0,1-5.71-1.56A5.72,5.72,0,0,1,243.79,58H227.53a15.11,15.11,0,0,0,2.81,8.52,20.68,20.68,0,0,0,8.15,6.84,24.56,24.56,0,0,0,5.57,1.92v6.22h14V75.38a28.4,28.4,0,0,0,5.46-1.55,19,19,0,0,0,8.2-5.89,13.42,13.42,0,0,0,2.88-8.42,14,14,0,0,0-2.85-9.13,17.78,17.78,0,0,0-7.33-5.3A48.83,48.83,0,0,0,254,42.38q-8.35-1.32-8.35-5.17A3.58,3.58,0,0,1,247.28,34.08Z"/><path d="M332.31,47a30.17,30.17,0,0,0-2.95-13.82,20.61,20.61,0,0,0-8.45-8.88A26,26,0,0,0,308,21.19q-8.55,0-14.36,3.64A22.37,22.37,0,0,0,285,34.64a32.85,32.85,0,0,0-2.83,13.85v1.8a25.76,25.76,0,0,0,3.29,12.77,24.27,24.27,0,0,0,9.6,9.4A29.91,29.91,0,0,0,309.85,76a30.66,30.66,0,0,0,8.94-1.27,27.5,27.5,0,0,0,7.2-3.3A19.09,19.09,0,0,0,330.8,67L323,56.84a12.64,12.64,0,0,1-5.35,3.8A18.75,18.75,0,0,1,311,61.82a12,12,0,0,1-7-1.93,9.7,9.7,0,0,1-3.84-5.45h32.08Zm-17-3.61H300a11.83,11.83,0,0,1,2.39-5.86,6.7,6.7,0,0,1,5.42-2.15q7.62,0,7.42,6.59Z"/></svg>