<svg xmlns="http://www.w3.org/2000/svg" xmlns:xlink="http://www.w3.org/1999/xlink" viewBox="0 0 546.04 287.16"><defs><style>.a,.aa,.ab,.ac,.ag,.am,.b,.k,.r,.s,.t,.x{fill:none;}.aa,.ab,.ac,.ad,.ae,.af,.ag,.ah,.aj,.ak,.am,.an,.b,.k,.l,.m,.n,.o,.p,.q,.r,.s,.t,.u,.v,.z{stroke:#000;}.aa,.ab,.ac,.ad,.ae,.af,.ag,.ah,.am,.an,.b,.k,.l,.o,.p,.r,.s,.t,.u,.v,.x,.z{stroke-linecap:round;}.aj,.ak,.b,.m,.n,.q{stroke-miterlimit:10;}.c,.p{fill:#62aba0;}.ah,.d,.u{fill:#638094;}.ad,.ae,.af,.aj,.e{fill:#8cb29e;}.f{fill:#ccae5b;}.g,.z{fill:#d56645;}.h,.l{fill:#565e5f;}.i{fill:#b34d53;}.an,.j,.v{fill:#fff;}.j{opacity:0.5;}.aa,.ab,.ac,.ad,.ae,.af,.ag,.ah,.am,.an,.k,.l,.o,.p,.r,.s,.t,.u,.v,.x,.z{stroke-linejoin:round;}.ak,.m{fill:#939997;}.al,.n,.o{fill:#d8e0e9;}.q{fill:url(#a);}.r,.s,.t{stroke-width:0.84px;}.s{stroke-dasharray:4.4 4.4;}.t{stroke-dasharray:5.15 5.15;}.w{fill:#070606;}.x{stroke:#070606;}.y{fill:url(#c);}.aa{stroke-dasharray:5.09;}.ab{stroke-dasharray:7.08;}.ac{stroke-dasharray:6.33;}.ad{stroke-width:0.77px;stroke-dasharray:3.72 3.72;}.ae{stroke-width:1.54px;}.af{stroke-width:1.55px;}.ag,.ah{stroke-width:2.09px;}.ai{fill:url(#d);}.aj{stroke-width:1.17px;}.ak{stroke-width:0.87px;}.am,.an{stroke-width:4px;}</style><pattern id="a" width="14.14" height="14.14" patternTransform="translate(399.12 198.42)" patternUnits="userSpaceOnUse" viewBox="0 0 14.14 14.14"><rect class="a" width="14.14" height="14.14"/><line class="b" x1="0.5" y1="2.89" x2="1.69" y2="4.08"/><line class="b" x1="2.89" y1="2.89" x2="4.08" y2="4.08"/><line class="b" x1="5.28" y1="2.89" x2="6.47" y2="4.08"/><line class="b" x1="7.67" y1="2.89" x2="8.86" y2="4.08"/><line class="b" x1="10.06" y1="2.89" x2="11.25" y2="4.08"/><line class="b" x1="12.45" y1="2.89" x2="13.64" y2="4.08"/><line class="b" x1="0.5" y1="0.5" x2="1.69" y2="1.69"/><line class="b" x1="2.89" y1="0.5" x2="4.08" y2="1.69"/><line class="b" x1="5.28" y1="0.5" x2="6.47" y2="1.69"/><line class="b" x1="7.67" y1="0.5" x2="8.86" y2="1.69"/><line class="b" x1="10.06" y1="0.5" x2="11.25" y2="1.69"/><line class="b" x1="12.45" y1="0.5" x2="13.64" y2="1.69"/><line class="b" x1="0.5" y1="5.28" x2="1.69" y2="6.47"/><line class="b" x1="2.89" y1="5.28" x2="4.08" y2="6.47"/><line class="b" x1="5.28" y1="5.28" x2="6.47" y2="6.47"/><line class="b" x1="7.67" y1="5.28" x2="8.86" y2="6.47"/><line class="b" x1="10.06" y1="5.28" x2="11.25" y2="6.47"/><line class="b" x1="12.45" y1="5.28" x2="13.64" y2="6.47"/><line class="b" x1="0.5" y1="7.67" x2="1.69" y2="8.86"/><line class="b" x1="2.89" y1="7.67" x2="4.08" y2="8.86"/><line class="b" x1="5.28" y1="7.67" x2="6.47" y2="8.86"/><line class="b" x1="7.67" y1="7.67" x2="8.86" y2="8.86"/><line class="b" x1="10.06" y1="7.67" x2="11.25" y2="8.86"/><line class="b" x1="12.45" y1="7.67" x2="13.64" y2="8.86"/><line class="b" x1="0.5" y1="10.06" x2="1.69" y2="11.25"/><line class="b" x1="2.89" y1="10.06" x2="4.08" y2="11.25"/><line class="b" x1="5.28" y1="10.06" x2="6.47" y2="11.25"/><line class="b" x1="7.67" y1="10.06" x2="8.86" y2="11.25"/><line class="b" x1="10.06" y1="10.06" x2="11.25" y2="11.25"/><line class="b" x1="12.45" y1="10.06" x2="13.64" y2="11.25"/><line class="b" x1="0.5" y1="12.45" x2="1.69" y2="13.64"/><line class="b" x1="2.89" y1="12.45" x2="4.08" y2="13.64"/><line class="b" x1="5.28" y1="12.45" x2="6.47" y2="13.64"/><line class="b" x1="7.67" y1="12.45" x2="8.86" y2="13.64"/><line class="b" x1="10.06" y1="12.45" x2="11.25" y2="13.64"/><line class="b" x1="12.45" y1="12.45" x2="13.64" y2="13.64"/></pattern><linearGradient id="c" x1="325.05" y1="263.09" x2="325.05" y2="160.6" gradientUnits="userSpaceOnUse"><stop offset="0" stop-color="#fff" stop-opacity="0"/><stop offset="1" stop-color="#f2f91c"/></linearGradient><linearGradient id="d" x1="201.8" y1="153.43" x2="201.8" y2="145.76" gradientUnits="userSpaceOnUse"><stop offset="0" stop-color="#fff" stop-opacity="0"/><stop offset="0.02" stop-color="#fffff8" stop-opacity="0.03"/><stop offset="0.3" stop-color="#fafdab" stop-opacity="0.37"/><stop offset="0.55" stop-color="#f7fb6e" stop-opacity="0.64"/><stop offset="0.76" stop-color="#f4fa41" stop-opacity="0.84"/><stop offset="0.91" stop-color="#f3f926" stop-opacity="0.96"/><stop offset="1" stop-color="#f2f91c"/></linearGradient></defs><title>hero_1</title><polygon class="c" points="532.2 284.31 417.11 264.17 417.11 283.77 532.2 284.31"/><rect class="d" x="13.32" y="154.51" width="111.03" height="107.14"/><rect class="e" x="124.34" y="154.51" width="136.3" height="109.13"/><polygon class="f" points="415.35 263.63 415.35 166.64 376.99 154.75 260.65 154.51 260.65 263.63 415.35 263.63"/><polygon class="g" points="13.32 154.51 130.27 154.91 130.73 14.87 13.32 49.94 13.32 154.51"/><polygon class="c" points="273.58 154.51 273.34 47.61 170.72 2 130.73 14.87 130.27 154.91 273.58 154.51"/><rect class="h" x="125.47" y="165.46" width="132.59" height="35.78"/><rect class="i" x="125.47" y="225.84" width="79.27" height="35.78"/><rect class="f" x="125.47" y="202.61" width="52.68" height="23.44"/><polygon class="f" points="452.78 243.25 452.78 270.78 455.21 271.2 455.18 243.53 452.78 243.25"/><polygon class="f" points="483.33 248.73 483.33 276.26 485.76 276.69 485.73 249.01 483.33 248.73"/><polygon class="f" points="511.35 253.63 511.35 281.16 513.77 281.59 513.74 253.91 511.35 253.63"/><polygon class="c" points="440.37 239.67 440.37 241.78 520.91 255.87 520.91 253.77 440.37 239.67"/><circle class="j" cx="286.11" cy="226.8" r="21.36"/><rect class="k" x="320.46" y="184.12" width="64.14" height="33.93"/><rect class="l" x="322.14" y="185.71" width="60.78" height="30.76"/><path class="m" d="M89.5,223.18h2.83a2.77,2.77,0,0,1-2.61,1.8,2.8,2.8,0,1,1,2.62-3.79H89.5a1,1,0,1,0,0,2Z"/><path class="m" d="M114.23,222.18a2.79,2.79,0,0,1-5.4,1h2.83a1,1,0,0,0,0-2h-2.84a2.8,2.8,0,0,1,5.41,1Z"/><path class="m" d="M112.65,222.18a1,1,0,0,1-1,1H89.5a1,1,0,1,1,0-2h22.16A1,1,0,0,1,112.65,222.18Z"/><path class="m" d="M35.22,222.4v-2.83a2.77,2.77,0,0,1,1.8,2.61,2.8,2.8,0,1,1-3.79-2.62v2.84a1,1,0,1,0,2,0Z"/><path class="m" d="M34.22,191.05a2.79,2.79,0,0,1,1,5.4v-2.83a1,1,0,0,0-2,0v2.84a2.8,2.8,0,0,1,1-5.41Z"/><path class="m" d="M34.22,192.63a1,1,0,0,1,1,1V222.4a1,1,0,1,1-2,0V193.62A1,1,0,0,1,34.22,192.63Z"/><path class="m" d="M67.4,178.81v2.83A2.77,2.77,0,0,1,65.6,179a2.8,2.8,0,1,1,3.79,2.62v-2.84a1,1,0,1,0-2,0Z"/><path class="m" d="M68.4,210.16a2.79,2.79,0,0,1-1-5.4v2.83a1,1,0,0,0,2,0v-2.84a2.8,2.8,0,0,1-1,5.41Z"/><path class="m" d="M68.4,208.58a1,1,0,0,1-1-1V178.81a1,1,0,1,1,2,0v28.78A1,1,0,0,1,68.4,208.58Z"/><path class="m" d="M88.64,178.81v2.83a2.77,2.77,0,0,1-1.8-2.61,2.8,2.8,0,1,1,3.79,2.62v-2.84a1,1,0,1,0-2,0Z"/><path class="m" d="M89.64,210.16a2.79,2.79,0,0,1-1-5.4v2.83a1,1,0,0,0,2,0v-2.84a2.8,2.8,0,0,1-1,5.41Z"/><path class="m" d="M89.64,208.58a1,1,0,0,1-1-1V178.81a1,1,0,1,1,2,0v28.78A1,1,0,0,1,89.64,208.58Z"/><path class="m" d="M41.9,223.18h2.83a2.77,2.77,0,0,1-2.61,1.8,2.8,2.8,0,1,1,2.62-3.79H41.9a1,1,0,1,0,0,2Z"/><path class="m" d="M71.1,222.18a2.79,2.79,0,0,1-5.4,1h2.83a1,1,0,0,0,0-2H65.69a2.8,2.8,0,0,1,5.41,1Z"/><path class="m" d="M69.52,222.18a1,1,0,0,1-1,1H41.9a1,1,0,1,1,0-2H68.53A1,1,0,0,1,69.52,222.18Z"/><circle class="n" cx="79.1" cy="216.26" r="2.8"/><rect class="o" x="77.2" y="180.59" width="1.9" height="5.37"/><line class="b" x1="79.1" y1="216.26" x2="84.81" y2="216.26"/><path class="n" d="M121.9,230.55v33.38H47.79V230.55h6.42a3.62,3.62,0,0,1,3.62,3.63v13.46a9.68,9.68,0,0,0,8.84,9.77A9.47,9.47,0,0,0,76.77,248V234.18a3.63,3.63,0,0,1,3.63-3.63Z"/><path class="o" d="M121.9,221.84v8.71h-1.8v-8.71a2.49,2.49,0,0,0-2.49-2.48,2.43,2.43,0,0,0-2.12,1.21l-1.54-.93a4.24,4.24,0,0,1,3.66-2.08A4.29,4.29,0,0,1,121.9,221.84Z"/><rect class="o" x="118.29" y="227.79" width="1.82" height="2.76"/><line class="b" x1="118.29" y1="228.19" x2="115.62" y2="227.09"/><line class="k" x1="57.83" y1="234.18" x2="76.77" y2="234.18"/><polyline class="k" points="71.04 236.57 74.43 236.57 74.43 237.77"/><polygon class="o" points="74.14 193.97 82.15 193.97 79.1 185.96 77.2 185.96 74.14 193.97"/><rect class="k" x="125.44" y="224.05" width="133.25" height="1.82"/><rect class="k" x="125.44" y="201.05" width="133.25" height="1.82"/><rect class="k" x="125.44" y="225.87" width="26.65" height="35.78"/><rect class="k" x="152.09" y="225.87" width="26.65" height="35.78"/><rect class="k" x="178.74" y="225.87" width="26.65" height="8.94"/><rect class="k" x="178.74" y="234.81" width="26.65" height="8.94"/><rect class="k" x="178.74" y="252.7" width="26.65" height="8.94"/><rect class="k" x="178.74" y="243.76" width="26.65" height="8.94"/><polygon class="k" points="216.06 224.05 208.98 224.05 208.14 217.57 216.89 217.57 216.06 224.05"/><line class="k" x1="211.86" y1="215.59" x2="213.43" y2="215.59"/><line class="k" x1="206.57" y1="217.57" x2="208.14" y2="217.57"/><line class="k" x1="216.89" y1="217.57" x2="218.46" y2="217.57"/><line class="k" x1="212.64" y1="216" x2="212.64" y2="217.57"/><polygon class="l" points="230.63 224.05 223.55 224.05 222.71 221.7 231.47 221.7 230.63 224.05"/><line class="k" x1="218.81" y1="221.7" x2="224.47" y2="221.7"/><line class="k" x1="154.39" y1="229.57" x2="154.39" y2="241.7"/><line class="k" x1="198.13" y1="230.34" x2="185.99" y2="230.34"/><line class="k" x1="198.13" y1="239.29" x2="185.99" y2="239.29"/><line class="k" x1="198.13" y1="248.23" x2="185.99" y2="248.23"/><line class="k" x1="198.13" y1="257.18" x2="185.99" y2="257.18"/><line class="k" x1="149.66" y1="229.57" x2="149.66" y2="241.7"/><rect class="k" x="125.44" y="165.27" width="26.65" height="35.78"/><rect class="k" x="152.09" y="165.27" width="26.65" height="35.78"/><rect class="k" x="178.74" y="165.27" width="26.65" height="35.78"/><rect class="k" x="205.39" y="165.27" width="26.65" height="35.78"/><rect class="k" x="232.04" y="165.27" width="26.65" height="35.78"/><rect class="k" x="125.44" y="202.87" width="26.65" height="21.45"/><rect class="k" x="152.09" y="202.87" width="26.65" height="21.45"/><line class="k" x1="159.34" y1="220.81" x2="171.48" y2="220.81"/><line class="k" x1="132.69" y1="220.81" x2="144.83" y2="220.81"/><line class="k" x1="159.34" y1="197.37" x2="171.48" y2="197.37"/><line class="k" x1="132.69" y1="197.37" x2="144.83" y2="197.37"/><line class="k" x1="212.64" y1="197.37" x2="224.78" y2="197.37"/><line class="k" x1="239.29" y1="197.37" x2="251.43" y2="197.37"/><line class="k" x1="185.99" y1="197.37" x2="198.13" y2="197.37"/><rect class="k" x="182.02" y="212.17" width="18.61" height="1.93"/><polyline class="o" points="184.34 220.32 184.34 209.86 185.88 211.18 185.88 217.29 184.34 217.04"/><polygon class="p" points="236.46 207.16 205.14 207.16 206.57 203.28 234.76 203.28 236.46 207.16"/><rect class="q" x="188.78" y="112.99" width="84.1" height="12.33"/><rect class="q" x="130.73" y="112.99" width="21.93" height="12.33"/><rect class="e" x="103.22" y="39.88" width="27.02" height="113.26"/><polyline class="r" points="103.22 42.4 103.22 39.88 105.74 39.88"/><line class="s" x1="110.13" y1="39.88" x2="125.52" y2="39.88"/><polyline class="r" points="127.72 39.88 130.24 39.88 130.24 42.4"/><line class="t" x1="130.24" y1="47.56" x2="130.24" y2="148.05"/><polyline class="r" points="130.24 150.63 130.24 153.14 127.72 153.14"/><line class="s" x1="123.32" y1="153.14" x2="107.93" y2="153.14"/><polyline class="r" points="105.74 153.14 103.22 153.14 103.22 150.63"/><line class="t" x1="103.22" y1="145.47" x2="103.22" y2="44.98"/><rect class="p" x="272.9" y="218.41" width="26.42" height="17.57"/><rect class="p" x="284.41" y="152.93" width="6.63" height="8.71" transform="translate(445.02 -130.45) rotate(90)"/><path class="k" d="M290.84,163.58a4.94,4.94,0,0,1-7,0"/><path class="k" d="M293.21,166.47a8.29,8.29,0,0,1-11.71,0"/><path class="k" d="M296.16,168.89a12.43,12.43,0,0,1-17.6,0"/><path class="k" d="M296.16,168.89a12.43,12.43,0,0,1-17.6,0"/><path class="k" d="M396.2,231.16a4.95,4.95,0,0,1,7,0"/><path class="k" d="M393.83,228.27a8.3,8.3,0,0,1,11.72,0"/><path class="k" d="M390.89,225.85a12.43,12.43,0,0,1,17.6,0"/><path class="k" d="M390.89,225.85a12.43,12.43,0,0,1,17.6,0"/><polygon class="p" points="410.48 244.96 398.32 244.96 398.32 242.44 401.04 242.44 410.48 242.44 410.48 244.96"/><line class="k" x1="398.32" y1="233.03" x2="401.29" y2="242.36"/><line class="k" x1="401.29" y1="233.03" x2="404.26" y2="242.36"/><rect class="u" x="379.71" y="244.96" width="32.45" height="1.82"/><rect class="u" x="377" y="254.03" width="16.32" height="1.82" transform="translate(640.1 -130.22) rotate(90)"/><rect class="u" x="398.39" y="254.03" width="16.32" height="1.82" transform="translate(661.48 -151.61) rotate(90)"/><rect class="v" x="274.67" y="220.15" width="22.89" height="14.09"/><rect class="v" x="283.7" y="228.92" width="4.38" height="3.23"/><polygon class="v" points="285.89 225.69 285.89 225.69 282.19 228.92 289.59 228.92 285.89 225.69"/><path class="w" d="M296.68,234l-1.72-.86a2.89,2.89,0,0,0,1.12-2.29,2.92,2.92,0,1,0-4.24,2.6v1.73l-1-.21h-.05l-.17,0a1.07,1.07,0,0,0-.75.32l-.74.75,2.7,2.7a1.21,1.21,0,0,0,.87.37h3.35a1,1,0,0,0,1-.89l.43-2.5A1.6,1.6,0,0,0,296.68,234Zm-.19,1.52-.42,2.5h-3.35a.16.16,0,0,1-.12-.06l-2-1.95,2.26.47v-5.63a.27.27,0,0,1,.53,0v3.19h.93l1.84.91A.54.54,0,0,1,296.49,235.54Zm-5.18-4.67a1.86,1.86,0,1,1,3.18,1.3v-1.3a1.33,1.33,0,0,0-2.65,0v1.3A1.85,1.85,0,0,1,291.31,230.87Z"/><line class="x" x1="276.37" y1="222.4" x2="280.61" y2="222.4"/><line class="x" x1="276.37" y1="223.84" x2="280.61" y2="223.84"/><line class="x" x1="276.37" y1="225.29" x2="280.61" y2="225.29"/><line class="x" x1="276.37" y1="226.73" x2="280.61" y2="226.73"/><polygon class="y" points="335.53 160.6 316.7 160.6 270.39 263.1 379.71 263.1 335.53 160.6"/><path class="n" d="M27.67,238.38H47.54A3.65,3.65,0,0,1,51.2,242v0A1.94,1.94,0,0,1,49.25,244H24a0,0,0,0,1,0,0V242A3.65,3.65,0,0,1,27.67,238.38Z"/><path class="n" d="M13.32,221.24H24.74a1.89,1.89,0,0,1,1.89,1.89v0A1.89,1.89,0,0,1,24.74,225H13.32a0,0,0,0,1,0,0v-3.77a0,0,0,0,1,0,0Z"/><path class="n" d="M49.43,244c0,9.27-6.58,12.25-15.85,12.25v7.71H13.43V244Z"/><polygon class="n" points="22.68 243.97 13.44 243.97 13.32 225.01 22.68 225.01 22.68 243.97"/><ellipse class="n" cx="78.15" cy="193.97" rx="4.32" ry="1.43"/><path class="z" d="M376.53,225.29H328.82a8.07,8.07,0,0,0-8.07,8.07v27.82h5.61l3.31-2.2h44.58l3.09,2.2h7.26V233.36A8.07,8.07,0,0,0,376.53,225.29Z"/><line class="k" x1="440.36" y1="241.78" x2="520.91" y2="255.87"/><line class="k" x1="440.36" y1="239.67" x2="520.91" y2="253.77"/><line class="k" x1="452.78" y1="243.95" x2="452.78" y2="270.78"/><line class="k" x1="511.35" y1="254.19" x2="511.35" y2="281.03"/><line class="k" x1="455.21" y1="244.37" x2="455.21" y2="271.21"/><line class="k" x1="513.77" y1="254.62" x2="513.77" y2="281.45"/><line class="k" x1="483.33" y1="249.29" x2="483.33" y2="276.13"/><line class="k" x1="485.76" y1="249.72" x2="485.76" y2="276.55"/><line class="aa" x1="436.1" y1="283.76" x2="436.86" y2="278.73"/><line class="ab" x1="437.81" y1="278.73" x2="430.73" y2="278.73"/><line class="aa" x1="430.73" y1="278.73" x2="431.48" y2="273.7"/><line class="ab" x1="432.44" y1="273.7" x2="425.35" y2="273.7"/><line class="aa" x1="425.35" y1="273.7" x2="426.1" y2="268.66"/><line class="ab" x1="427.06" y1="268.66" x2="419.98" y2="268.66"/><line class="aa" x1="419.98" y1="268.66" x2="420.73" y2="263.63"/><line class="ac" x1="421.68" y1="263.63" x2="415.35" y2="263.63"/><line class="ad" x1="130.24" y1="131.42" x2="103.22" y2="131.42"/><line class="ad" x1="130.24" y1="121.68" x2="103.22" y2="121.68"/><line class="ad" x1="130.24" y1="54.72" x2="103.22" y2="54.72"/><rect class="ae" x="110.25" y="112.19" width="14.32" height="9.49" transform="translate(234.82 233.88) rotate(-180)"/><line class="af" x1="117.41" y1="116.94" x2="91.3" y2="74.63"/><path class="ag" d="M94.36,81.65l11,5.32v2.22H78.25V86.77l12.94-6.59V77.6A2.84,2.84,0,1,1,94,74.77"/><path class="ah" d="M91.8,85.24s5.82.38,8.48-2.28l10.61,5-2.82,7-5.93-3.17.17,19.18h-21l.17-19.18L75.53,95,72.7,88l10.62-5C86,85.62,91.8,85.24,91.8,85.24Z"/><line class="u" x1="420.35" y1="283.77" x2="417.46" y2="286.66"/><line class="u" x1="422.87" y1="283.77" x2="419.98" y2="286.66"/><line class="u" x1="425.38" y1="283.77" x2="422.49" y2="286.66"/><line class="u" x1="427.9" y1="283.77" x2="425.01" y2="286.66"/><line class="u" x1="430.41" y1="283.77" x2="427.52" y2="286.66"/><line class="u" x1="432.92" y1="283.77" x2="430.03" y2="286.66"/><line class="u" x1="435.44" y1="283.77" x2="432.55" y2="286.66"/><line class="u" x1="437.95" y1="283.77" x2="435.06" y2="286.66"/><line class="u" x1="440.47" y1="283.77" x2="437.58" y2="286.66"/><line class="u" x1="442.98" y1="283.77" x2="440.09" y2="286.66"/><line class="u" x1="445.5" y1="283.77" x2="442.61" y2="286.66"/><line class="u" x1="448.01" y1="283.77" x2="445.12" y2="286.66"/><line class="u" x1="450.52" y1="283.77" x2="447.63" y2="286.66"/><line class="u" x1="453.04" y1="283.77" x2="450.15" y2="286.66"/><line class="u" x1="455.55" y1="283.77" x2="452.66" y2="286.66"/><line class="u" x1="458.07" y1="283.77" x2="455.18" y2="286.66"/><line class="u" x1="460.58" y1="283.77" x2="457.69" y2="286.66"/><line class="u" x1="463.1" y1="283.77" x2="460.21" y2="286.66"/><line class="u" x1="465.61" y1="283.77" x2="462.72" y2="286.66"/><line class="u" x1="468.12" y1="283.77" x2="465.23" y2="286.66"/><line class="u" x1="470.64" y1="283.77" x2="467.75" y2="286.66"/><line class="u" x1="473.15" y1="283.77" x2="470.26" y2="286.66"/><line class="u" x1="475.67" y1="283.77" x2="472.78" y2="286.66"/><line class="u" x1="478.18" y1="283.77" x2="475.29" y2="286.66"/><line class="u" x1="480.7" y1="283.77" x2="477.81" y2="286.66"/><line class="u" x1="483.21" y1="283.77" x2="480.32" y2="286.66"/><line class="u" x1="485.73" y1="283.77" x2="482.84" y2="286.66"/><line class="u" x1="488.24" y1="283.77" x2="485.35" y2="286.66"/><line class="u" x1="490.75" y1="283.77" x2="487.86" y2="286.66"/><line class="u" x1="493.27" y1="283.77" x2="490.38" y2="286.66"/><line class="u" x1="495.78" y1="283.77" x2="492.89" y2="286.66"/><line class="u" x1="498.3" y1="283.77" x2="495.41" y2="286.66"/><line class="u" x1="500.81" y1="283.77" x2="497.92" y2="286.66"/><line class="u" x1="503.33" y1="283.77" x2="500.44" y2="286.66"/><line class="u" x1="505.84" y1="283.77" x2="502.95" y2="286.66"/><line class="u" x1="508.35" y1="283.77" x2="505.46" y2="286.66"/><line class="u" x1="510.87" y1="283.77" x2="507.98" y2="286.66"/><line class="u" x1="513.38" y1="283.77" x2="510.49" y2="286.66"/><line class="u" x1="515.9" y1="283.77" x2="513.01" y2="286.66"/><line class="u" x1="518.41" y1="283.77" x2="515.52" y2="286.66"/><line class="u" x1="520.93" y1="283.77" x2="518.04" y2="286.66"/><line class="u" x1="523.44" y1="283.77" x2="520.55" y2="286.66"/><line class="u" x1="525.95" y1="283.77" x2="523.06" y2="286.66"/><line class="u" x1="528.47" y1="283.77" x2="525.58" y2="286.66"/><line class="u" x1="530.98" y1="283.77" x2="528.09" y2="286.66"/><line class="u" x1="533.5" y1="283.77" x2="530.61" y2="286.66"/><line class="u" x1="536.01" y1="283.77" x2="533.12" y2="286.66"/><line class="u" x1="538.53" y1="283.77" x2="535.64" y2="286.66"/><line class="u" x1="541.04" y1="283.77" x2="538.15" y2="286.66"/><line class="u" x1="543.56" y1="283.77" x2="540.67" y2="286.66"/><rect class="p" x="322.8" y="147.87" width="6.63" height="18.83" transform="translate(483.4 -168.83) rotate(90)"/><rect class="ai" x="130.73" y="145.76" width="142.15" height="7.67"/><rect class="k" x="129.76" y="143.95" width="143.82" height="1.82"/><rect class="aj" x="149.5" y="73.92" width="42.43" height="79.51"/><rect class="ak" x="183.49" y="115.07" width="4.97" height="4.97" rx="2.49"/><rect class="ak" x="178.03" y="116.76" width="8.99" height="1.58" rx="0.79"/><circle class="n" cx="237.22" cy="207.16" r="4.65"/><path class="n" d="M207.87,247.93a1.67,1.67,0,0,0,1,.84l1.91.63,4.4,1.44.32.08.34,0H216a2.23,2.23,0,0,0,.75-.22,2,2,0,0,0,.36-.23,1.87,1.87,0,0,0,.71-.94l4-11.15a1.64,1.64,0,0,1,1.54-1.08h15.82a1.6,1.6,0,0,0,1.6-1.6V216.1a3.5,3.5,0,0,0-3.18-3.55,3.38,3.38,0,0,0-3.57,3.36v1.72h-4.55l-7.06-6.74a2.35,2.35,0,0,0-1.62-.63,2.39,2.39,0,0,0-1.73.76,2.34,2.34,0,0,0-.63,1.69,2.3,2.3,0,0,0,.75,1.65l7.74,7.37a.31.31,0,0,0,.13.1,2.4,2.4,0,0,0,.37.25,1.23,1.23,0,0,0,.29.13,1.58,1.58,0,0,0,.37.11h0a2.31,2.31,0,0,0,.46.05H234v8.2h-14.2c-.12,0-.23,0-.35,0a1.09,1.09,0,0,0-.24,0,.75.75,0,0,0-.26.05,1.49,1.49,0,0,0-.3.09l-.37.16-.29.17a1.53,1.53,0,0,0-.21.14,3.33,3.33,0,0,0-1.05,1.33,1.58,1.58,0,0,0-.13.31l0,.08L213,243l-.94-.3a2.86,2.86,0,0,0-3.61,1.82l-.69,2.1A1.61,1.61,0,0,0,207.87,247.93Z"/><circle class="k" cx="245.03" cy="249.41" r="12.24"/><circle class="k" cx="245.03" cy="249.41" r="9.86"/><circle class="k" cx="224.54" cy="256.78" r="4.87"/><polyline class="k" points="248.68 248.71 228.33 248.71 221.09 244.73"/><polyline class="k" points="212.52 251.2 216.78 252.75 224.19 238.65 244.75 238.65"/><line class="k" x1="224.19" y1="237.17" x2="244.75" y2="237.17"/><path class="k" d="M232.16,222.61h9.1a3.77,3.77,0,0,1,3.77,3.77v22.33a0,0,0,0,1,0,0H228.39a0,0,0,0,1,0,0V226.38A3.77,3.77,0,0,1,232.16,222.61Z"/><path class="k" d="M224.47,256.89V234.57a3.77,3.77,0,0,1,3.77-3.77H245"/><polyline class="k" points="253.32 211.28 248.07 211.28 240.99 238.65"/><circle class="al" cx="55.29" cy="88.43" r="5.47"/><path class="al" d="M67.8,101.39v23.89a2.49,2.49,0,0,1-.72,1.75,2.41,2.41,0,0,1-1.75.73,2.49,2.49,0,0,1-2.49-2.48V105.55h-.7v43.73a3,3,0,0,1-.9,2.18A3.07,3.07,0,0,1,56,149.28V126H54.31v23.3a3,3,0,0,1-.9,2.18,3.07,3.07,0,0,1-5.24-2.18V105.55h-.59v19.73a2.42,2.42,0,0,1-.74,1.75,2.4,2.4,0,0,1-1.75.73,2.47,2.47,0,0,1-2.47-2.48V101.39a5,5,0,0,1,5-5H62.84A5,5,0,0,1,67.8,101.39Z"/><rect class="c" x="13.43" y="264.54" width="403.67" height="19.22"/><polyline class="am" points="13.32 154.51 88.98 154.51 376.21 154.51 415.35 166.64 415.35 263.63"/><line class="an" x1="130.73" y1="14.87" x2="130.73" y2="154.51"/><line class="an" x1="13.32" y1="49.94" x2="13.32" y2="263.63"/><line class="an" x1="273.34" y1="46.75" x2="273.34" y2="154.51"/><polyline class="am" points="283.77 52.24 170.72 2 5.06 54.72"/><line class="am" x1="2" y1="263.63" x2="415.35" y2="263.63"/><line class="an" x1="260.65" y1="154.51" x2="260.65" y2="263.63"/><line class="an" x1="124.34" y1="154.51" x2="124.34" y2="263.63"/><line class="am" x1="384.6" y1="157.06" x2="423.74" y2="169.19"/><line class="k" x1="545.54" y1="283.77" x2="418.52" y2="283.77"/><line class="k" x1="530.09" y1="284.31" x2="415" y2="264.17"/></svg>