<svg xmlns="http://www.w3.org/2000/svg" xmlns:xlink="http://www.w3.org/1999/xlink" viewBox="0 0 1442.18 990.75"><defs><style>.a,.j{fill:none;}.b{clip-path:url(#a);}.c{clip-path:url(#b);}.d{fill:#adda48;}.e{fill:#ccc;}.f{fill:#57844b;}.g{fill:#6ba35c;}.h{fill:#fce25f;}.i{fill:#ffa205;}.j{stroke:#ee9008;stroke-miterlimit:10;stroke-width:0.51px;}.k{fill:#f8ce0a;}.l{fill:#fff;}.m{fill:#e5e5e5;}.n{fill:#974410;}.o{fill:#69975a;}.p{fill:#ff5c00;}</style><clipPath id="a"><polygon class="a" points="979.06 716.5 477.72 716.5 477.72 306.44 980.16 306.44 979.06 716.5"/></clipPath><clipPath id="b"><polygon class="a" points="979.06 716.5 477.72 716.5 476.52 306.44 982.2 306.44 979.06 716.5"/></clipPath></defs><title>iso1</title><g class="b"><g class="c"><polygon class="d" points="483.17 593.02 483.33 632.11 618.63 716.5 672.95 716.5 483.17 593.02"/><polygon class="d" points="1040.22 0 1406.09 161.54 1032.58 442.85 687.77 252.39 1040.22 0"/><polygon class="e" points="771.67 169.51 1172.83 375.64 1198.96 355.54 791.2 155.74 771.67 169.51"/><polygon class="e" points="784.62 304.91 739.16 306.59 987.59 447.51 987.86 411.96 784.62 304.91"/><polygon class="d" points="377.22 93.08 724.27 288.57 323.06 532.98 0 310.71 377.22 93.08"/><polygon class="e" points="92.81 234.3 468.35 480.21 496.6 462.89 113.79 222.6 92.81 234.3"/><polygon class="e" points="693.71 306.14 739.16 306.59 476.26 469.3 476.26 439.18 693.71 306.14"/><polygon class="d" points="739.16 306.59 1089.37 496.92 707.33 737.59 367.39 529.03 739.16 306.59"/><polygon class="e" points="985.88 466.12 985.67 493.87 602.51 716.5 547.97 716.5 985.88 466.12"/><polygon class="e" points="878.05 307.45 468.53 552.14 487.83 563.03 924.38 307.45 878.05 307.45"/><polygon class="d" points="1087.74 515.12 1442.18 698.25 1050.77 956.63 719.27 745.91 1087.74 515.12"/><polygon class="e" points="812.36 670.52 1195.19 897.96 1222.61 879.46 832.48 657.67 812.36 670.52"/><polygon class="d" points="398.12 555.31 730.53 772.58 312.92 990.75 6.34 748.3 398.12 555.31"/><polygon class="e" points="985.88 466.12 985.67 493.87 602.51 716.5 547.97 716.5 985.88 466.12"/><polygon class="e" points="125.17 711.88 484.55 978.71 513.85 963.03 146.84 701.4 125.17 711.88"/><polygon class="e" points="511.2 630.01 487.83 643.08 487.83 675.03 536.64 645.85 511.2 630.01"/><polygon class="e" points="692.21 747.24 983.74 561.08 983.97 580.51 709.77 763.48 692.21 747.24"/><polygon class="e" points="470.69 644.19 470.85 683.28 606.14 767.67 660.47 767.67 470.69 644.19"/></g><polygon class="f" points="735.13 310.07 804.89 352.34 721.75 402.06 652.59 357.76 735.13 310.07"/><polygon class="g" points="678.59 354.89 726.9 387.86 786.68 354.15 731.68 327.66 678.59 354.89"/><polygon class="h" points="676.83 350.09 676.83 336.7 684.97 333.26 694.14 345.54 694.14 360.03 676.83 350.09"/><polygon class="i" points="694.14 360.03 713.77 350.58 713.77 335.47 694.14 345.54 694.14 360.03"/><line class="j" x1="704.43" y1="339.89" x2="704.43" y2="354.71"/><polygon class="k" points="703.83 322.45 693.62 326.63 676.83 336.7 684.97 333.26 703.83 322.45"/><polygon class="k" points="684.97 333.26 703.83 322.45 713.77 335.47 694.14 345.54 684.97 333.26"/><polygon class="l" points="682.6 349.46 682.6 345.22 685.74 346.87 685.74 351.27 682.6 349.46"/><polygon class="l" points="682.6 342.49 682.6 338.25 685.74 339.9 685.74 344.3 682.6 342.49"/><polygon class="l" points="686.94 352 686.94 347.75 690.08 349.41 690.08 353.81 686.94 352"/><polygon class="k" points="697.38 358.47 697.38 352.2 700.75 350.78 700.75 356.85 697.38 358.47"/><polygon class="l" points="707.35 344.04 707.35 347.67 710.89 345.94 710.89 342.25 707.35 344.04"/><line class="k" x1="684.97" y1="333.26" x2="703.83" y2="322.46"/><polygon class="h" points="750.56 370.07 750.05 360.64 755.65 357.94 763.32 365.85 764.18 377.48 750.56 370.07"/><polygon class="i" points="764.18 377.48 776.64 369.79 776.03 358.5 763.32 365.85 764.18 377.48"/><polygon class="k" points="768.53 349.67 761.5 352.97 750.05 360.64 755.65 357.94 768.53 349.67"/><polygon class="k" points="755.65 357.94 768.53 349.67 776.03 358.5 763.32 365.85 755.65 357.94"/><polygon class="m" points="752.68 371.15 752.39 365.85 759.15 368.99 759.46 374.61 752.68 371.15"/><line class="k" x1="755.65" y1="357.94" x2="768.53" y2="349.67"/><rect class="n" x="729.1" y="349.01" width="3.53" height="11.15"/><ellipse class="o" cx="730.87" cy="335.79" rx="14.11" ry="13.41"/><path class="e" d="M752.68,371.15a6.07,6.07,0,0,0-.62,5.75c1.09,2.86,4.3,4.7,4.89,5,1.87-1,5.76-3.51,7.38-4.52C759.46,374.61,756.57,373.13,752.68,371.15Z"/><polygon class="p" points="735.13 310.07 735.13 302 804.89 344.3 804.89 352.34 735.13 310.07"/><polygon class="f" points="647.82 360.1 717.58 402.37 634.44 452.08 565.28 407.79 647.82 360.1"/><polygon class="g" points="591.28 404.92 639.59 437.89 699.37 404.18 644.38 377.69 591.28 404.92"/><polygon class="h" points="589.52 400.12 589.52 386.73 597.66 383.29 606.83 395.57 606.83 410.06 589.52 400.12"/><polygon class="i" points="606.83 410.06 626.47 400.61 626.47 385.5 606.83 395.57 606.83 410.06"/><line class="j" x1="617.12" y1="389.92" x2="617.12" y2="404.74"/><polygon class="k" points="616.52 372.49 606.31 376.66 589.52 386.73 597.66 383.29 616.52 372.49"/><polygon class="k" points="597.66 383.29 616.52 372.49 626.47 385.5 606.83 395.57 597.66 383.29"/><polygon class="l" points="595.29 399.49 595.29 395.25 598.43 396.9 598.43 401.3 595.29 399.49"/><polygon class="l" points="595.29 392.52 595.29 388.27 598.43 389.93 598.43 394.33 595.29 392.52"/><polygon class="l" points="599.63 402.03 599.63 397.78 602.77 399.44 602.77 403.83 599.63 402.03"/><polygon class="k" points="610.07 408.5 610.07 402.23 613.44 400.81 613.44 406.88 610.07 408.5"/><polygon class="l" points="620.04 394.07 620.04 397.7 623.58 395.97 623.58 392.28 620.04 394.07"/><line class="k" x1="597.66" y1="383.29" x2="616.52" y2="372.48"/><polygon class="h" points="663.25 420.1 662.74 410.67 668.34 407.97 676.01 415.88 676.88 427.51 663.25 420.1"/><polygon class="i" points="676.88 427.51 689.34 419.82 688.72 408.53 676.01 415.88 676.88 427.51"/><polygon class="k" points="681.22 399.7 674.19 403 662.74 410.67 668.34 407.97 681.22 399.7"/><polygon class="k" points="668.34 407.97 681.22 399.7 688.72 408.53 676.01 415.88 668.34 407.97"/><polygon class="m" points="665.37 421.18 665.08 415.88 671.84 419.01 672.15 424.64 665.37 421.18"/><line class="k" x1="668.34" y1="407.97" x2="681.22" y2="399.7"/><rect class="n" x="641.79" y="399.04" width="3.53" height="11.15"/><ellipse class="o" cx="643.56" cy="385.82" rx="14.11" ry="13.41"/><path class="e" d="M665.37,421.18a6.07,6.07,0,0,0-.62,5.75c1.09,2.86,4.3,4.7,4.89,5,1.87-1,5.76-3.51,7.38-4.52C672.15,424.64,669.26,423.16,665.37,421.18Z"/><polygon class="p" points="647.82 360.1 647.82 352.03 717.58 394.33 717.58 402.37 647.82 360.1"/><polygon class="f" points="560.51 410.13 630.27 452.39 547.13 502.12 477.97 457.82 560.51 410.13"/><polygon class="g" points="503.97 454.95 552.28 487.92 612.06 454.21 557.07 427.72 503.97 454.95"/><polygon class="h" points="502.21 450.14 502.21 436.76 510.35 433.32 519.52 445.6 519.52 460.09 502.21 450.14"/><polygon class="i" points="519.52 460.09 539.15 450.64 539.15 435.53 519.52 445.6 519.52 460.09"/><line class="j" x1="529.81" y1="439.95" x2="529.81" y2="454.77"/><polygon class="k" points="529.21 422.51 519 426.69 502.21 436.76 510.35 433.32 529.21 422.51"/><polygon class="k" points="510.35 433.32 529.21 422.51 539.15 435.53 519.52 445.6 510.35 433.32"/><polygon class="l" points="507.98 449.52 507.98 445.27 511.13 446.93 511.13 451.33 507.98 449.52"/><polygon class="l" points="507.98 442.55 507.98 438.3 511.13 439.96 511.13 444.36 507.98 442.55"/><polygon class="l" points="512.32 452.06 512.32 447.81 515.47 449.47 515.47 453.87 512.32 452.06"/><polygon class="k" points="522.76 458.53 522.76 452.26 526.13 450.84 526.13 456.91 522.76 458.53"/><polygon class="l" points="532.74 444.1 532.74 447.73 536.27 446 536.27 442.31 532.74 444.1"/><line class="k" x1="510.35" y1="433.32" x2="529.21" y2="422.51"/><polygon class="h" points="575.94 470.13 575.43 460.7 581.03 458 588.7 465.91 589.57 477.54 575.94 470.13"/><polygon class="i" points="589.57 477.54 602.02 469.85 601.41 458.56 588.7 465.91 589.57 477.54"/><polygon class="k" points="593.91 449.73 586.88 453.03 575.43 460.7 581.03 458 593.91 449.73"/><polygon class="k" points="581.03 458 593.91 449.73 601.41 458.56 588.7 465.91 581.03 458"/><polygon class="m" points="578.06 471.21 577.77 465.91 584.53 469.04 584.84 474.67 578.06 471.21"/><line class="k" x1="581.03" y1="458" x2="593.91" y2="449.73"/><rect class="n" x="554.48" y="449.07" width="3.53" height="11.15"/><ellipse class="o" cx="556.25" cy="435.85" rx="14.11" ry="13.41"/><path class="e" d="M578.06,471.21a6.06,6.06,0,0,0-.62,5.75c1.1,2.86,4.3,4.7,4.89,5,1.87-1,5.76-3.51,7.38-4.52C584.84,474.67,582,473.19,578.06,471.21Z"/><polygon class="p" points="560.51 410.13 560.51 402.06 630.27 444.36 630.27 452.39 560.51 410.13"/><polygon class="f" points="477.97 460.16 547.73 502.42 464.58 552.14 395.43 507.85 477.97 460.16"/><polygon class="g" points="421.43 504.98 469.74 537.95 529.52 504.24 474.52 477.75 421.43 504.98"/><polygon class="h" points="419.67 500.18 419.67 486.79 427.81 483.35 436.98 495.63 436.98 510.12 419.67 500.18"/><polygon class="i" points="436.98 510.12 456.61 500.67 456.61 485.56 436.98 495.63 436.98 510.12"/><line class="j" x1="447.27" y1="489.98" x2="447.27" y2="504.79"/><polygon class="k" points="446.67 472.54 436.46 476.72 419.67 486.79 427.81 483.35 446.67 472.54"/><polygon class="k" points="427.81 483.35 446.67 472.54 456.61 485.56 436.98 495.63 427.81 483.35"/><polygon class="l" points="425.44 499.55 425.44 495.3 428.58 496.96 428.58 501.36 425.44 499.55"/><polygon class="l" points="425.44 492.58 425.44 488.33 428.58 489.99 428.58 494.39 425.44 492.58"/><polygon class="l" points="429.78 502.09 429.78 497.84 432.92 499.5 432.92 503.89 429.78 502.09"/><polygon class="k" points="440.22 508.56 440.22 502.29 443.59 500.87 443.59 506.94 440.22 508.56"/><polygon class="l" points="450.19 494.12 450.19 497.76 453.73 496.03 453.73 492.34 450.19 494.12"/><line class="k" x1="427.81" y1="483.35" x2="446.67" y2="472.54"/><polygon class="h" points="493.4 520.16 492.89 510.73 498.49 508.03 506.16 515.94 507.02 527.57 493.4 520.16"/><polygon class="i" points="507.02 527.57 519.48 519.88 518.87 508.59 506.16 515.94 507.02 527.57"/><polygon class="k" points="511.37 499.76 504.34 503.06 492.89 510.73 498.49 508.03 511.37 499.76"/><polygon class="k" points="498.49 508.03 511.37 499.76 518.87 508.59 506.16 515.94 498.49 508.03"/><polygon class="m" points="495.52 521.24 495.23 515.94 501.99 519.07 502.3 524.7 495.52 521.24"/><line class="k" x1="498.49" y1="508.03" x2="511.37" y2="499.76"/><rect class="n" x="471.94" y="499.1" width="3.53" height="11.15"/><ellipse class="o" cx="473.71" cy="485.88" rx="14.11" ry="13.41"/><path class="e" d="M495.52,521.24a6,6,0,0,0-.62,5.74c1.09,2.87,4.3,4.71,4.89,5,1.87-1,5.76-3.51,7.38-4.52C502.3,524.7,499.41,523.22,495.52,521.24Z"/><polygon class="p" points="477.97 460.16 477.97 452.08 547.73 494.39 547.73 502.42 477.97 460.16"/><polygon class="f" points="824.34 362.99 894.1 405.25 810.96 454.97 741.8 410.67 824.34 362.99"/><polygon class="g" points="767.8 407.81 816.12 440.77 875.89 407.06 820.89 380.57 767.8 407.81"/><polygon class="h" points="766.04 403 766.04 389.61 774.18 386.17 783.35 398.45 783.35 412.94 766.04 403"/><polygon class="i" points="783.35 412.94 802.99 403.49 802.99 388.38 783.35 398.45 783.35 412.94"/><line class="j" x1="793.64" y1="392.8" x2="793.64" y2="407.62"/><polygon class="k" points="793.04 375.37 782.83 379.54 766.04 389.61 774.18 386.17 793.04 375.37"/><polygon class="k" points="774.18 386.17 793.04 375.37 802.99 388.38 783.35 398.45 774.18 386.17"/><polygon class="l" points="771.81 402.37 771.81 398.13 774.96 399.78 774.96 404.18 771.81 402.37"/><polygon class="l" points="771.81 395.4 771.81 391.16 774.96 392.81 774.96 397.21 771.81 395.4"/><polygon class="l" points="776.15 404.91 776.15 400.66 779.29 402.32 779.29 406.72 776.15 404.91"/><polygon class="k" points="786.6 411.38 786.6 405.11 789.96 403.69 789.96 409.76 786.6 411.38"/><polygon class="l" points="796.57 396.95 796.57 400.58 800.1 398.85 800.1 395.16 796.57 396.95"/><line class="k" x1="774.18" y1="386.17" x2="793.04" y2="375.37"/><polygon class="h" points="839.77 422.98 839.26 413.55 844.86 410.85 852.53 418.76 853.4 430.39 839.77 422.98"/><polygon class="i" points="853.4 430.39 865.86 422.7 865.24 411.41 852.53 418.76 853.4 430.39"/><polygon class="k" points="857.74 402.58 850.71 405.88 839.26 413.55 844.86 410.85 857.74 402.58"/><polygon class="k" points="844.86 410.85 857.74 402.58 865.24 411.41 852.53 418.76 844.86 410.85"/><polygon class="m" points="841.89 424.06 841.61 418.76 848.36 421.9 848.67 427.52 841.89 424.06"/><line class="k" x1="844.86" y1="410.85" x2="857.74" y2="402.58"/><rect class="n" x="818.31" y="401.92" width="3.53" height="11.15"/><ellipse class="o" cx="820.08" cy="388.7" rx="14.11" ry="13.41"/><path class="e" d="M841.89,424.06a6.08,6.08,0,0,0-.62,5.75c1.1,2.86,4.3,4.7,4.89,5,1.87-1,5.76-3.51,7.38-4.52C848.67,427.52,845.78,426.05,841.89,424.06Z"/><polygon class="e" points="479.05 648.25 987.1 349.53 985.67 377.4 479.68 675.79 479.05 648.25"/><polygon class="p" points="824.34 362.99 824.34 354.91 894.1 397.21 894.1 405.25 824.34 362.99"/><polygon class="f" points="737.03 413.01 806.79 455.28 723.65 505 654.49 460.7 737.03 413.01"/><polygon class="g" points="680.49 457.83 728.8 490.8 788.58 457.09 733.59 430.6 680.49 457.83"/><polygon class="h" points="678.73 453.03 678.73 439.64 686.87 436.2 696.04 448.48 696.04 462.97 678.73 453.03"/><polygon class="i" points="696.04 462.97 715.68 453.52 715.68 438.41 696.04 448.48 696.04 462.97"/><line class="j" x1="706.33" y1="442.83" x2="706.33" y2="457.65"/><polygon class="k" points="705.73 425.39 695.52 429.57 678.73 439.64 686.87 436.2 705.73 425.39"/><polygon class="k" points="686.87 436.2 705.73 425.39 715.68 438.41 696.04 448.48 686.87 436.2"/><polygon class="l" points="684.5 452.4 684.5 448.16 687.64 449.81 687.64 454.21 684.5 452.4"/><polygon class="l" points="684.5 445.43 684.5 441.19 687.64 442.84 687.64 447.24 684.5 445.43"/><polygon class="l" points="688.84 454.94 688.84 450.69 691.99 452.35 691.99 456.75 688.84 454.94"/><polygon class="k" points="699.28 461.41 699.28 455.14 702.65 453.72 702.65 459.79 699.28 461.41"/><polygon class="l" points="709.25 446.98 709.25 450.61 712.79 448.88 712.79 445.19 709.25 446.98"/><line class="k" x1="686.87" y1="436.2" x2="705.73" y2="425.4"/><polygon class="h" points="752.46 473.01 751.95 463.58 757.55 460.88 765.22 468.79 766.09 480.42 752.46 473.01"/><polygon class="i" points="766.09 480.42 778.55 472.73 777.93 461.44 765.22 468.79 766.09 480.42"/><polygon class="k" points="770.43 452.61 763.4 455.91 751.95 463.58 757.55 460.88 770.43 452.61"/><polygon class="k" points="757.55 460.88 770.43 452.61 777.93 461.44 765.22 468.79 757.55 460.88"/><polygon class="m" points="754.58 474.09 754.3 468.79 761.05 471.93 761.36 477.55 754.58 474.09"/><line class="k" x1="757.55" y1="460.88" x2="770.43" y2="452.61"/><rect class="n" x="731" y="451.95" width="3.53" height="11.15"/><ellipse class="o" cx="732.77" cy="438.73" rx="14.11" ry="13.41"/><path class="e" d="M754.58,474.09a6.08,6.08,0,0,0-.62,5.75c1.1,2.86,4.3,4.7,4.89,5,1.87-1,5.76-3.51,7.38-4.52C761.36,477.55,758.47,476.08,754.58,474.09Z"/><polygon class="p" points="737.03 413.01 737.03 404.94 806.79 447.24 806.79 455.28 737.03 413.01"/><polygon class="f" points="660.09 241.28 729.84 283.54 646.7 333.26 577.55 288.97 660.09 241.28"/><polygon class="g" points="603.54 286.1 651.86 319.06 711.64 285.36 656.64 258.87 603.54 286.1"/><polygon class="h" points="601.78 281.29 601.78 267.91 609.92 264.47 619.09 276.75 619.09 291.24 601.78 281.29"/><polygon class="i" points="619.09 291.24 638.73 281.78 638.73 266.68 619.09 276.75 619.09 291.24"/><line class="j" x1="629.39" y1="271.1" x2="629.39" y2="285.91"/><polygon class="k" points="628.78 253.66 618.58 257.84 601.78 267.91 609.92 264.47 628.78 253.66"/><polygon class="k" points="609.92 264.47 628.78 253.66 638.73 266.68 619.09 276.75 609.92 264.47"/><polygon class="l" points="607.55 280.67 607.55 276.42 610.7 278.08 610.7 282.48 607.55 280.67"/><polygon class="l" points="607.55 273.69 607.55 269.45 610.7 271.11 610.7 275.5 607.55 273.69"/><polygon class="l" points="611.89 283.2 611.89 278.96 615.04 280.62 615.04 285.01 611.89 283.2"/><polygon class="k" points="622.34 289.68 622.34 283.41 625.7 281.99 625.7 288.06 622.34 289.68"/><polygon class="l" points="632.31 275.24 632.31 278.88 635.85 277.15 635.85 273.46 632.31 275.24"/><line class="k" x1="609.92" y1="264.47" x2="628.78" y2="253.66"/><polygon class="h" points="675.51 301.28 675 291.85 680.61 289.14 688.27 297.06 689.14 308.69 675.51 301.28"/><polygon class="i" points="689.14 308.69 701.6 301 700.99 289.71 688.27 297.06 689.14 308.69"/><polygon class="k" points="693.48 280.88 686.45 284.17 675 291.85 680.61 289.14 693.48 280.88"/><polygon class="k" points="680.61 289.14 693.48 280.88 700.99 289.71 688.27 297.06 680.61 289.14"/><polygon class="m" points="677.64 302.36 677.35 297.06 684.11 300.19 684.41 305.81 677.64 302.36"/><line class="k" x1="680.61" y1="289.14" x2="693.48" y2="280.88"/><rect class="n" x="654.06" y="280.22" width="3.53" height="11.15"/><ellipse class="o" cx="655.82" cy="267" rx="14.11" ry="13.41"/><path class="e" d="M677.64,302.36a6,6,0,0,0-.62,5.74c1.09,2.87,4.29,4.7,4.89,5,1.87-1,5.76-3.5,7.38-4.51C684.41,305.81,681.52,304.34,677.64,302.36Z"/><polygon class="p" points="660.09 241.28 660.09 233.2 729.84 275.5 729.84 283.54 660.09 241.28"/><polygon class="f" points="845.06 240.05 914.82 282.31 831.67 332.03 762.52 287.73 845.06 240.05"/><polygon class="g" points="788.52 284.87 836.83 317.83 896.61 284.12 841.61 257.64 788.52 284.87"/><polygon class="h" points="786.76 280.06 786.76 266.67 794.89 263.24 804.07 275.52 804.07 290.01 786.76 280.06"/><polygon class="i" points="804.07 290.01 823.7 280.55 823.7 265.45 804.07 275.52 804.07 290.01"/><line class="j" x1="814.36" y1="269.87" x2="814.36" y2="284.68"/><polygon class="k" points="813.75 252.43 803.55 256.6 786.76 266.67 794.89 263.24 813.75 252.43"/><polygon class="k" points="794.89 263.24 813.75 252.43 823.7 265.45 804.07 275.52 794.89 263.24"/><polygon class="l" points="792.52 279.43 792.52 275.19 795.67 276.85 795.67 281.24 792.52 279.43"/><polygon class="l" points="792.52 272.46 792.52 268.22 795.67 269.88 795.67 274.27 792.52 272.46"/><polygon class="l" points="796.86 281.97 796.86 277.73 800.01 279.38 800.01 283.78 796.86 281.97"/><polygon class="k" points="807.31 288.44 807.31 282.17 810.68 280.75 810.68 286.82 807.31 288.44"/><polygon class="l" points="817.28 274.01 817.28 277.64 820.82 275.92 820.82 272.22 817.28 274.01"/><line class="k" x1="794.89" y1="263.24" x2="813.76" y2="252.43"/><polygon class="h" points="860.49 300.05 859.98 290.62 865.58 287.91 873.25 295.82 874.11 307.45 860.49 300.05"/><polygon class="i" points="874.11 307.45 886.57 299.76 885.96 288.48 873.25 295.82 874.11 307.45"/><polygon class="k" points="878.46 279.65 871.42 282.94 859.98 290.62 865.58 287.91 878.46 279.65"/><polygon class="k" points="865.58 287.91 878.46 279.65 885.96 288.48 873.25 295.82 865.58 287.91"/><polygon class="m" points="862.61 301.13 862.32 295.82 869.08 298.96 869.38 304.58 862.61 301.13"/><line class="k" x1="865.58" y1="287.91" x2="878.46" y2="279.65"/><rect class="n" x="839.03" y="278.99" width="3.53" height="11.15"/><ellipse class="o" cx="840.8" cy="265.76" rx="14.11" ry="13.41"/><path class="e" d="M862.61,301.13a6,6,0,0,0-.62,5.74c1.09,2.87,4.3,4.7,4.89,5,1.87-1,5.76-3.5,7.38-4.52C869.38,304.58,866.5,303.11,862.61,301.13Z"/><polygon class="p" points="845.06 240.05 845.06 231.97 914.82 274.27 914.82 282.31 845.06 240.05"/><polygon class="f" points="942.09 290.36 1013.29 330.39 931.94 382.72 861.27 340.64 942.09 290.36"/><polygon class="g" points="887.15 336.95 936.6 368.37 995.16 332.78 939.26 308.05 887.15 336.95"/><polygon class="h" points="885.23 332.2 884.75 318.82 892.77 315.13 902.37 327.11 902.88 341.6 885.23 332.2"/><polygon class="i" points="902.88 341.6 922.17 331.52 921.64 316.43 902.37 327.11 902.88 341.6"/><line class="j" x1="912.45" y1="321.14" x2="912.97" y2="335.94"/><polygon class="k" points="911.24 303.73 901.19 308.23 884.75 318.82 892.77 315.13 911.24 303.73"/><polygon class="k" points="892.77 315.13 911.24 303.73 921.64 316.43 902.37 327.11 892.77 315.13"/><polygon class="l" points="890.97 331.39 890.82 327.15 894.02 328.71 894.18 333.1 890.97 331.39"/><polygon class="l" points="890.72 324.43 890.58 320.19 893.78 321.74 893.93 326.13 890.72 324.43"/><polygon class="l" points="895.39 333.79 895.25 329.55 898.45 331.11 898.6 335.5 895.39 333.79"/><polygon class="k" points="906.06 339.93 905.84 333.66 909.16 332.14 909.37 338.2 906.06 339.93"/><polygon class="l" points="915.52 325.19 915.65 328.82 919.13 326.98 919 323.29 915.52 325.19"/><line class="k" x1="892.77" y1="315.13" x2="911.24" y2="303.73"/><polygon class="h" points="959.62 349.84 958.78 340.43 964.28 337.55 972.22 345.21 973.5 356.81 959.62 349.84"/><polygon class="i" points="973.5 356.81 985.68 348.73 984.67 337.47 972.22 345.21 973.5 356.81"/><polygon class="k" points="976.86 328.88 969.95 332.4 958.78 340.43 964.28 337.55 976.86 328.88"/><polygon class="k" points="964.28 337.55 976.86 328.88 984.67 337.47 972.22 345.21 964.28 337.55"/><polygon class="m" points="961.78 350.85 961.3 345.56 968.17 348.48 968.67 354.09 961.78 350.85"/><line class="k" x1="964.28" y1="337.55" x2="976.86" y2="328.88"/><polygon class="n" points="937.83 340.61 937.43 329.47 940.97 329.36 941.36 340.5 937.83 340.61"/><ellipse class="o" cx="938.73" cy="316.2" rx="14.11" ry="13.41"/><path class="e" d="M961.78,350.85a6,6,0,0,0-.42,5.76c1.19,2.83,4.46,4.56,5.06,4.84,1.84-1.06,5.63-3.68,7.22-4.74C968.67,354.09,965.73,352.71,961.78,350.85Z"/><polygon class="p" points="942.09 290.36 941.81 282.29 1013.01 322.35 1013.29 330.39 942.09 290.36"/><polygon class="f" points="1029.8 339.63 1101 379.06 1019.65 430.6 948.98 389.16 1029.8 339.63"/><polygon class="g" points="974.86 385.53 1024.31 416.47 1082.87 381.42 1026.97 357.06 974.86 385.53"/><polygon class="h" points="972.93 380.85 972.46 367.67 980.48 364.03 990.07 375.83 990.58 390.1 972.93 380.85"/><polygon class="i" points="990.58 390.1 1009.88 380.18 1009.35 365.31 990.07 375.83 990.58 390.1"/><line class="j" x1="1000.16" y1="369.95" x2="1000.68" y2="384.53"/><polygon class="k" points="998.95 352.8 988.89 357.23 972.46 367.67 980.48 364.03 998.95 352.8"/><polygon class="k" points="980.48 364.03 998.95 352.8 1009.35 365.31 990.07 375.83 980.48 364.03"/><polygon class="l" points="978.68 380.05 978.53 375.87 981.73 377.4 981.88 381.73 978.68 380.05"/><polygon class="l" points="978.43 373.19 978.28 369.01 981.49 370.54 981.64 374.87 978.43 373.19"/><polygon class="l" points="983.1 382.41 982.95 378.24 986.16 379.77 986.31 384.1 983.1 382.41"/><polygon class="k" points="993.77 388.46 993.55 382.29 996.86 380.78 997.08 386.76 993.77 388.46"/><polygon class="l" points="1003.23 373.94 1003.36 377.51 1006.83 375.7 1006.7 372.07 1003.23 373.94"/><line class="k" x1="980.48" y1="364.03" x2="998.95" y2="352.8"/><polygon class="h" points="1047.33 398.22 1046.48 388.95 1051.99 386.11 1059.93 393.66 1061.2 405.08 1047.33 398.22"/><polygon class="i" points="1061.2 405.08 1073.38 397.12 1072.38 386.03 1059.93 393.66 1061.2 405.08"/><polygon class="k" points="1064.57 377.57 1057.66 381.04 1046.48 388.95 1051.99 386.11 1064.57 377.57"/><polygon class="k" points="1051.99 386.11 1064.57 377.57 1072.38 386.03 1059.93 393.66 1051.99 386.11"/><polygon class="m" points="1049.48 399.22 1049.01 394 1055.87 396.88 1056.38 402.4 1049.48 399.22"/><line class="k" x1="1051.99" y1="386.11" x2="1064.57" y2="377.57"/><polygon class="n" points="1025.53 389.13 1025.14 378.16 1028.67 378.05 1029.06 389.02 1025.53 389.13"/><ellipse class="o" cx="1026.44" cy="365.08" rx="14.11" ry="13.21"/><path class="e" d="M1049.48,399.22a5.87,5.87,0,0,0-.41,5.67c1.19,2.79,4.46,4.49,5.06,4.77,1.83-1.05,5.63-3.63,7.22-4.68C1056.38,402.4,1053.44,401,1049.48,399.22Z"/><polygon class="p" points="1029.8 339.63 1029.52 331.68 1100.72 371.14 1101 379.06 1029.8 339.63"/><polygon class="f" points="649.73 463.04 719.48 505.31 636.34 555.03 567.18 510.73 649.73 463.04"/><polygon class="g" points="593.18 507.87 641.5 540.83 701.27 507.12 646.28 480.63 593.18 507.87"/><polygon class="h" points="591.42 503.06 591.42 489.67 599.56 486.23 608.73 498.51 608.73 513 591.42 503.06"/><polygon class="i" points="608.73 513 628.37 503.55 628.37 488.44 608.73 498.51 608.73 513"/><line class="j" x1="619.02" y1="492.86" x2="619.02" y2="507.68"/><polygon class="k" points="618.42 475.43 608.21 479.6 591.42 489.67 599.56 486.23 618.42 475.43"/><polygon class="k" points="599.56 486.23 618.42 475.43 628.37 488.44 608.73 498.51 599.56 486.23"/><polygon class="l" points="597.19 502.43 597.19 498.19 600.34 499.84 600.34 504.24 597.19 502.43"/><polygon class="l" points="597.19 495.46 597.19 491.21 600.34 492.87 600.34 497.27 597.19 495.46"/><polygon class="l" points="601.53 504.97 601.53 500.72 604.68 502.38 604.68 506.78 601.53 504.97"/><polygon class="k" points="611.98 511.44 611.98 505.17 615.34 503.75 615.34 509.82 611.98 511.44"/><polygon class="l" points="621.95 497.01 621.95 500.64 625.49 498.91 625.49 495.22 621.95 497.01"/><line class="k" x1="599.56" y1="486.23" x2="618.42" y2="475.42"/><polygon class="h" points="665.15 523.04 664.64 513.61 670.24 510.91 677.91 518.82 678.78 530.45 665.15 523.04"/><polygon class="i" points="678.78 530.45 691.24 522.76 690.63 511.47 677.91 518.82 678.78 530.45"/><polygon class="k" points="683.12 502.64 676.09 505.94 664.64 513.61 670.24 510.91 683.12 502.64"/><polygon class="k" points="670.24 510.91 683.12 502.64 690.63 511.47 677.91 518.82 670.24 510.91"/><polygon class="m" points="667.27 524.12 666.99 518.82 673.74 521.96 674.05 527.58 667.27 524.12"/><line class="k" x1="670.24" y1="510.91" x2="683.12" y2="502.64"/><rect class="n" x="643.69" y="501.98" width="3.53" height="11.15"/><ellipse class="o" cx="645.46" cy="488.76" rx="14.11" ry="13.41"/><path class="e" d="M667.27,524.12a6.07,6.07,0,0,0-.62,5.75c1.1,2.86,4.3,4.7,4.89,5,1.87-1,5.76-3.51,7.38-4.52C674.05,527.58,671.16,526.1,667.27,524.12Z"/><polygon class="p" points="649.73 463.04 649.73 454.97 719.48 497.27 719.48 505.31 649.73 463.04"/><polygon class="f" points="567.18 513.07 636.94 555.34 553.8 605.05 484.64 560.76 567.18 513.07"/><polygon class="g" points="510.64 557.89 558.96 590.86 618.73 557.15 563.74 530.66 510.64 557.89"/><polygon class="h" points="508.88 553.09 508.88 539.7 517.02 536.26 526.19 548.54 526.19 563.03 508.88 553.09"/><polygon class="i" points="526.19 563.03 545.83 553.58 545.83 538.47 526.19 548.54 526.19 563.03"/><line class="j" x1="536.48" y1="542.89" x2="536.48" y2="557.71"/><polygon class="k" points="535.88 525.45 525.67 529.63 508.88 539.7 517.02 536.26 535.88 525.45"/><polygon class="k" points="517.02 536.26 535.88 525.45 545.83 538.47 526.19 548.54 517.02 536.26"/><polygon class="l" points="514.65 552.46 514.65 548.22 517.79 549.87 517.79 554.27 514.65 552.46"/><polygon class="l" points="514.65 545.49 514.65 541.24 517.79 542.9 517.79 547.3 514.65 545.49"/><polygon class="l" points="518.99 555 518.99 550.75 522.13 552.41 522.13 556.8 518.99 555"/><polygon class="k" points="529.43 561.47 529.43 555.2 532.8 553.78 532.8 559.85 529.43 561.47"/><polygon class="l" points="539.4 547.03 539.4 550.67 542.94 548.94 542.94 545.25 539.4 547.03"/><line class="k" x1="517.02" y1="536.26" x2="535.88" y2="525.45"/><polygon class="h" points="582.61 573.07 582.1 563.64 587.7 560.94 595.37 568.85 596.24 580.48 582.61 573.07"/><polygon class="i" points="596.24 580.48 608.7 572.79 608.08 561.5 595.37 568.85 596.24 580.48"/><polygon class="k" points="600.58 552.67 593.55 555.97 582.1 563.64 587.7 560.94 600.58 552.67"/><polygon class="k" points="587.7 560.94 600.58 552.67 608.08 561.5 595.37 568.85 587.7 560.94"/><polygon class="m" points="584.73 574.15 584.45 568.85 591.2 571.99 591.51 577.61 584.73 574.15"/><line class="k" x1="587.7" y1="560.94" x2="600.58" y2="552.67"/><rect class="n" x="561.15" y="552.01" width="3.53" height="11.15"/><ellipse class="o" cx="562.92" cy="538.79" rx="14.11" ry="13.41"/><path class="e" d="M584.73,574.15a6.07,6.07,0,0,0-.62,5.75c1.1,2.86,4.3,4.7,4.89,5,1.87-1,5.76-3.51,7.38-4.52C591.51,577.61,588.62,576.13,584.73,574.15Z"/><polygon class="p" points="567.18 513.07 567.18 505 636.94 547.3 636.94 555.34 567.18 513.07"/><polygon class="f" points="917.04 420.95 986.8 463.21 903.65 512.93 834.5 468.64 917.04 420.95"/><polygon class="g" points="860.5 465.77 908.81 498.74 968.59 465.03 913.59 438.54 860.5 465.77"/><polygon class="h" points="858.74 460.96 858.74 447.58 866.88 444.14 876.05 456.42 876.05 470.91 858.74 460.96"/><polygon class="i" points="876.05 470.91 895.68 461.45 895.68 446.35 876.05 456.42 876.05 470.91"/><line class="j" x1="886.34" y1="450.77" x2="886.34" y2="465.58"/><polygon class="k" points="885.74 433.33 875.53 437.51 858.74 447.58 866.88 444.14 885.74 433.33"/><polygon class="k" points="866.88 444.14 885.74 433.33 895.68 446.35 876.05 456.42 866.88 444.14"/><polygon class="l" points="864.5 460.34 864.5 456.09 867.65 457.75 867.65 462.14 864.5 460.34"/><polygon class="l" points="864.5 453.36 864.5 449.12 867.65 450.78 867.65 455.17 864.5 453.36"/><polygon class="l" points="868.84 462.87 868.84 458.63 871.99 460.29 871.99 464.68 868.84 462.87"/><polygon class="k" points="879.29 469.35 879.29 463.08 882.66 461.65 882.66 467.73 879.29 469.35"/><polygon class="l" points="889.26 454.91 889.26 458.55 892.8 456.82 892.8 453.13 889.26 454.91"/><line class="k" x1="866.87" y1="444.14" x2="885.74" y2="433.33"/><polygon class="h" points="932.47 480.95 931.96 471.52 937.56 468.81 945.23 476.72 946.09 488.36 932.47 480.95"/><polygon class="i" points="946.09 488.36 958.55 480.67 957.94 469.38 945.23 476.72 946.09 488.36"/><polygon class="k" points="950.44 460.55 943.4 463.84 931.96 471.52 937.56 468.81 950.44 460.55"/><polygon class="k" points="937.56 468.81 950.44 460.55 957.94 469.38 945.23 476.72 937.56 468.81"/><polygon class="m" points="934.59 482.03 934.3 476.72 941.06 479.86 941.36 485.48 934.59 482.03"/><line class="k" x1="937.56" y1="468.81" x2="950.44" y2="460.55"/><rect class="n" x="911.01" y="459.89" width="3.53" height="11.15"/><ellipse class="o" cx="912.78" cy="446.67" rx="14.11" ry="13.41"/><path class="e" d="M934.59,482a6,6,0,0,0-.62,5.74c1.09,2.87,4.3,4.7,4.89,5,1.87-1,5.76-3.5,7.38-4.51C941.36,485.48,938.48,484,934.59,482Z"/><polygon class="p" points="917.04 420.95 917.04 412.87 986.8 455.17 986.8 463.21 917.04 420.95"/><polygon class="f" points="829.73 470.98 899.49 513.24 816.34 562.96 747.19 518.67 829.73 470.98"/><polygon class="g" points="773.19 515.8 821.5 548.76 881.28 515.06 826.28 488.57 773.19 515.8"/><polygon class="h" points="771.43 510.99 771.43 497.61 779.57 494.17 788.74 506.45 788.74 520.94 771.43 510.99"/><polygon class="i" points="788.74 520.94 808.37 511.48 808.37 496.38 788.74 506.45 788.74 520.94"/><line class="j" x1="799.03" y1="500.8" x2="799.03" y2="515.61"/><polygon class="k" points="798.43 483.36 788.22 487.54 771.43 497.61 779.57 494.17 798.43 483.36"/><polygon class="k" points="779.57 494.17 798.43 483.36 808.37 496.38 788.74 506.45 779.57 494.17"/><polygon class="l" points="777.2 510.37 777.2 506.12 780.34 507.78 780.34 512.17 777.2 510.37"/><polygon class="l" points="777.2 503.39 777.2 499.15 780.34 500.81 780.34 505.2 777.2 503.39"/><polygon class="l" points="781.53 512.9 781.53 508.66 784.68 510.31 784.68 514.71 781.53 512.9"/><polygon class="k" points="791.98 519.38 791.98 513.11 795.35 511.69 795.35 517.76 791.98 519.38"/><polygon class="l" points="801.95 504.94 801.95 508.58 805.49 506.85 805.49 503.15 801.95 504.94"/><line class="k" x1="779.57" y1="494.17" x2="798.43" y2="483.36"/><polygon class="h" points="845.16 530.98 844.65 521.55 850.25 518.84 857.92 526.75 858.78 538.38 845.16 530.98"/><polygon class="i" points="858.78 538.38 871.24 530.69 870.63 519.41 857.92 526.75 858.78 538.38"/><polygon class="k" points="863.13 510.58 856.1 513.87 844.65 521.55 850.25 518.84 863.13 510.58"/><polygon class="k" points="850.25 518.84 863.13 510.58 870.63 519.41 857.92 526.75 850.25 518.84"/><polygon class="m" points="847.28 532.06 846.99 526.75 853.75 529.89 854.05 535.51 847.28 532.06"/><line class="k" x1="850.25" y1="518.84" x2="863.13" y2="510.58"/><rect class="n" x="823.7" y="509.92" width="3.53" height="11.15"/><ellipse class="o" cx="825.47" cy="496.7" rx="14.11" ry="13.41"/><path class="e" d="M847.28,532.06a6,6,0,0,0-.62,5.74c1.09,2.87,4.3,4.7,4.89,5,1.87-1,5.76-3.5,7.38-4.51C854.05,535.51,851.17,534,847.28,532.06Z"/><polygon class="p" points="829.73 470.98 829.73 462.9 899.49 505.2 899.49 513.24 829.73 470.98"/><polygon class="f" points="742.42 521.01 812.18 563.27 729.03 612.99 659.88 568.7 742.42 521.01"/><polygon class="g" points="685.88 565.83 734.19 598.79 793.97 565.09 738.97 538.6 685.88 565.83"/><polygon class="h" points="684.12 561.02 684.12 547.63 692.26 544.2 701.43 556.48 701.43 570.97 684.12 561.02"/><polygon class="i" points="701.43 570.97 721.06 561.51 721.06 546.41 701.43 556.48 701.43 570.97"/><line class="j" x1="711.72" y1="550.83" x2="711.72" y2="565.64"/><polygon class="k" points="711.12 533.39 700.91 537.57 684.12 547.63 692.26 544.2 711.12 533.39"/><polygon class="k" points="692.26 544.2 711.12 533.39 721.06 546.41 701.43 556.48 692.26 544.2"/><polygon class="l" points="689.88 560.39 689.88 556.15 693.03 557.81 693.03 562.2 689.88 560.39"/><polygon class="l" points="689.88 553.42 689.88 549.18 693.03 550.84 693.03 555.23 689.88 553.42"/><polygon class="l" points="694.23 562.93 694.23 558.69 697.37 560.35 697.37 564.74 694.23 562.93"/><polygon class="k" points="704.67 569.41 704.67 563.13 708.04 561.71 708.04 567.78 704.67 569.41"/><polygon class="l" points="714.64 554.97 714.64 558.61 718.18 556.88 718.18 553.18 714.64 554.97"/><line class="k" x1="692.26" y1="544.2" x2="711.12" y2="533.39"/><polygon class="h" points="757.85 581.01 757.34 571.58 762.94 568.87 770.61 576.78 771.47 588.41 757.85 581.01"/><polygon class="i" points="771.47 588.41 783.93 580.72 783.32 569.44 770.61 576.78 771.47 588.41"/><polygon class="k" points="775.82 560.61 768.79 563.9 757.34 571.58 762.94 568.87 775.82 560.61"/><polygon class="k" points="762.94 568.87 775.82 560.61 783.32 569.44 770.61 576.78 762.94 568.87"/><polygon class="m" points="759.97 582.09 759.68 576.78 766.44 579.92 766.75 585.54 759.97 582.09"/><line class="k" x1="762.94" y1="568.87" x2="775.82" y2="560.61"/><rect class="n" x="736.39" y="559.95" width="3.53" height="11.15"/><ellipse class="o" cx="738.16" cy="546.72" rx="14.11" ry="13.41"/><path class="e" d="M760,582.09a6,6,0,0,0-.62,5.74c1.09,2.87,4.3,4.7,4.89,5,1.87-1,5.76-3.5,7.38-4.51C766.74,585.54,763.86,584.07,760,582.09Z"/><polygon class="p" points="742.42 521.01 742.42 512.93 812.18 555.23 812.18 563.27 742.42 521.01"/><polygon class="f" points="659.88 571.04 729.64 613.3 646.49 663.02 577.34 618.73 659.88 571.04"/><polygon class="g" points="603.34 615.86 651.65 648.82 711.43 615.12 656.43 588.63 603.34 615.86"/><polygon class="h" points="601.58 611.05 601.58 597.66 609.71 594.23 618.89 606.51 618.89 621 601.58 611.05"/><polygon class="i" points="618.89 621 638.52 611.54 638.52 596.44 618.89 606.51 618.89 621"/><line class="j" x1="629.18" y1="600.86" x2="629.18" y2="615.67"/><polygon class="k" points="628.58 583.42 618.37 587.59 601.58 597.66 609.71 594.23 628.58 583.42"/><polygon class="k" points="609.71 594.23 628.58 583.42 638.52 596.44 618.89 606.51 609.71 594.23"/><polygon class="l" points="607.34 610.42 607.34 606.18 610.49 607.84 610.49 612.23 607.34 610.42"/><polygon class="l" points="607.34 603.45 607.34 599.21 610.49 600.87 610.49 605.26 607.34 603.45"/><polygon class="l" points="611.68 612.96 611.68 608.72 614.83 610.37 614.83 614.77 611.68 612.96"/><polygon class="k" points="622.13 619.43 622.13 613.16 625.5 611.74 625.5 617.82 622.13 619.43"/><polygon class="l" points="632.1 605 632.1 608.63 635.64 606.91 635.64 603.21 632.1 605"/><line class="k" x1="609.71" y1="594.23" x2="628.58" y2="583.42"/><polygon class="h" points="675.31 631.04 674.8 621.61 680.4 618.9 688.07 626.81 688.93 638.44 675.31 631.04"/><polygon class="i" points="688.93 638.44 701.39 630.75 700.78 619.47 688.07 626.81 688.93 638.44"/><polygon class="k" points="693.27 610.64 686.25 613.93 674.8 621.61 680.4 618.9 693.27 610.64"/><polygon class="k" points="680.4 618.9 693.27 610.64 700.78 619.47 688.07 626.81 680.4 618.9"/><polygon class="m" points="677.43 632.12 677.14 626.81 683.9 629.95 684.2 635.57 677.43 632.12"/><line class="k" x1="680.4" y1="618.9" x2="693.28" y2="610.64"/><rect class="n" x="653.85" y="609.98" width="3.53" height="11.15"/><ellipse class="o" cx="655.62" cy="596.75" rx="14.11" ry="13.41"/><path class="e" d="M677.43,632.12a6,6,0,0,0-.62,5.74c1.09,2.87,4.3,4.7,4.89,5,1.87-1,5.76-3.5,7.38-4.52C684.2,635.57,681.32,634.1,677.43,632.12Z"/><polygon class="p" points="659.88 571.04 659.88 562.96 729.64 605.26 729.64 613.3 659.88 571.04"/><polygon class="f" points="1008.52 478.39 1078.28 520.65 995.13 570.37 925.98 526.08 1008.52 478.39"/><polygon class="g" points="951.98 523.21 1000.29 556.17 1060.07 522.47 1005.07 495.98 951.98 523.21"/><polygon class="h" points="950.21 518.4 950.21 505.01 958.35 501.58 967.52 513.86 967.52 528.35 950.21 518.4"/><polygon class="i" points="967.52 528.35 987.16 518.89 987.16 503.79 967.52 513.86 967.52 528.35"/><line class="j" x1="977.82" y1="508.21" x2="977.82" y2="523.02"/><polygon class="k" points="977.21 490.77 967.01 494.94 950.21 505.01 958.35 501.58 977.21 490.77"/><polygon class="k" points="958.35 501.58 977.21 490.77 987.16 503.79 967.52 513.86 958.35 501.58"/><polygon class="l" points="955.98 517.77 955.98 513.53 959.13 515.19 959.13 519.58 955.98 517.77"/><polygon class="l" points="955.98 510.8 955.98 506.56 959.13 508.22 959.13 512.61 955.98 510.8"/><polygon class="l" points="960.32 520.31 960.32 516.07 963.47 517.73 963.47 522.12 960.32 520.31"/><polygon class="k" points="970.77 526.79 970.77 520.51 974.13 519.09 974.13 525.17 970.77 526.79"/><polygon class="l" points="980.74 512.35 980.74 515.99 984.28 514.26 984.28 510.56 980.74 512.35"/><line class="k" x1="958.35" y1="501.58" x2="977.21" y2="490.77"/><polygon class="h" points="1023.95 538.39 1023.44 528.96 1029.04 526.25 1036.71 534.16 1037.57 545.79 1023.95 538.39"/><polygon class="i" points="1037.57 545.79 1050.03 538.1 1049.42 526.82 1036.71 534.16 1037.57 545.79"/><polygon class="k" points="1041.91 517.99 1034.88 521.28 1023.44 528.96 1029.04 526.25 1041.91 517.99"/><polygon class="k" points="1029.04 526.25 1041.91 517.99 1049.42 526.82 1036.71 534.16 1029.04 526.25"/><polygon class="m" points="1026.07 539.47 1025.78 534.16 1032.54 537.3 1032.84 542.92 1026.07 539.47"/><line class="k" x1="1029.04" y1="526.25" x2="1041.91" y2="517.99"/><rect class="n" x="1002.49" y="517.33" width="3.53" height="11.15"/><ellipse class="o" cx="1004.26" cy="504.1" rx="14.11" ry="13.41"/><path class="e" d="M1026.07,539.47a6,6,0,0,0-.62,5.74c1.09,2.87,4.3,4.7,4.89,5,1.87-1,5.76-3.5,7.38-4.51C1032.84,542.92,1030,541.45,1026.07,539.47Z"/><polygon class="p" points="1008.52 478.39 1008.52 470.31 1078.28 512.61 1078.28 520.65 1008.52 478.39"/><polygon class="f" points="921.21 528.42 990.97 570.68 907.82 620.4 838.67 576.11 921.21 528.42"/><polygon class="g" points="864.67 573.24 912.98 606.2 972.76 572.5 917.76 546.01 864.67 573.24"/><polygon class="h" points="862.9 568.43 862.9 555.04 871.04 551.61 880.22 563.89 880.22 578.38 862.9 568.43"/><polygon class="i" points="880.22 578.38 899.85 568.92 899.85 553.82 880.22 563.89 880.22 578.38"/><line class="j" x1="890.51" y1="558.24" x2="890.51" y2="573.05"/><polygon class="k" points="889.9 540.8 879.7 544.97 862.9 555.04 871.04 551.61 889.9 540.8"/><polygon class="k" points="871.04 551.61 889.9 540.8 899.85 553.82 880.22 563.89 871.04 551.61"/><polygon class="l" points="868.67 567.8 868.67 563.56 871.82 565.22 871.82 569.61 868.67 567.8"/><polygon class="l" points="868.67 560.83 868.67 556.59 871.82 558.25 871.82 562.64 868.67 560.83"/><polygon class="l" points="873.01 570.34 873.01 566.1 876.16 567.75 876.16 572.15 873.01 570.34"/><polygon class="k" points="883.46 576.82 883.46 570.54 886.83 569.12 886.83 575.2 883.46 576.82"/><polygon class="l" points="893.43 562.38 893.43 566.01 896.97 564.29 896.97 560.59 893.43 562.38"/><line class="k" x1="871.04" y1="551.61" x2="889.9" y2="540.8"/><polygon class="h" points="936.64 588.42 936.13 578.99 941.73 576.28 949.4 584.19 950.26 595.82 936.64 588.42"/><polygon class="i" points="950.26 595.82 962.72 588.13 962.11 576.85 949.4 584.19 950.26 595.82"/><polygon class="k" points="954.61 568.02 947.57 571.31 936.13 578.99 941.73 576.28 954.61 568.02"/><polygon class="k" points="941.73 576.28 954.61 568.02 962.11 576.85 949.4 584.19 941.73 576.28"/><polygon class="m" points="938.76 589.5 938.47 584.19 945.23 587.33 945.53 592.95 938.76 589.5"/><line class="k" x1="941.73" y1="576.28" x2="954.6" y2="568.02"/><rect class="n" x="915.18" y="567.36" width="3.53" height="11.15"/><ellipse class="o" cx="916.95" cy="554.13" rx="14.11" ry="13.41"/><path class="e" d="M938.76,589.5a6,6,0,0,0-.62,5.74c1.09,2.87,4.3,4.7,4.89,5,1.87-1,5.76-3.5,7.38-4.52C945.53,593,942.64,591.48,938.76,589.5Z"/><polygon class="p" points="921.21 528.42 921.21 520.34 990.97 562.64 990.97 570.68 921.21 528.42"/><polygon class="f" points="833.9 578.45 903.66 620.71 820.51 670.43 751.36 626.13 833.9 578.45"/><polygon class="g" points="777.36 623.27 825.67 656.23 885.45 622.52 830.45 596.04 777.36 623.27"/><polygon class="h" points="775.6 618.46 775.6 605.07 783.73 601.63 792.91 613.92 792.91 628.41 775.6 618.46"/><polygon class="i" points="792.91 628.41 812.54 618.95 812.54 603.85 792.91 613.92 792.91 628.41"/><line class="j" x1="803.2" y1="608.27" x2="803.2" y2="623.08"/><polygon class="k" points="802.6 590.83 792.39 595 775.6 605.07 783.73 601.63 802.6 590.83"/><polygon class="k" points="783.73 601.63 802.6 590.83 812.54 603.85 792.91 613.92 783.73 601.63"/><polygon class="l" points="781.36 617.83 781.36 613.59 784.51 615.25 784.51 619.64 781.36 617.83"/><polygon class="l" points="781.36 610.86 781.36 606.62 784.51 608.27 784.51 612.67 781.36 610.86"/><polygon class="l" points="785.7 620.37 785.7 616.13 788.85 617.78 788.85 622.18 785.7 620.37"/><polygon class="k" points="796.15 626.85 796.15 620.57 799.51 619.15 799.51 625.22 796.15 626.85"/><polygon class="l" points="806.12 612.41 806.12 616.04 809.66 614.32 809.66 610.62 806.12 612.41"/><line class="k" x1="783.73" y1="601.64" x2="802.59" y2="590.83"/><polygon class="h" points="849.33 638.45 848.82 629.01 854.42 626.31 862.09 634.22 862.95 645.85 849.33 638.45"/><polygon class="i" points="862.95 645.85 875.41 638.16 874.8 626.88 862.09 634.22 862.95 645.85"/><polygon class="k" points="867.29 618.05 860.26 621.34 848.82 629.01 854.42 626.31 867.29 618.05"/><polygon class="k" points="854.42 626.31 867.29 618.05 874.8 626.88 862.09 634.22 854.42 626.31"/><polygon class="m" points="851.45 639.53 851.16 634.22 857.92 637.36 858.22 642.98 851.45 639.53"/><line class="k" x1="854.42" y1="626.31" x2="867.3" y2="618.05"/><rect class="n" x="827.87" y="617.39" width="3.53" height="11.15"/><ellipse class="o" cx="829.64" cy="604.16" rx="14.11" ry="13.41"/><path class="e" d="M851.45,639.53a6,6,0,0,0-.62,5.74c1.09,2.87,4.3,4.7,4.89,5,1.87-1,5.76-3.5,7.38-4.52C858.22,643,855.33,641.51,851.45,639.53Z"/><polygon class="p" points="833.9 578.45 833.9 570.37 903.66 612.67 903.66 620.71 833.9 578.45"/><polygon class="f" points="751.36 628.48 821.12 670.74 737.97 720.46 668.82 676.16 751.36 628.48"/><polygon class="g" points="694.82 673.3 743.13 706.26 802.91 672.55 747.91 646.07 694.82 673.3"/><polygon class="h" points="693.05 668.49 693.05 655.1 701.19 651.66 710.37 663.95 710.37 678.44 693.05 668.49"/><polygon class="i" points="710.37 678.44 730 668.98 730 653.88 710.37 663.95 710.37 678.44"/><line class="j" x1="720.66" y1="658.3" x2="720.66" y2="673.11"/><polygon class="k" points="720.05 640.86 709.85 645.03 693.05 655.1 701.19 651.66 720.05 640.86"/><polygon class="k" points="701.19 651.66 720.05 640.86 730 653.88 710.37 663.95 701.19 651.66"/><polygon class="l" points="698.82 667.86 698.82 663.62 701.97 665.28 701.97 669.67 698.82 667.86"/><polygon class="l" points="698.82 660.89 698.82 656.65 701.97 658.3 701.97 662.7 698.82 660.89"/><polygon class="l" points="703.16 670.4 703.16 666.16 706.31 667.81 706.31 672.21 703.16 670.4"/><polygon class="k" points="713.61 676.87 713.61 670.6 716.97 669.18 716.97 675.25 713.61 676.87"/><polygon class="l" points="723.58 662.44 723.58 666.07 727.12 664.35 727.12 660.65 723.58 662.44"/><line class="k" x1="701.19" y1="651.66" x2="720.05" y2="640.86"/><polygon class="h" points="766.79 688.48 766.28 679.04 771.88 676.34 779.55 684.25 780.41 695.88 766.79 688.48"/><polygon class="i" points="780.41 695.88 792.87 688.19 792.26 676.9 779.55 684.25 780.41 695.88"/><polygon class="k" points="784.75 668.08 777.72 671.37 766.28 679.04 771.88 676.34 784.75 668.08"/><polygon class="k" points="771.88 676.34 784.75 668.08 792.26 676.9 779.55 684.25 771.88 676.34"/><polygon class="m" points="768.91 689.56 768.62 684.25 775.38 687.39 775.68 693.01 768.91 689.56"/><line class="k" x1="771.88" y1="676.34" x2="784.75" y2="668.08"/><rect class="n" x="745.33" y="667.42" width="3.53" height="11.15"/><ellipse class="o" cx="747.1" cy="654.19" rx="14.11" ry="13.41"/><path class="e" d="M768.91,689.56a6,6,0,0,0-.62,5.74c1.09,2.87,4.29,4.7,4.89,5,1.87-1,5.76-3.5,7.38-4.52C775.68,693,772.79,691.54,768.91,689.56Z"/><polygon class="p" points="751.36 628.48 751.36 620.4 821.12 662.7 821.12 670.74 751.36 628.48"/><polygon class="f" points="829.73 682.54 899.49 724.81 816.34 774.53 747.19 730.23 829.73 682.54"/><polygon class="g" points="773.19 727.37 821.5 760.33 881.28 726.62 826.28 700.13 773.19 727.37"/><polygon class="h" points="771.43 722.56 771.43 709.17 779.57 705.73 788.74 718.01 788.74 732.5 771.43 722.56"/><polygon class="i" points="788.74 732.5 808.37 723.05 808.37 707.94 788.74 718.01 788.74 732.5"/><line class="j" x1="799.03" y1="712.36" x2="799.03" y2="727.18"/><polygon class="k" points="798.43 694.93 788.22 699.1 771.43 709.17 779.57 705.73 798.43 694.93"/><polygon class="k" points="779.57 705.73 798.43 694.93 808.37 707.94 788.74 718.01 779.57 705.73"/><polygon class="l" points="777.2 721.93 777.2 717.69 780.34 719.34 780.34 723.74 777.2 721.93"/><polygon class="l" points="777.2 714.96 777.2 710.72 780.34 712.37 780.34 716.77 777.2 714.96"/><polygon class="l" points="781.53 724.47 781.53 720.22 784.68 721.88 784.68 726.28 781.53 724.47"/><polygon class="k" points="791.98 730.94 791.98 724.67 795.35 723.25 795.35 729.32 791.98 730.94"/><polygon class="l" points="801.95 716.51 801.95 720.14 805.49 718.41 805.49 714.72 801.95 716.51"/><line class="k" x1="779.57" y1="705.73" x2="798.43" y2="694.93"/><polygon class="h" points="845.16 742.54 844.65 733.11 850.25 730.41 857.92 738.32 858.78 749.95 845.16 742.54"/><polygon class="i" points="858.78 749.95 871.24 742.26 870.63 730.97 857.92 738.32 858.78 749.95"/><polygon class="k" points="863.13 722.14 856.1 725.44 844.65 733.11 850.25 730.41 863.13 722.14"/><polygon class="k" points="850.25 730.41 863.13 722.14 870.63 730.97 857.92 738.32 850.25 730.41"/><polygon class="m" points="847.28 743.62 846.99 738.32 853.75 741.46 854.05 747.08 847.28 743.62"/><line class="k" x1="850.25" y1="730.41" x2="863.13" y2="722.14"/><rect class="n" x="823.7" y="721.48" width="3.53" height="11.15"/><ellipse class="o" cx="825.47" cy="708.26" rx="14.11" ry="13.41"/><path class="e" d="M847.28,743.62a6.08,6.08,0,0,0-.62,5.75c1.09,2.86,4.3,4.7,4.89,5,1.87-1,5.76-3.51,7.38-4.52C854.05,747.08,851.17,745.61,847.28,743.62Z"/><polygon class="p" points="829.73 682.54 829.73 674.47 899.49 716.77 899.49 724.81 829.73 682.54"/><polygon class="f" points="1018.65 571.96 1088.41 614.23 1005.26 663.95 936.11 619.65 1018.65 571.96"/><polygon class="g" points="962.11 616.78 1010.42 649.75 1070.2 616.04 1015.2 589.55 962.11 616.78"/><polygon class="h" points="960.35 611.98 960.35 598.59 968.48 595.15 977.65 607.43 977.65 621.92 960.35 611.98"/><polygon class="i" points="977.65 621.92 997.29 612.47 997.29 597.36 977.65 607.43 977.65 621.92"/><line class="j" x1="987.95" y1="601.78" x2="987.95" y2="616.6"/><polygon class="k" points="987.34 584.35 977.14 588.52 960.35 598.59 968.48 595.15 987.34 584.35"/><polygon class="k" points="968.48 595.15 987.34 584.35 997.29 597.36 977.65 607.43 968.48 595.15"/><polygon class="l" points="966.11 611.35 966.11 607.11 969.26 608.76 969.26 613.16 966.11 611.35"/><polygon class="l" points="966.11 604.38 966.11 600.13 969.26 601.79 969.26 606.19 966.11 604.38"/><polygon class="l" points="970.45 613.89 970.45 609.64 973.6 611.3 973.6 615.7 970.45 613.89"/><polygon class="k" points="980.9 620.36 980.9 614.09 984.26 612.67 984.26 618.74 980.9 620.36"/><polygon class="l" points="990.87 605.93 990.87 609.56 994.41 607.83 994.41 604.14 990.87 605.93"/><line class="k" x1="968.48" y1="595.15" x2="987.34" y2="584.34"/><polygon class="h" points="1034.08 631.96 1033.57 622.53 1039.17 619.83 1046.84 627.74 1047.7 639.37 1034.08 631.96"/><polygon class="i" points="1047.7 639.37 1060.16 631.68 1059.55 620.39 1046.84 627.74 1047.7 639.37"/><polygon class="k" points="1052.04 611.56 1045.01 614.86 1033.57 622.53 1039.17 619.83 1052.04 611.56"/><polygon class="k" points="1039.17 619.83 1052.04 611.56 1059.55 620.39 1046.84 627.74 1039.17 619.83"/><polygon class="m" points="1036.2 633.04 1035.91 627.74 1042.67 630.88 1042.97 636.5 1036.2 633.04"/><line class="k" x1="1039.17" y1="619.83" x2="1052.04" y2="611.56"/><rect class="n" x="1012.62" y="610.9" width="3.53" height="11.15"/><ellipse class="o" cx="1014.39" cy="597.68" rx="14.11" ry="13.41"/><path class="e" d="M1036.2,633a6,6,0,0,0-.62,5.75c1.09,2.86,4.3,4.7,4.89,5,1.87-1,5.76-3.51,7.38-4.52C1043,636.5,1040.08,635,1036.2,633Z"/><polygon class="p" points="1018.65 571.96 1018.65 563.89 1088.41 606.19 1088.41 614.23 1018.65 571.96"/><polygon class="f" points="937.44 620.75 1007.2 663.01 927.26 710.82 854.9 668.43 937.44 620.75"/><polygon class="g" points="880.9 665.57 929.22 698.53 988.99 664.83 934 638.34 880.9 665.57"/><polygon class="h" points="879.14 660.76 879.14 647.37 887.28 643.94 896.45 656.22 896.45 670.71 879.14 660.76"/><polygon class="i" points="896.45 670.71 916.09 661.25 916.09 646.15 896.45 656.22 896.45 670.71"/><line class="j" x1="906.74" y1="650.57" x2="906.74" y2="665.38"/><polygon class="k" points="906.14 633.13 895.93 637.3 879.14 647.37 887.28 643.94 906.14 633.13"/><polygon class="k" points="887.28 643.94 906.14 633.13 916.09 646.15 896.45 656.22 887.28 643.94"/><polygon class="l" points="884.91 660.13 884.91 655.89 888.05 657.55 888.05 661.94 884.91 660.13"/><polygon class="l" points="884.91 653.16 884.91 648.92 888.05 650.58 888.05 654.97 884.91 653.16"/><polygon class="l" points="889.25 662.67 889.25 658.43 892.39 660.08 892.39 664.48 889.25 662.67"/><polygon class="k" points="899.7 669.14 899.7 662.87 903.06 661.45 903.06 667.52 899.7 669.14"/><polygon class="l" points="909.66 654.71 909.66 658.34 913.2 656.62 913.2 652.92 909.66 654.71"/><line class="k" x1="887.28" y1="643.94" x2="906.14" y2="633.13"/><polygon class="h" points="952.87 680.75 952.36 671.32 957.96 668.61 965.63 676.52 966.5 688.15 952.87 680.75"/><polygon class="i" points="966.5 688.15 978.96 680.46 978.34 669.17 965.63 676.52 966.5 688.15"/><polygon class="k" points="970.84 660.35 963.81 663.64 952.36 671.32 957.96 668.61 970.84 660.35"/><polygon class="k" points="957.96 668.61 970.84 660.35 978.34 669.17 965.63 676.52 957.96 668.61"/><polygon class="m" points="954.99 681.83 954.71 676.52 961.46 679.66 961.77 685.28 954.99 681.83"/><line class="k" x1="957.96" y1="668.61" x2="970.84" y2="660.35"/><rect class="n" x="931.41" y="659.69" width="3.53" height="11.15"/><ellipse class="o" cx="933.18" cy="646.46" rx="14.11" ry="13.41"/><path class="e" d="M955,681.83a6,6,0,0,0-.62,5.74c1.1,2.87,4.3,4.7,4.89,5,1.87-1,5.76-3.5,7.38-4.52C961.77,685.28,958.88,683.81,955,681.83Z"/><polygon class="p" points="937.44 620.75 937.44 612.67 1007.2 654.97 1007.2 663.01 937.44 620.75"/><polygon class="f" points="578.08 291.31 647.84 333.57 564.69 383.29 495.54 339 578.08 291.31"/><polygon class="g" points="521.53 336.13 569.85 369.1 629.63 335.39 574.63 308.9 521.53 336.13"/><polygon class="h" points="519.77 331.32 519.77 317.94 527.91 314.5 537.08 326.78 537.08 341.27 519.77 331.32"/><polygon class="i" points="537.08 341.27 556.72 331.81 556.72 316.71 537.08 326.78 537.08 341.27"/><line class="j" x1="547.38" y1="321.13" x2="547.38" y2="335.94"/><polygon class="k" points="546.77 303.69 536.57 307.87 519.77 317.94 527.91 314.5 546.77 303.69"/><polygon class="k" points="527.91 314.5 546.77 303.69 556.72 316.71 537.08 326.78 527.91 314.5"/><polygon class="l" points="525.54 330.7 525.54 326.45 528.69 328.11 528.69 332.5 525.54 330.7"/><polygon class="l" points="525.54 323.72 525.54 319.48 528.69 321.14 528.69 325.53 525.54 323.72"/><polygon class="l" points="529.88 333.23 529.88 328.99 533.03 330.65 533.03 335.04 529.88 333.23"/><polygon class="k" points="540.33 339.71 540.33 333.44 543.69 332.01 543.69 338.09 540.33 339.71"/><polygon class="l" points="550.3 325.27 550.3 328.91 553.84 327.18 553.84 323.49 550.3 325.27"/><line class="k" x1="527.91" y1="314.5" x2="546.77" y2="303.69"/><polygon class="h" points="593.51 351.31 593 341.88 598.6 339.17 606.26 347.08 607.13 358.72 593.51 351.31"/><polygon class="i" points="607.13 358.72 619.59 351.02 618.98 339.74 606.26 347.08 607.13 358.72"/><polygon class="k" points="611.47 330.91 604.44 334.2 593 341.88 598.6 339.17 611.47 330.91"/><polygon class="k" points="598.6 339.17 611.47 330.91 618.98 339.74 606.26 347.08 598.6 339.17"/><polygon class="m" points="595.63 352.39 595.34 347.08 602.1 350.22 602.4 355.84 595.63 352.39"/><line class="k" x1="598.6" y1="339.17" x2="611.47" y2="330.91"/><rect class="n" x="572.05" y="330.25" width="3.53" height="11.15"/><ellipse class="o" cx="573.82" cy="317.03" rx="14.11" ry="13.41"/><path class="e" d="M595.63,352.39a6,6,0,0,0-.62,5.74c1.09,2.87,4.29,4.7,4.89,5,1.87-1,5.76-3.5,7.38-4.51C602.4,355.84,599.51,354.37,595.63,352.39Z"/><polygon class="p" points="578.08 291.31 578.08 283.23 647.84 325.53 647.84 333.57 578.08 291.31"/><polygon class="f" points="493.41 341.34 563.16 383.6 480.02 433.32 410.87 389.03 493.41 341.34"/><polygon class="g" points="436.87 386.16 485.18 419.12 544.96 385.42 489.96 358.93 436.87 386.16"/><polygon class="h" points="435.1 381.35 435.1 367.97 443.24 364.53 452.41 376.81 452.41 391.3 435.1 381.35"/><polygon class="i" points="452.41 391.3 472.05 381.84 472.05 366.74 452.41 376.81 452.41 391.3"/><line class="j" x1="462.71" y1="371.16" x2="462.71" y2="385.97"/><polygon class="k" points="462.1 353.72 451.9 357.9 435.1 367.97 443.24 364.53 462.1 353.72"/><polygon class="k" points="443.24 364.53 462.1 353.72 472.05 366.74 452.41 376.81 443.24 364.53"/><polygon class="l" points="440.87 380.73 440.87 376.48 444.02 378.14 444.02 382.53 440.87 380.73"/><polygon class="l" points="440.87 373.75 440.87 369.51 444.02 371.17 444.02 375.56 440.87 373.75"/><polygon class="l" points="445.21 383.26 445.21 379.02 448.36 380.68 448.36 385.07 445.21 383.26"/><polygon class="k" points="455.66 389.74 455.66 383.47 459.02 382.05 459.02 388.12 455.66 389.74"/><polygon class="l" points="465.63 375.3 465.63 378.94 469.17 377.21 469.17 373.51 465.63 375.3"/><line class="k" x1="443.24" y1="364.53" x2="462.1" y2="353.72"/><polygon class="h" points="508.84 401.34 508.32 391.91 513.93 389.2 521.6 397.11 522.46 408.75 508.84 401.34"/><polygon class="i" points="522.46 408.75 534.92 401.05 534.31 389.77 521.6 397.11 522.46 408.75"/><polygon class="k" points="526.8 380.94 519.77 384.23 508.32 391.91 513.93 389.2 526.8 380.94"/><polygon class="k" points="513.93 389.2 526.8 380.94 534.31 389.77 521.6 397.11 513.93 389.2"/><polygon class="m" points="510.96 402.42 510.67 397.11 517.43 400.25 517.73 405.87 510.96 402.42"/><line class="k" x1="513.93" y1="389.2" x2="526.8" y2="380.94"/><rect class="n" x="487.38" y="380.28" width="3.53" height="11.15"/><ellipse class="o" cx="489.15" cy="367.06" rx="14.11" ry="13.41"/><path class="e" d="M511,402.42a6,6,0,0,0-.62,5.74c1.09,2.87,4.29,4.7,4.89,5,1.87-1,5.76-3.5,7.38-4.51C517.73,405.87,514.84,404.4,511,402.42Z"/><polygon class="p" points="493.41 341.34 493.41 333.26 563.16 375.56 563.16 383.6 493.41 341.34"/><polygon class="f" points="483.86 562.68 553.62 604.94 470.47 654.66 401.32 610.37 483.86 562.68"/><polygon class="g" points="427.32 607.5 475.63 640.47 535.41 606.76 480.41 580.27 427.32 607.5"/><polygon class="h" points="425.56 602.69 425.56 589.31 433.7 585.87 442.87 598.15 442.87 612.64 425.56 602.69"/><polygon class="i" points="442.87 612.64 462.5 603.19 462.5 588.08 442.87 598.15 442.87 612.64"/><line class="j" x1="453.16" y1="592.5" x2="453.16" y2="607.31"/><polygon class="k" points="452.56 575.06 442.35 579.24 425.56 589.31 433.7 585.87 452.56 575.06"/><polygon class="k" points="433.7 585.87 452.56 575.06 462.5 588.08 442.87 598.15 433.7 585.87"/><polygon class="l" points="431.33 602.07 431.33 597.82 434.47 599.48 434.47 603.88 431.33 602.07"/><polygon class="l" points="431.33 595.1 431.33 590.85 434.47 592.51 434.47 596.9 431.33 595.1"/><polygon class="l" points="435.67 604.61 435.67 600.36 438.81 602.02 438.81 606.41 435.67 604.61"/><polygon class="k" points="446.11 611.08 446.11 604.81 449.48 603.39 449.48 609.46 446.11 611.08"/><polygon class="l" points="456.08 596.64 456.08 600.28 459.62 598.55 459.62 594.86 456.08 596.64"/><line class="k" x1="433.7" y1="585.87" x2="452.56" y2="575.06"/><polygon class="h" points="499.29 622.68 498.78 613.25 504.38 610.55 512.05 618.46 512.91 630.09 499.29 622.68"/><polygon class="i" points="512.91 630.09 525.37 622.4 524.76 611.11 512.05 618.46 512.91 630.09"/><polygon class="k" points="517.26 602.28 510.23 605.58 498.78 613.25 504.38 610.55 517.26 602.28"/><polygon class="k" points="504.38 610.55 517.26 602.28 524.76 611.11 512.05 618.46 504.38 610.55"/><polygon class="m" points="501.41 623.76 501.12 618.46 507.88 621.59 508.19 627.22 501.41 623.76"/><line class="k" x1="504.38" y1="610.55" x2="517.26" y2="602.28"/><rect class="n" x="477.83" y="601.62" width="3.53" height="11.15"/><ellipse class="o" cx="479.6" cy="588.4" rx="14.11" ry="13.41"/><path class="e" d="M501.41,623.76a6,6,0,0,0-.62,5.74c1.09,2.87,4.3,4.7,4.89,5,1.87-1,5.76-3.51,7.38-4.52C508.18,627.22,505.3,625.74,501.41,623.76Z"/><polygon class="p" points="483.86 562.68 483.86 554.61 553.62 596.9 553.62 604.94 483.86 562.68"/><polygon class="f" points="576.75 618.39 646.5 660.66 563.36 710.38 494.21 666.08 576.75 618.39"/><polygon class="g" points="520.21 663.22 568.52 696.18 628.3 662.47 573.3 635.98 520.21 663.22"/><polygon class="h" points="518.44 658.41 518.44 645.02 526.58 641.58 535.75 653.86 535.75 668.36 518.44 658.41"/><polygon class="i" points="535.75 668.36 555.39 658.9 555.39 643.79 535.75 653.86 535.75 668.36"/><line class="j" x1="546.05" y1="648.21" x2="546.05" y2="663.03"/><polygon class="k" points="545.44 630.78 535.24 634.95 518.44 645.02 526.58 641.58 545.44 630.78"/><polygon class="k" points="526.58 641.58 545.44 630.78 555.39 643.79 535.75 653.86 526.58 641.58"/><polygon class="l" points="524.21 657.78 524.21 653.54 527.36 655.19 527.36 659.59 524.21 657.78"/><polygon class="l" points="524.21 650.81 524.21 646.57 527.36 648.22 527.36 652.62 524.21 650.81"/><polygon class="l" points="528.55 660.32 528.55 656.07 531.7 657.73 531.7 662.13 528.55 660.32"/><polygon class="k" points="539 666.79 539 660.52 542.36 659.1 542.36 665.17 539 666.79"/><polygon class="l" points="548.97 652.36 548.97 655.99 552.51 654.26 552.51 650.57 548.97 652.36"/><line class="k" x1="526.58" y1="641.58" x2="545.44" y2="630.78"/><polygon class="h" points="592.18 678.39 591.66 668.96 597.27 666.26 604.93 674.17 605.8 685.8 592.18 678.39"/><polygon class="i" points="605.8 685.8 618.26 678.11 617.65 666.82 604.93 674.17 605.8 685.8"/><polygon class="k" points="610.14 657.99 603.11 661.29 591.66 668.96 597.27 666.26 610.14 657.99"/><polygon class="k" points="597.27 666.26 610.14 657.99 617.65 666.82 604.93 674.17 597.27 666.26"/><polygon class="m" points="594.3 679.48 594.01 674.17 600.77 677.31 601.07 682.93 594.3 679.48"/><line class="k" x1="597.27" y1="666.26" x2="610.14" y2="657.99"/><rect class="n" x="570.72" y="657.33" width="3.53" height="11.15"/><ellipse class="o" cx="572.48" cy="644.11" rx="14.11" ry="13.41"/><path class="e" d="M594.3,679.47a6,6,0,0,0-.62,5.75c1.09,2.86,4.29,4.7,4.89,5,1.87-1,5.76-3.51,7.38-4.52C601.07,682.93,598.18,681.46,594.3,679.47Z"/><polygon class="p" points="576.75 618.39 576.75 610.32 646.5 652.62 646.5 660.66 576.75 618.39"/><polygon class="f" points="669.13 675.73 738.89 718 655.74 767.72 586.59 723.42 669.13 675.73"/><polygon class="g" points="612.59 720.55 660.9 753.52 720.68 719.81 665.68 693.32 612.59 720.55"/><polygon class="h" points="610.83 715.75 610.83 702.36 618.97 698.92 628.14 711.2 628.14 725.69 610.83 715.75"/><polygon class="i" points="628.14 725.69 647.77 716.24 647.77 701.13 628.14 711.2 628.14 725.69"/><line class="j" x1="638.43" y1="705.55" x2="638.43" y2="720.37"/><polygon class="k" points="637.83 688.12 627.62 692.29 610.83 702.36 618.97 698.92 637.83 688.12"/><polygon class="k" points="618.97 698.92 637.83 688.12 647.77 701.13 628.14 711.2 618.97 698.92"/><polygon class="l" points="616.6 715.12 616.6 710.88 619.74 712.53 619.74 716.93 616.6 715.12"/><polygon class="l" points="616.6 708.15 616.6 703.9 619.74 705.56 619.74 709.96 616.6 708.15"/><polygon class="l" points="620.94 717.66 620.94 713.41 624.08 715.07 624.08 719.47 620.94 717.66"/><polygon class="k" points="631.38 724.13 631.38 717.86 634.75 716.44 634.75 722.51 631.38 724.13"/><polygon class="l" points="641.35 709.7 641.35 713.33 644.89 711.6 644.89 707.91 641.35 709.7"/><line class="k" x1="618.97" y1="698.92" x2="637.83" y2="688.12"/><polygon class="h" points="684.56 735.73 684.05 726.3 689.65 723.6 697.32 731.51 698.18 743.14 684.56 735.73"/><polygon class="i" points="698.18 743.14 710.64 735.45 710.03 724.16 697.32 731.51 698.18 743.14"/><polygon class="k" points="702.53 715.33 695.5 718.63 684.05 726.3 689.65 723.6 702.53 715.33"/><polygon class="k" points="689.65 723.6 702.53 715.33 710.03 724.16 697.32 731.51 689.65 723.6"/><polygon class="m" points="686.68 736.81 686.39 731.51 693.15 734.65 693.46 740.27 686.68 736.81"/><line class="k" x1="689.65" y1="723.6" x2="702.53" y2="715.33"/><rect class="n" x="663.1" y="714.67" width="3.53" height="11.15"/><ellipse class="o" cx="664.87" cy="701.45" rx="14.11" ry="13.41"/><path class="e" d="M686.68,736.81a6.07,6.07,0,0,0-.62,5.75c1.09,2.86,4.3,4.7,4.89,5,1.87-1,5.76-3.51,7.38-4.52C693.45,740.27,690.57,738.79,686.68,736.81Z"/><polygon class="p" points="669.13 675.73 669.13 667.66 738.89 709.96 738.89 718 669.13 675.73"/></g></svg>